/* XPM */
static char *out[] = {
/* columns rows colors chars-per-pixel */
"64 64 246 2 ",
"   c #020202",
".  c #090D02",
"X  c #0B0B0B",
"o  c #0D1109",
"O  c #141414",
"+  c #1B1A1A",
"@  c #2A330B",
"#  c #222113",
"$  c #292929",
"%  c #333B29",
"&  c #353535",
"*  c #4F3524",
"=  c #394D0C",
"-  c #4D5714",
";  c #547212",
":  c #687713",
">  c #4E4B38",
",  c #704636",
"<  c #556A2E",
"1  c #6C7134",
"2  c #2D5B5A",
"3  c #3D5E76",
"4  c #3C686D",
"5  c #3C6478",
"6  c #4B4F49",
"7  c #57595A",
"8  c #6B5853",
"9  c #4E7351",
"0  c #697052",
"q  c #4B5663",
"w  c #435868",
"e  c #585D69",
"r  c #5F6161",
"t  c #5E6E69",
"y  c #486376",
"u  c #666765",
"i  c #777368",
"p  c #777776",
"a  c #8A3C35",
"s  c #915C2D",
"d  c #B8543D",
"f  c #8D6F31",
"g  c #AE762E",
"h  c #C67D1B",
"j  c #C5513D",
"k  c #97534A",
"l  c #AD5649",
"z  c #9F7464",
"x  c #CA5B59",
"c  c #D15A50",
"v  c #EC5754",
"b  c #CD684D",
"n  c #E5615E",
"m  c #F36361",
"M  c #59860E",
"N  c #66990D",
"B  c #659B0C",
"V  c #6C9216",
"C  c #6AA20E",
"Z  c #69A60C",
"A  c #70AC10",
"S  c #74AB14",
"D  c #7AB715",
"F  c #5B842A",
"G  c #769625",
"H  c #708531",
"J  c #71A92C",
"K  c #78C00F",
"L  c #7DC512",
"P  c #7EC813",
"I  c #788852",
"U  c #74A146",
"Y  c #758671",
"T  c #8E9731",
"R  c #8A9637",
"E  c #99A626",
"W  c #90B32B",
"Q  c #99B837",
"!  c #A8B628",
"~  c #AEB32F",
"^  c #D0821D",
"/  c #E38D24",
"(  c #83C916",
")  c #85C619",
"_  c #8BCC1B",
"`  c #91CF1E",
"'  c #92D01F",
"]  c #98CB27",
"[  c #93C62D",
"{  c #95D121",
"}  c #9BD325",
"|  c #9FD528",
" . c #B4C62F",
".. c #A2D62A",
"X. c #A8D52D",
"o. c #A6D82C",
"O. c #AADA2E",
"+. c #ADD433",
"@. c #ADDB31",
"#. c #B3DE34",
"$. c #BADA3A",
"%. c #B8E037",
"&. c #BCE23A",
"*. c #C4CD2A",
"=. c #C8D22B",
"-. c #CBD42B",
";. c #CDD635",
":. c #D1DB36",
">. c #C4E53D",
",. c #C8E73F",
"<. c #D4E13A",
"1. c #8D9051",
"2. c #A9854A",
"3. c #A8AE46",
"4. c #90966A",
"5. c #AEB36D",
"6. c #D1985F",
"7. c #AFCC45",
"8. c #BCE15B",
"9. c #C8D846",
"0. c #CCD84A",
"q. c #C9E342",
"w. c #CDE941",
"e. c #DBEE47",
"r. c #D7E648",
"t. c #DEED4A",
"y. c #E1ED4B",
"u. c #E4F34D",
"i. c #E7F255",
"p. c #E9F652",
"a. c #ECF85C",
"s. c #CFE06C",
"d. c #ECF26B",
"f. c #F3FD64",
"g. c #F4FA6B",
"h. c #F5FD6B",
"j. c #EEF275",
"k. c #FAFE73",
"l. c #FBFF7C",
"z. c #0B729A",
"x. c #187597",
"c. c #266982",
"v. c #346987",
"b. c #267789",
"n. c #2D7298",
"m. c #337797",
"M. c #0A75A3",
"N. c #0B79AB",
"B. c #127AA6",
"V. c #2A7BA4",
"C. c #4F7288",
"Z. c #687A89",
"A. c #1084B8",
"S. c #3488AF",
"D. c #2586B6",
"F. c #4F829E",
"G. c #778F90",
"H. c #5391AE",
"J. c #6796AC",
"K. c #7399AC",
"L. c #78A4B6",
"P. c #0D8DC5",
"I. c #1D8DC2",
"U. c #0F92CC",
"Y. c #1892CA",
"T. c #1B93CC",
"R. c #0E95D3",
"E. c #0F9BDB",
"W. c #1698D4",
"Q. c #139BDB",
"!. c #218EC2",
"~. c #2794C6",
"^. c #33A5D8",
"/. c #0F9FE2",
"(. c #119EE3",
"). c #11A0E5",
"_. c #20A4E1",
"`. c #64B0CE",
"'. c #848786",
"]. c #8E948B",
"[. c #989998",
"{. c #92A691",
"}. c #A7AA9D",
"|. c #9C9CA5",
" X c #90AFB3",
".X c #A9AAAA",
"XX c #A8BBA8",
"oX c #A3BDBD",
"OX c #B6B9B7",
"+X c #CFA099",
"@X c #D0B4AF",
"#X c #E9BCB9",
"$X c #B0C2BD",
"%X c #DFE584",
"&X c #EAF083",
"*X c #F3FB83",
"=X c #FDFE84",
"-X c #FFFF88",
";X c #E6C2BF",
":X c #8CB7C6",
">X c #98BBC7",
",X c #A4BEC1",
"<X c #9FCAD8",
"1X c #A6C6C5",
"2X c #B0CFD5",
"3X c #B7D6D8",
"4X c #ADDEE8",
"5X c #B6DBE3",
"6X c #B8E3E8",
"7X c #B7E7F2",
"8X c #B5EBF7",
"9X c #BCEBF5",
"0X c #B6ECF9",
"qX c #BBEEF9",
"wX c #BEF1FB",
"eX c #C4C7C6",
"rX c #CBCCCC",
"tX c #D7CDCC",
"yX c #D9D7D7",
"uX c #E5D0CF",
"iX c #DFDFE0",
"pX c #C5E6EB",
"aX c #D9E7E9",
"sX c #C3EDF4",
"dX c #CBEEF5",
"fX c #C2EFF8",
"gX c #CAEFF8",
"hX c #D7EEF2",
"jX c #C4F3FB",
"kX c #CBF3F9",
"lX c #CBF5FC",
"zX c #D6F1F5",
"xX c #D3F6FC",
"cX c #DBF6FB",
"vX c #D5F8FD",
"bX c #DBF8FD",
"nX c #E6E8E8",
"mX c #E6EFF1",
"MX c #E9F4F5",
"NX c #E1F7FB",
"BX c #E4F9FD",
"VX c #EBFBFD",
"CX c #F1F5F4",
"ZX c #F3F8F7",
"AX c #F4FDFC",
"SX c #FAFEFD",
/* pixels */
"jXfXjXjXjXkXkXlXvXlXlXjXlXlXlXlXlXvXlXvXlXlXlXlXlXlXlXlXlXlXjXjXjXjXjXjXlXlXlXlXlXlXlXjXjXjXwXwXwX0XwX0XwXwXjXlXkXlXlXxXlXlXlXlX",
"qXfXwXjXfXjXjXjXlXlXlXjXjXlXlXlXlXlXlXlXlXlXlXlXlXvXlXlXjXjXlXjXlXjXjXjXjXlXlXlXlXlXlXlXjXwXwX0X0XwX0XwXwXjXkXlXxXvXlXlXlXxXlXvX",
"0X0XqXwXwXwXjXwXwXjXjXjXjXjXjXjXjXlXjXlXlXlXlXlXlXlXlXjXjXlXjXjXjXlXjXjXlXlXlXlXjXlXlXlXjXwX0X0X0X0XwXwXqXwXjXlXxXxXlXkXlXvXxXxX",
"8X8XqXqXwXjXjXjXjXjXjXlXlXlXjXlXlXjXjXlXlXlXlXlXlXlXlXlXjXjXlXlXlXlXlXlXlXlXlXlXlXlXlXlXlXjXwX0XwX0X0XwXjXjXlXvXvXvXvXlXlXlXxXvX",
"8X8XqXqXwXjXjXjXwXjXlXjXlXjXjXjXjXwXjXwXjXjXjXjXlXjXlXlXjXlXjXjXlXjXlXlXlXlXvXlXlXkXlXjXkXjXwXqXwXqXwXjXjXkXvXvXvXvXxXlXlXlXxXvX",
"0X0X0XwXfXwXwXjXjXjXjXlXlXjXjXjXjXjXwXwXjXjXjXjXlXjXjXlXjXjXlXjXjXlXlXlXlXjXlXlXlXlXlXlXjXqXjXwXwXwXjXjXlXlXxXvXvXlXxXvXlXxXxXlX",
"0X8XqXwXjXwXwXwXjXjXjXlXlXjXjXjXwXjXwXwXjXjXjXjXjXlXjXlXlXjXlXjXjXlXlXjXlXlXlXlXlXlXlXjXjXqXjXfXjXkXjXkXlXvXvXvXvXxXlXvXlXlXlXlX",
"8X8XqXwXwXqXwXwXjXwXjXjXjXjXjXjXwXwXwXwXjXjXjXjXjXjXjXjXjXjXlXjXlXlXlXlXlXlXlXlXlXjXlXkXjXfXjXjXjXlXlXlXvXlXvXbXvXxXvXvXvXkXlXkX",
"8X8XqXqXqX0XwXwXwXwXwXwXwXwXjXjXjXwX0XwXwXjXwXjXjXlXjXjXjXjXlXlXlXlXlXlXlXlXlXlXlXlXlXjXjXjXfXkXlXlXlXvXlXvXbXbXvXxXvXvXlXlXjXjX",
"0X0XqXqXwX8XwXwXwXwXwXjXjXjXjXwXjXwX0X0XwXwXjXjXjXjXjXjXjXjXjXjXjXjXlXlXlXlXlXlXlXlXlXlXjXjXfXjXlXlXlXlXvXlXvXvXvXxXlXvXlXlXlXjX",
"0X0X0XwXqX0XwXjXjXjXwXwXwXjXjXjXwXwXwX8XwXwXwXjXjXjXjXjXjXlXjXjXlXjXjXlXlXlXlXlXlXlXlXjXjXjXjXjXlXlXlXlXlXvXvXvXvXxXlXlXlXjXjXjX",
"0X8XqXwXwXqXqXfXwXwXwXjXwXjXwXwXwXwX0X0X0XwXwXjXjXwXjXjXjXjXjXjXjXjXjXlXlXlXjXjXjXlXlXlXlXkXkXjXlXlXlXlXlXlXvXvXxXlXlXjXjXjXjXwX",
"8X8X0XqXwX0XqXwXwXjXjXjXjXwXwXwXwXwXqX0XwXwXwXwXjXjXwXjXjXjXjXjXjXjXjXlXjXlXjXlXlXlXlXlXlXkXlXkXlXlXlXlXvXvXvXvXbXlXlXjXjXjXwXjX",
"8X8X0X9X9X0XqXwXjXwXjXjXjXwXwXwXqXwX0X9XwXwXwXwXwXwXwXwXjXjXjXjXjXjXjXjXjXjXlXxXbXbXvXlXlXlXlXkXlXlXlXvXlXvXvXvXvXlXlXjXjXwXwXwX",
"9X0XqX0XqX0XwXwXwXwXwXjXqX7X<X XK.K.K.K.:X<X8X0XwXwXwXjXwXjXjXjXjXjXlXjXlXlXVXVXVXVXbXbXbXbXlXlXlXlXlXlXvXvXvXvXvXlXvXlXjXjXjXjX",
"0X0XqXfXqX8X0X0X8XwX4XL.H.D.W.)././._._.^.^.H.L.1X8XwXjXjXjXjXjXjXjXlXvXvXVXAXAXSXAXSXSXSXSXbXvXbXvXvXvXvXbXvXbXvXlXlXjXlXlXjXjX",
"0XqXqXfXqX0X0X0X4XL.V.(.(.(.).).).).(.T.D.!.(.^.`.K.>XqXjXjXjXjXjXjXcXCXrXrXrXmXSXSXAXtXtXiXSXCXrXrXrXrXrXrXrXrXyXbXlXjXlXlXjXlX",
"qX9XqXqX0X8X0X4XH.W.(.(.(.(.).).).).(.(.(.V.!.q q F.:XK.4XjXjXlXjXkXxXZX$ X X i ZXSXyX+ O [.SXrXo X X X X X X X & aXlXlXjXjXlXlX",
"qX9XqXqXfX0X7XJ.W.W.T.V.n.n.V.T.(.(.(.(.(.(.!.y q n.S.:XK.5XxXlXlXxXcXmX+     O @XAXrXX X OXZX.X    r eXrXOX+   & aXkXlXjXlXjXlX",
"fXqXfXqX9XfX<X!.T.I.T.I.n.y V.V.v.v.I.E.(.(.(.E.D.V.e e  XK.dXlXxXBXBXnX+       6 MXOX  X rXCX'.    |.zXvXyX+   6 aXjXjXjXjXjXjX",
"fXfXfXqX0X7XJ.U.E.(.E.W.!.n.n.V.v.v.V.v.V.(.).).(.V.q w S.:X>XNXAXVXAXyXO   & X O |.[.  O yXZXu     rXZXVXOXo   r cXjXjXlXlXjXlX",
"fXfXfXqXfX5XS.U.(.(.(.(.(.Q.W.T.n.V.!.n.V.V.D.(.(.W.v.V.v.C.H.mXSXSXSXOXX X .X6   & 7   O mXVX6     nXAXSX'.X   p BXlXlXlXlXlXvX",
"fXqXqXqXqX>X!.U.E.W.W.T.Q.(.).(.(.T.V.V.!.V.I.V.W.(.Y.3 q q ~.2XAXAXSX'.X X eX.XO X o   $ AXZX$   O CXAXSX7   X ].bXlXvXvXvXlXvX",
"qXqXqXqXfXG.A.V.Z.u z ].D.(.).).(.(.(.W.!.W.!.W.T.W.W.3 7 q T.:XAXAXSX7   + yXmX7       6 AXCXo   $ yXyXyX&   o .XBXyXXXOXVXvXvX",
"fXfXqXfXpXF.A.y l b b +XS.(.(.(.(.).).).Q.W.Q.W.Q.Q.).Y.y v.Q.H.VXAXSX$   $ nXZX$X+   X z VXnXX   X + + + X   O rXMX'.O & VXvXvX",
"fXgXgXgXpXS.N.n.l j l 6.!.(.(.(.(.).).).E.E.E.U.R.R.R.R.R.U.R.S.aXVXSXu u '.CXAXCX[.r u eXVXZXp r r r r r r r i mXMX[.u ].NXvXxX",
"gXlXgXlXpXD.N.I.8 k l e Q.(.(.(.(.E.R.P.N.N.B.B.M.N.M.M.M.M.z.z.G.NXVXZXSXAXAXAXVXVXVXBXVXVXbXBXVXBXBXBXVXBXVXVXbXbXBXBXNXbXvXxX",
"lXxXxXxX5XV.N.N.T.v.V.Q./.Q.Q.R.N.B.x.x.b.c.v.b.b.b.b.b.b.b.5 4 K.cXcXNXBXVXAXVXbXvXvXvXvXvXkXlXvXlXvXlXvXlXbXxXvXxXvXvXvXvXvXvX",
"xXxXcXpXZ.x.N.N.A.U.R.U.A.N.M.x.y U Q [ < 2.6.1.9.r.r.r.7.w.y.3.pXMXVXVXVXVXVXbXvXxXxXvXvXlXlXlXlXlXlXlXkXkXkXlXlXxXxXxXvXvXvXlX",
"xXxXcXpXC.B.M.M.z.z.z.z.c.2 0 W | | ..M f 6.2.0.u.p.p.p.u.w.p.3.$XcXcXNXBXNXcXxXvXxXvXlXlXlXvXlXlXlXlXlXjXjXjXlXlXlXlXlXlXvXxXvX",
"xXxXxXcXiX.X|.C.2 9 F F 1 g / R | | S < / / 5.u.p.p.p.p.u.w.e. . XdXkXgXzXkXxXxXvXvXvXvXvXlXlXlXlXlXlXjXjXjXjXlXlXlXlXlXlXkXlXlX",
"cXxXxXcXiX;XpXp M B B A _ 1 h g W ] ; g / R 0.u.p.p.p.p.p.w.w.Q t  X5X9XsXgXxXkXlXvXvXvXlXlXlXlXlXlXlXlXlXfXjXjXlXlXjXlXlXlXkXlX",
"bXbXxXbXiX+X> ; B B Z _ _ D f ^ f ) 1 / g E o.,.u.p.p.p.u.w.$.Q T ~ 1 0 Y 1XjXxXxXvXvXxXxXlXlXlXlXlXlXlXjXjX9XjXfXkXkXkXkXlXkXkX",
"BXbXzXzXyXb - B B B L ) _ ) H f g 6 0 i 1 @ - E &.e.u.p.y.,.$.T 0.y.u.u.9.R i ,XzXcXvXxXlXlXgXlXlXjXjXjXjXqX0XqXfXjXfXkXkXlXlXlX",
"bXbXbXvXyXl : B B Z L ( ) ) P 5 I.m.S.D.J _ : @ - ! $.e.w.$.%.Q w.e.e.e.u.t.e.3.i 1XxXxXgXkXgXlXlXjXjXjXjXqXqXfXkXkXlXxXxXxXvXxX",
"MXcXzXvXtXd : N B Z L P ( ) P Y V.2.].m.G V : @ . o -  .>.%.#.#.&.>.>.,.q.e.e.e.0.R G.6XlXlXlXjXlXjXjXfXfXjXqXfXkXlXxXvXvXbXvXxX",
"VXNXmXhXuXj : N B Z D L P P P P w q y 9 D ) V ; = - G ~ +.@.@.%.%.%.&.&.&.w.w.e.u.t.9.0 3XkXjXjXjXqXwXqXfXjXjXgXkXxXxXbXvXvXbXbX",
"AXVXBXmX;Xj : : ! ! $.s.[ P P P J 5 B.F K P ) _ { ] | X.O.O.@.@.#.%.%.&.&.w.q.w.e.u.y.0.0 2XkXgXjXwXqXfXfXjXgXgXkXlXxXbXbXvXvXbX",
"AXZXMXmX#Xb s *.*.r.l.=X*Xs.] ( P q 7 < K K ( ) ` ] ] ] | o.o.@.@.#.%.%.&.&.&.w.,.e.p.u.r.Y gXjXfXfXfXfXkXkXxXxXkXxXxXxXvXbXbXbX",
"AXVXMXMX;Xj E =.-.j.l.=X-X*X*X7.P 1 ^ < ; Z D ( ) D ] } | | o.O.O.@.@.%.%.%.&.&.,.w.u.u.t.R 2XkXjXjXfXjXkXxXzXxXgXxXxXxXvXvXvXvX",
"VXVXBXMXuXj ~ -.:.g.l.=X=X=X-X*X8.H h f S C C C D ' { { } | | o.o.O.@.@.%.%.%.&.&.,.u.e.+.3.1XlXjXgXgXgXzXgXcXcXxXxXxXxXxXxXxXxX",
"VXVXMXNXuXl ~ -.-.d.k.l.=X=X-X-X*X5.g f S L P _ _ ' ' { } } | | o.o.O.@.@.#.%.%.&.&.w.$.= G oXlXxXkXkXlXxXcXcXxXxXxXxXlXkXxXxXxX",
"ZXVXBXBXiXg ~ -.-.y.h.k.k.=X=X-X-X&X1.V B B C S ) _ ' ' { { } } | | o.o.O.@.@.%.%.>.%.T . ; oXcXxXxXxXgXxXcXcXcXzXxXgXkXlXxXxXvX",
"VXVXBXBXiXl ^ -.-.:.a.f.k.k.l.=X-X-X%XF N B B B C S ( [ ' { { } | | o.o.O.O.@.#.#.#.#.F @ 1 3XcXxXxXgXgXzXcXcXcXxXgXkXgXkXxXlXvX",
"VXVXBXBXiX+XT *.-.-.y.f.f.k.k.l.=X-X-X5.# @ M N B C C P _ { { { } } | | o.o.O.@.@.#.#.+.; 0 hXcXzXzXkXgXgXcXcXxXxXkXjXgXkXlXxXxX",
"VXVXBXBXnX+Xf *.-.-.-.p.f.f.k.k.l.=X-X%X> c l * = C B C S _ _ { { { } | | o.o.o.@.@.#.$.$.XXNXNXcXxXgXxXgXxXgXzXkXgXgXlXlXlXxXxX",
"BXBXNXcXaX#XXXT *.-.-.:.a.a.f.h.k.l.l.=X1.c v v k Y = N B S _ ` ' ' { } } | o.o.o.@.@.+.I aXVXcXcXgXgXgXgXgXgXgXgXgXgXkXlXlXvXvX",
"BXNXNXcXhXtXaXXXT -.-.-.<.a.a.g.g.h.l.=X%X, v m k ].& . = C C L ' ' ' { } } } o.o.o.X.Q eXVXNXcXxXxXgXzXgXsXfXsXfXgXgXkXlXxXxXvX",
"BXNXcXcXhXuXxXxX}.E *.-.=.:.y.u.u.f.h.k.l.4.k m m c x # o % ; Z D _ ' ' { { } | | o.Q ].MXNXNXcXcXcXzXgXgXgXsXfXsXgXgXgXlXgXxXxX",
"NXNXcXcXzXuXzXcXdXXXT *.-.-.-.-.-.r.f.k.k.l.I k m n n x O r }.> ; C ) _ { { } } | ] 4.hXVXNXNXNXNXcXNXcXxXzXgXkXkXxXxXxXxXxXgXlX",
"BXNXcXcXzXiXcXvXkXkX3XI ! -.-.-.-.-.a.f.h.k.j.z > z z x k G.[.5X3X9 V D _ ` { { W 4.aXcXcXNXcXNXNXNXNXNXcXcXgXxXkXxXxXxXzXxXlXlX",
"NXNXcXNXzXaXzXcXxXxXkX6XI ! -.-.-.-.:.a.f.h.k.j.1..XOXz n p jXxXlX'.> M V C S S {.dXcXcXcXcXcXNXNXBXNXNXcXxXxXgXkXxXzXxXxXxXlXlX",
"NXNXbXNXcXaXcXvXvXlXlXlXpXY H ! #.-.-.;.a.f.f.k.j.4.8 v v l 1XgXxX$XG.Y XXY G.3XdXzXbXbXcXcXxXcXNXNXcXcXcXcXcXxXvXcXcXcXxXxXxXxX",
"NXbXNXbXcXaXvXxXlXvXlXlXkX9X5X$XI E *.-.:.a.f.f.d.j.1.a v c '.lXkXzXdXdXdXdXzXvXzXvXcXbXcXgXgXcXcXcXcXcXcXcXcXNXcXcXcXcXcXcXxXxX",
"bXcXNXbXcXzXcXvXvXlXlXlXkXlXjX9X6X1XI ! *.-.i.a.d.g.d.4.* 4.z fXxXlXxXxXvXcXcXcXcXcXcXcXcXzXgXxXcXcXcXcXhXcXNXNXNXNXcXcXvXvXcXcX",
"NXcXNXbXbXcXbXbXvXvXlXlXlXjXjXjXjX9X4X X1.! =.r.a.g.g.j.4.i p 5XlXxXxXxXvXcXvXcXbXcXcXcXcXxXxXgXxXcXcXNXNXNXBXBXBXNXcXcXcXcXcXcX",
"NXbXBXbXNXbXbXvXlXlXlXlXlXjXlXjXkXfX8X7X5X{.W  .:.i.f.h.h.5.> ].xXlXxXvXxXvXbXbXcXcXcXcXcXxXxXgXxXxXbXNXBXBXVXBXBXBXNXNXbXcXvXvX",
"VXBXBXBXBXbXvXvXvXvXlXlXlXlXlXlXjXjXqX0X0X6X1X1.Q *.r.a.h.j.s.Y oXdXlXxXxXxXbXxXcXcXcXcXxXxXxXgXxXcXbXVXVXVXVXVXBXBXBXbXbXvXcXxX",
"NXVXBXBXBXbXbXbXvXlXvXlXlXlXlXlXjXjXwX9XwXjXkXpX.X1.~ ;.i.a.h.s.1.G.dXxXxXxXxXbXcXvXcXcXxXxXgXzXxXcXNXNXBXVXVXBXVXNXNXBXbXcXcXvX",
"BXVXBXVXVXNXbXbXvXvXvXkXlXlXlXlXkXjXjXjXjXlXlXjXwX6X{.R  .=.;.:.9.1.pXxXxXxXvXcXcXcXcXvXzXxXxXxXxXcXbXNXBXNXVXVXBXNXNXNXbXcXcXvX",
"VXVXVXVXVXbXbXbXbXvXvXvXvXvXlXlXlXjXjXjXlXlXlXkXjXjXkX6X].H Q 1.I 1XlXvXbXxXbXbXvXcXcXvXzXxXgXxXxXcXcXBXBXBXVXBXVXbXNXNXcXbXbXbX",
"AXVXAXVXVXVXVXbXbXbXvXvXvXvXlXlXjXjXwXwXjXlXjXjXjXjXlXlXlXkXqXpXkXxXlXvXvXbXbXcXcXcXcXvXxXgXxXgXxXcXcXNXBXBXVXVXVXVXbXbXbXbXvXvX",
"AXVXVXVXVXVXVXBXbXbXbXvXvXvXvXlXlXjXjXwXjXkXjXjXjXlXkXlXlXlXlXvXlXxXlXvXbXvXbXxXxXxXcXxXxXgXxXxXxXvXbXNXBXVXBXVXVXbXbXcXvXvXvXxX",
"AXAXAXAXVXVXBXBXBXbXvXvXvXvXvXvXlXkXjXkXjXjXjXjXlXjXlXjXlXvXlXlXvXlXxXvXvXcXvXxXxXvXcXxXcXxXxXxXxXbXbXNXBXBXVXVXVXbXcXcXvXxXvXvX"
};
