/* XPM */
static char *out[] = {
/* columns rows colors chars-per-pixel */
"64 64 246 2 ",
"   c #271A10",
".  c #1B2C0B",
"X  c #2B3611",
"o  c #2D3829",
"O  c #663226",
"+  c #1E4805",
"@  c #265501",
"#  c #355607",
"$  c #344C11",
"%  c #2E6804",
"&  c #2D7400",
"*  c #357901",
"=  c #394729",
"-  c #384D2A",
";  c #374734",
":  c #445C0C",
">  c #485418",
",  c #4A7507",
"<  c #4F6E11",
"1  c #4B6917",
"2  c #587517",
"3  c #6A7418",
"4  c #455525",
"5  c #465539",
"6  c #515436",
"7  c #4F692F",
"8  c #5B673A",
"9  c #6C752E",
"0  c #667828",
"q  c #656B36",
"w  c #3D4D44",
"e  c #3A5B67",
"r  c #454D42",
"t  c #4A5947",
"y  c #545E53",
"u  c #6C4D4C",
"i  c #53664B",
"p  c #596758",
"a  c #6B6E4D",
"s  c #677456",
"d  c #4A5A68",
"f  c #485D70",
"g  c #5A6967",
"h  c #4C6970",
"j  c #6B786E",
"k  c #677C77",
"l  c #8E4231",
"z  c #B34A36",
"x  c #98742F",
"c  c #B4792B",
"v  c #A3604A",
"b  c #CE6F55",
"n  c #3B8A04",
"m  c #46810C",
"M  c #58860C",
"N  c #48970A",
"B  c #5D940B",
"V  c #5C8416",
"C  c #599914",
"Z  c #669B0D",
"A  c #659C0C",
"S  c #668B18",
"D  c #699717",
"F  c #719117",
"G  c #5CA115",
"H  c #6AA30D",
"J  c #6BA90D",
"K  c #72B10F",
"L  c #6AA316",
"P  c #74A715",
"I  c #7AB615",
"U  c #6B8724",
"Y  c #759625",
"T  c #778D30",
"R  c #77A824",
"E  c #76AC29",
"W  c #7DC512",
"Q  c #74854E",
"!  c #698367",
"~  c #6C817A",
"^  c #75847C",
"/  c #66A96E",
"(  c #7ECB62",
")  c #89921C",
"_  c #9BA81D",
"`  c #83BB1A",
"'  c #87932C",
"]  c #B09E2A",
"[  c #89A92C",
"{  c #8BAD2E",
"}  c #94B72B",
"|  c #99A833",
" . c #98B336",
".. c #A6B02C",
"X. c #B3BD26",
"o. c #A6B937",
"O. c #CD8527",
"+. c #85C718",
"@. c #8BCB1B",
"#. c #91CD1F",
"$. c #94CD22",
"%. c #93C329",
"&. c #98C729",
"*. c #95D122",
"=. c #9BD325",
"-. c #9ED529",
";. c #B2C82B",
":. c #A3D62B",
">. c #A6D82D",
",. c #A9D92F",
"<. c #A8CB34",
"1. c #AAD735",
"2. c #ACDB31",
"3. c #B3DD35",
"4. c #B7DA39",
"5. c #B8E037",
"6. c #BCE13A",
"7. c #C3CD2A",
"8. c #CBD42B",
"9. c #C9D32C",
"0. c #C5CF32",
"q. c #C8D938",
"w. c #D2DC39",
"e. c #C4E53D",
"r. c #D6E23C",
"t. c #8C904F",
"y. c #96A951",
"u. c #B0B354",
"i. c #939769",
"p. c #BC9466",
"a. c #A9B06F",
"s. c #C79656",
"d. c #AAD247",
"f. c #C9D34B",
"g. c #CAE643",
"h. c #D7E645",
"j. c #D4EB45",
"k. c #DCED49",
"l. c #DEF04A",
"z. c #D0EB57",
"x. c #E4F24D",
"c. c #E6F154",
"v. c #EBF858",
"b. c #D1D46B",
"n. c #DCEB64",
"m. c #E9F16C",
"M. c #F3FD63",
"N. c #F6FC6D",
"B. c #F9FF6B",
"V. c #FDFF73",
"C. c #F9FC79",
"Z. c #106F96",
"A. c #2C718C",
"S. c #2B769B",
"D. c #0977A7",
"F. c #087BAC",
"G. c #297BA6",
"H. c #317EA4",
"J. c #4F7891",
"K. c #0C82B7",
"L. c #1686B6",
"P. c #2F84AB",
"I. c #2586B6",
"U. c #6E8382",
"Y. c #778F8E",
"T. c #528FAC",
"R. c #6E9CB0",
"E. c #6FA2B8",
"W. c #0E8DC6",
"Q. c #1A8DC3",
"!. c #1893CC",
"~. c #0D9AD9",
"^. c #1898D3",
"/. c #139CDD",
"(. c #2795C9",
"). c #239CD4",
"_. c #12A1DE",
"`. c #28A4DD",
"'. c #119FE3",
"]. c #03AFEE",
"[. c #11A0E5",
"{. c #7DB0C5",
"}. c #0EC6F6",
"|. c #2DCBEE",
" X c #73E0F9",
".X c #8F9589",
"XX c #849996",
"oX c #90A299",
"OX c #ADAD93",
"+X c #8AA5A3",
"@X c #96AAA6",
"#X c #92B1B4",
"$X c #B6B2A2",
"%X c #A6BABA",
"&X c #C8ADA2",
"*X c #B3CB8F",
"=X c #A1C0BC",
"-X c #C7C797",
";X c #FDFE83",
":X c #F9F988",
">X c #D4CFB1",
",X c #E6E8AC",
"<X c #88BACB",
"1X c #93B7C6",
"2X c #99C4CF",
"3X c #A6C6C8",
"4X c #B7CCCC",
"5X c #A6CED5",
"6X c #AAD1D9",
"7X c #B9D7DA",
"8X c #8EDEF7",
"9X c #A9D8E3",
"0X c #B8DEE4",
"qX c #B6E3EA",
"wX c #BCE5EC",
"eX c #B6E5F0",
"rX c #B5EBF7",
"tX c #BBEBF5",
"yX c #B6ECF9",
"uX c #BBEEF9",
"iX c #BEF1FB",
"pX c #CAD8D5",
"aX c #E6ECD9",
"sX c #C0DEE3",
"dX c #C6E6EA",
"fX c #D5E9EC",
"gX c #C4EEF5",
"hX c #CAEEF4",
"jX c #C2EFF8",
"kX c #CAEFF8",
"lX c #D5EEF3",
"zX c #CBF1F7",
"xX c #C3F3FB",
"cX c #CAF5FB",
"vX c #CCF4FB",
"bX c #D6F2F6",
"nX c #D3F5FB",
"mX c #DBF6FB",
"MX c #D5F8FD",
"NX c #DBF8FD",
"BX c #E8ECE9",
"VX c #E1F4F3",
"CX c #E1F7FC",
"ZX c #E3F9FD",
"AX c #EAFBFD",
"SX c #F3FCFD",
/* pixels */
"xXxXxXxXxXxXvXvXnXvXcXcXxXcXcXMXcXMXcXcXcXcXcXcXMXMXcXcXcXcXxXxXcXxXxXxXxXvXvXnXnXxXvXcXxXxXiXiXiXyXuXiXiXiXxXvXvXvXvXvXvXcXvXvX",
"uXjXjXxXxXxXcXxXcXcXcXxXxXcXcXcXcXcXcXMXcXcXcXcXcXcXcXcXcXxXcXxXeX9X1XE.R.R.#X1X6XdXvXvXxXiXyXiXiXyXuXuXiXxXcXvXnXnXvXvXvXMXvXMX",
"yXyXuXiXxXiXiXxXxXcXxXxXxXxXxXcXcXcXcXcXcXcXcXMXcXcXcXxXcXxX9XR.I.`.`.).^.G.J.E.1XE.1XdXxXjXyXyXyXyXuXiXiXxXcXvXnXMXvXcXvXMXnXvX",
"rXrXyXuXiXxXxXxXxXiXxXcXcXcXxXxXxXxXcXxXcXcXcXcXcXcXcXcXwXT.)./.[._.I.P.^.f e G.f h #XR.tXxXuXyXuXyXuXuXiXxXcXMXMXMXnXvXvXvXMXMX",
"rXyXyXiXjXxXxXxXcXxXxXcXcXcXxXxXxXcXiXiXcXcXiXcXcXcXgX2X(._.'.'.'.'.'./.'.!.Q.S.d f P.T.T.wXiXiXiXuXxXxXxXcXnXMXMXnXMXvXvXvXMXnX",
"iXrXyXiXxXiXiXxXiXxXxXxXcXcXcXcXiXiXiXiXiXiXcXcXxXiX{.)._.[.'././././.'.'.[.'./.L.P.f d (.{.iXxXiXiXxXxXvXvXMXMXMXnXvXnXvXnXnXvX",
"rXrXiXiXiXxXiXiXcXiXxXcXxXiXiXcXiXcXiXiXiXiXcXiXxX2X^.~.Q.I.G.G.S.G.G.G.P.I.!./.[.I.d d G.(.9XxXxXcXxXcXvXvXMXNXMXnXnXnXnXvXvXvX",
"rXrXrXiXiXyXiXxXiXcXiXcXcXcXiXiXiXiXiXiXiXcXiXiXeXT.^.I.P.G.S.A.A.A.G.G.G.I.I.Q.^./.I.S.!.!.T.5XxXvXvXvXnXnXMXMXMXnXMXnXvXcXcXcX",
"rXrXyXiXiXrXiXxXiXiXiXiXiXiXiXcXxXiXyXyXiXcXiXcX2XQ.^.Q.Q.G.I.G.G.Q.G.Q.Q.!.!.^.~.~.~.K.F.Z.S.<XcXMXcXcXvXMXmXNXMXnXMXcXvXvXcXcX",
"yXrXiXyXyXrXiXiXiXiXiXiXiXcXiXiXxXiXiXyXiXiXcXiX<XW.'.'.'.[.[.'.[.[.'.'./././.^.W.D.Z.Z.A.f 5XiXcXcXcXMXcXvXMXMXMXnXMXcXvXvXcXxX",
"rXyXiXiXiXyXxXxXiXcXiXcXiXiXcXiXiXiXiXyXiXiXiXcX<X!.'.'.).(.'.'.[.[.'.[.'.^.F.D.Z.A.! y.f.0 5XkXcXcXcXcXMXMXnXMXnXnXcXcXcXxXxXiX",
"yXrXrXiXiXiXyXxXiXiXiXiXiXcXiXiXiXiXyXyXyXiXiXiX<XW.W.G.v &XH.'.[.'.'.'.W.D.A.g Q d.6.g.x.f.j kXcXvXcXcXcXcXnXmXMXvXcXcXxXxXxXiX",
"yXrXuXuXiXyXyXiXiXxXxXxXcXiXiXiXiXiXiXyXiXiXuXjX<XK.J.z b b J.'.[.'.~.K.e ( t.s.6 $ > | h.h.9 0XxXcXhXcXvXnXMXMXMXcXcXxXxXiXiXiX",
"yXeXyXyXyXyXiXiXxXiXxXxXiXiXiXiXiXiXiXyXiXjXjXjX2XL.S.v c z J.'.'.^.K.! <.&.O.s..XpXpX@X[ h.X.J.+X+X+X3X7XfXbXnXMXMXcXcXxXcXiXcX",
"yXyXuXuXyXiXiXiXiXiXiXcXxXiXiXiXuXuXiXuXxXxXjXjX9XG.F.S.u h !.~.F.A.E 1.,.{ O.p.BXSXCX X@X1.4.> | | | ' 9 8 y XXqXvXcXcXxXxXiXxX",
"yXtXuXuXyXyXyXyXiXiXxXxXxXiXiXiXuXuXxXxXxXxXjXjXeXH.F.K._.W.K.D.f v ' 1.:.U O.p.BXSX9X].|.u.g.[ x.l.k.k.x.x.h.| 0 ~ tXcXcXcXxXxX",
"tXuXuXjXuXyXrXyXuXxXjXjXxXuXxXuXuXuXxXxXxXjXiXuXeXR.D.D.D.Z.A.i 9 c O.' &.9 c $XZX9XL.D.].( 3.<.e.e.e.g.g.j.l.x.l.<.s tXcXcXxXcX",
"uXuXyXtXyXrXyXjXuXjXiXuXuXxXjXuXuXiXjXxXxXxXuXuX5XA.Z.Z.S.e # D ` T x O.a d H.#X8XW.Z.Z.~./ 2.5.4.6.6.6.e.e.e.l.c.k.y.+XxXcXxXcX",
"uXyXjXjXjXyXuXjXuXxXxXxXjXuXjXuXuXuXxXxXxXxXyXuXtXeX9XqX5Xo M A ` +.E a S.j J.#X8X}.D.K.}.( 2.2.3.5.5.6.6.6.6.e.k.o.< t cXxXcXcX",
"jXuXuXuXyXuXjXjXxXxXxXxXxXxXuXxXxXuXxXxXxXxXiXxXxXxXxX0Xo $ Z L +.@.W U G.v p +XiX}.}.}.|.d.>.>.2.2.2.3.5.6.6.6.e.Y . r cXxXcXxX",
"jXjXuXuXuXjXjXjXxXgXxXtXxXuXjXjXjXxXxXxXxXxXxXxXxXvXwXt ) , A J +.+.+.+.E h P.T.VXiX XNX*X=.-.:.>.>.,.2.5.2.5.5.4.{ + t cXcXxXcX",
"jXjXjXuXuXjXxXkXcXcXcXjXxXjXjXxXxXxXxXcXvXcXcXxXgXgX+X0 1.M A J +.W +.+.@.E i x $XaXaX*X-.=.=.-.-.:.>.>.2.,.2.3.3.3. .p xXcXcXMX",
"jXuXuXuXuXjXkXnXvXnXvXcXjXxXjXxXxXcXvXnXnXvXcXcXcX7X5 ;.4.B A A +.1.2.-.$.+.T c ' T %.%.#.*.*.=.=.-.-.:.>.>.,.2.3.3.<.Y.cXcXMXcX",
"jXuXuXjXuX3Xk 3XnXnXnXnXzXvXvXkXcXzXvXnXnXnXnXvXhXXXY 4.3.F , _ n.;X;XC.:Xm.d.x x L K I ` @.#.#.*.*.=.=.-.-.:.>.>.>.E 7XMXMXMXMX",
"uXjXuXjX0Xy y.s dXMXMXvXkXnXnXkXvXvXvXnXnXMXnXnX0X6 <.6.3.S ) 8.C.;X;X;X:X:X;Xb.a M C Z Z P ` ` @.#.*.$.=.=.=.:.:.&.s gXnXnXMXMX",
"gXkXjXcXY.u.z.' oXnXNXnXnXmXmXmXmXMXnXnXnXnXnXvX#X0 3.3.;.: X.8.M.C.C.C.;X;X:X:X:Xx : < < 2 M S L ` @.#.$.*.*.=.=.Y =XMXnXnXMXMX",
"gXcXvXvXt b.z.<.a dXNXNXmXmXmXCXCXNXmXbXnXnXvXxXJ.U &.<.>.< X.8.w.M.B.B.V.V.C.;X;Xm.t.l O OXo X : 2 S L ` @.#.$.{ ! gXMXMXMXMXMX",
"vXnXnXlXo n.z.,.{ U.lXmXmXmXCXCXCXZXNXmXnXnXhX7Xa 2 f.h.;.F _ 8.8.w.v.M.B.B.B.V.V.V.C.n.q X i.OXO $XX X < S D S s qXnXnXMXMXMXMX",
"nXnXmXlXo z.n.>.>.T %XbXmXCXCXCXZXAXCXCXlXdX@X- ' k.x.x.j.+.< 7.8.8.8.h.v.v.M.M.M.B.B.B.V.m.u.8 O z O s a a w 1XwXnXnXnXMXMXMXMX",
"nXnXnXmX; f.m.>.>.&.q pXbXZXCXAXAXAXAXCXpX5 0 } >.j.l.r.=.K S 3 7.8.8.8.8.r.r.8.8.h.M.M.M.B.B.B.n.u.a 6     +XwXvXvXvXvXcXvXMXvX",
"nXnXnXNXy ..m.4.-.>.<.7 .XbXAXAXCXVXAXfXo { >.$.#.@.@.+.I M P o.3 _ 7.7.8.8.8.8.8.8.w.w.c.v.M.M.M.B.V.N.b.y.t.+XvXcXcXcXvXvXvXvX",
"NXnXnXmXXX] v.z.=.-.>.>.Y 5 oXVXAXAXAX4X9 g.:.` Z +.K A B @ } r.x.] 3 3 ) _ ;.;.X.X.X.7.7.8.w.r.h.k.v.M.x.w.U 3XcXcXzXcXcXcXcXvX",
"mXmXnXmXpX9 f.m.1.=.-.>.<.:.S 4 j XX$Xj o.3.-.P # , # # + D =.g.x.c.x.' Y.U.U.U.J.^ ^ k j p 8 3 3 3 ) ) F q #XjXcXxXcXcXzXcXzXcX",
"CXmXmXbXlX6 X.c.n.-.=.-.-.:.>.>.<.[ 0 . 4.,.#.S . : P } &.*.*.6.v.v.x.f.XXtXhXvXbXbXbXbXzXhXgXgXwX0X3X#X5XeXtXtXgXcXcXzXvXvXvXvX",
"CXmXnXnXmXXX) h.C.z.*.*.=.=.-.:.-.:.} $ f.:.@., 2 #.=.=.:.*.*.>.v.M.v.c.p wXhXnXnXNXmXmXvXzXcXkXcXcXjXuXjXyXyXuXxXcXvXvXnXnXnXnX",
"ZXmXmXmXmXfXq X.k.C.g.#.#.#.*.*.:.&.2 ' h.:.I , F 4.4.} F ` @.-.v.v.M.M.q 7XkXnXnXfX7XlXvXvXcXcXcXxXiXjXxXjXjXjXvXnXnXnXMXMXmXnX",
"AXCXCXmXmXCX@X9 ;.c.N.z.#.@.#.#.#.P $ h.k.-.+.K , { 4.q.5.2.3 P v.M.N.C.t.%XsX7XXX; s J.nXvXcXjXxXiXiXuXjXxXcXkXcXnXnXMXMXMXMXNX",
"SXAXAXZXZXCXlX^ ' 7.c.N.n.=.@.@.@.: ' h.g.*.@.W 2 q <.5.5.5.2.} U m.;X;Xb.- - - 4 $X-Xp hXvXkXxXxXuXuXjXjXcXkXvXcXnXnXnXMXmXMXNX",
"SXSXAXCXZXCXZXfX.XU 0.k.N.m.6.#.S < _ 6.:.#.W W 1 OXS 2.3.5.5.5.o.T ;X;Xb.1 D D U 8 i.o =XdXvXhXxXxXjXxXxXvXnXvXkXnXnXNXMXNXNXNX",
"SXAXAXAXCXCXCXZXfX.X9 0.h.M.C.c.: P 2 <.` @.W J $ 0 } 2.2.2.2.2.3.{ t.:Xb.1 L  .{ Y 2 = Q k 6XcXxXjXjXjXvXbXmXlXbXnXnXnXNXMXMXMX",
"SXAXAXZXZXCXZXZXZXbX.XT ;.w.x.n.: ` X S F L Z # M &.:.>.>.>.2.6.j.j.T m.b.$ Y  .o. .D - >XOX@XnXcXkXjXcXkXbXmXmXnXvXnXnXnXnXnXnX",
"AXAXZXCXCXCXmXZXZXZXbX@Xq ..7.9.# K 1 a X $ i 8 ` =.=.=.:.=.5.x.x.v...y.y.X V {  . .C $ .Xj pXnXnXvXkXnXmXnXmXnXnXnXvXnXvXnXnXnX",
"AXAXZXCXZXZXZXZXNXZXZXbXpXp ) ;.: F D i.2 1 OXQ +.#.*.*.*.=.>.r.l.l.>.6 6 +X= F | E $ Q r 0XmXbXnXnXkXkXkXmXmXmXbXnXkXvXcXnXnXMX",
"AXAXAXZXZXZXmXNXmXmXmXvXfXdXoX6 1 M Z J +.` K I @.#.#.@.#.#.*.=.:.:.=.. XXdX@X= % # a >Xi.4XmXmXnXnXvXbXkXCXmXmXnXkXvXjXcXnXnXnX",
"AXAXZXZXZXZXCXNXMXbX7X+XXX+X7X7X~ . Z A K +.+.+.+.@.+.@.@.@.#.#.#.#.` > 4XnXbXdX3X%XJ.6 .XVXCXCXbXlXvXnXbXnXnXnXnXvXcXkXcXvXnXnX",
"AXZXZXCXNXNXNXNXnXXXX @ % < $ y ; . # B Z H K W +.+.+.+.P Z H P +.+.S o.pXmXCXCXCXCXmXCXAXCXCXbXmXnXhXkXkXvXkXbXkXkXkXkXcXvXvXnX",
"AXZXCXCXNXNXNXNXnX+X+ n N G E Y % * % @ B B A A H H H A A A Z Z H Z o.9 dXCXCXCXCXZXCXAXAXAXCXCXmXkXkXvXkXbXkXkXkXkXhXcXvXnXnXMX",
"ZXCXmXnXNXNXnXNXnXqX; & n G R  .R , N * @ , B A A A A A A A A Z ) ;...#XbXCXCXCXCXZXAXAXSXCXVXCXnXbXnXhXkXkXgXgXjXjXjXcXvXnXMXMX",
"ZXZXmXNXnXnXNXMXMXnX+X+ n N G }  .L G G n % % * 2 A A H A J ` &.q.4.s hXmXmXmXCXCXCXCXSXAXCXCXmXmXbXbXnXnXhXgXjXjXkXhXvXvXvXnXnX",
"CXmXmXmXNXNXNXmXMXnX7X; & N G E  .{ L G C & & % # B A K $.=.:.3.6.T 4XbXmXmXCXmXCXCXAXCXAXCXCXCXCXmXmXmXnXlXkXkXvXvXnXnXnXkXkXvX",
"ZXmXmXmXNXmXMXnXMXnXzX+X@ n N G  .{ D L L C * & @ B H I *.=.,.3.<.~ hXnXmXmXCXCXCXCXCXmXmXCXCXmXCXCXCXCXmXnXkXnXvXkXnXnXnXnXvXkX",
"ZXZXmXZXNXNXNXNXMXnXcX0Xo n N G E } 7 1 U E L * @ , Z I $.:.,.3.9 dXbXnXmXmXmXCXCXmXmXmXbXmXmXmXCXCXCXCXmXnXnXkXnXnXnXmXnXnXnXvX",
"ZXmXNXNXmXNXnXNXMXvXvXcXY.@ n N G E 2 #X+X; 4 S S # Z P =.:.,. .Y.nXMXnXbXmXmXmXbXmXmXmXmXmXnXmXCXCXmXmXmXbXmXnXnXNXnXmXnXnXnXnX",
"CXZXCXmXMXMXNXnXvXMXcXcXqXo n N N D D U.wXqX0X@Xt o , P -.,.1.1 g 3XdXhXnXbXmXnXmXmXmXmXmXnXbXnXmXmXmXmXmXmXmXmXmXCXmXmXmXmXnXnX",
"mXmXCXNXNXMXMXNXMXvXcXcXyXU.+ + # % m w qXxXxXgXoX- ..j.k.l.l.q.o.T 7 i +XdXbXCXmXmXnXmXmXkXbXnXmXmXmXbXmXmXCXCXCXCXmXmXnXmXNXNX",
"mXmXZXNXZXmXNXMXMXcXcXcXiX9X; y.a.i $ - qXxXxX3X5 { 5.e.r.k.j.j.g.,.} F 4 g XXdXmXmXnXmXmXkXnXkXnXmXmXCXCXCXZXAXZXCXmXmXmXmXNXnX",
"ZXNXNXZXZXNXNXMXMXvXcXcXcXjX~ t.>Xv a.t 9XxXxXj V $.*.=.=.=.=.-.-.$.S 7 T -XOXk 4XmXCXmXmXkXkXnXnXnXCXZXAXZXAXZXZXZXZXmXNXNXnXmX",
"ZXZXZXZXNXZXNXMXMXvXvXvXvXcX7X5 >Xq *Xs qXxXwX- B W W +.+.@.@.@.@.D 9 >XOXi.,XpXj %XbXmXmXmXkXbXnXmXmXZXZXAXAXAXZXZXZXZXNXnXNXnX",
"ZXZXZXZXZXZXNXMXMXnXvXcXcXcXxXk .X6 -Xy qXxX6X4 M V N G J J K K K , b.:XaX-Xx ,XpXj 4XmXnXnXnXnXnXmXZXZXZXAXAXZXAXZXZXNXmXNXnXNX",
"AXAXAXZXZXZXNXMXMXMXMXnXvXcXcX5Xo t.>Xy wXcXdXY.k ! p t i 5 5 7 7 - Q i.a.@Xs i.>X$Xp nXkXnXkXmXnXmXNXZXZXZXAXAXZXCXZXCXmXmXmXnX",
"SXAXAXAXAXZXZXNXNXMXMXMXMXMXcXcXg OX>XY.gXvXcXxXiXxXxXxXcXxXgXgXwXdXdXqXsXsX7X3X3X%X7XnXnXvXkXnXnXmXmXZXZXZXAXZXZXZXZXZXmXNXNXMX",
"AXSXSXAXAXAXZXNXNXMXMXMXMXnXvXcX3Xy .X3XxXcXxXxXxXxXvXvXcXcXvXMXvXvXnXnXMXMXmXCXNXmXNXmXbXkXnXlXbXnXmXZXAXZXAXAXZXZXNXNXNXNXMXnX",
"SXAXAXAXAXAXZXZXZXNXMXMXMXMXMXvXcXg p eXxXcXxXcXcXxXcXvXcXMXcXMXnXvXnXMXNXnXmXNXnXnXNXnXnXkXvXnXnXNXNXZXZXZXAXAXAXZXNXmXMXMXMXnX",
"SXSXSXSXAXAXZXZXZXNXMXMXMXMXMXMXnXtXwXxXcXxXxXxXcXcXcXcXcXcXMXcXMXvXnXMXnXNXnXnXnXnXNXnXNXnXmXnXnXMXNXNXZXAXZXAXZXNXNXNXMXnXNXMX"
};
