/* XPM */
static char *00[] = {
/* columns rows colors chars-per-pixel */
"64 64 20 1",
"  c #B3E9F7",
". c #B6EBF9",
"X c #BCEEFA",
"o c #BFF0FB",
"O c #C4EDF7",
"+ c #C2EFF9",
"@ c #C9EEF7",
"# c #C9EFF8",
"$ c #C4F2FC",
"% c #CCF4FC",
"& c #D3F1F7",
"* c #D3F6FD",
"= c #D6F8FD",
"- c #DBF6FD",
"; c #DAF8FD",
": c #E3F6FC",
"> c #E5F8FD",
", c #E8F7FC",
"< c #EAF9FD",
"1 c #F1FBFE",
/* pixels */
"$$$$$$%*%%%$%%%%*%%%*%%%%%%%%$$%$$$$%%%%%%%%$$oooo.ooo%%%*%*%%%*",
"X$$$$$$%%%%$$%%%%%%%%%%%%%%%%$$$$%$$$%%%%$$%$oooo.ooo$%%**%%%*%%",
"XXX$$$$$$$%$%$$$%$%%%%$%%%%$%$$$%%%%%%%%%%%%$o..XX.Xo$%%**%%%***",
"  XX$$$$$$$%$$$%$$$%%%%%%%%%$$$%%$$%%%%%%$%%%$o.X.Xo$$%==**%%**=",
"X.XX$$$$$$$%%%$$$$$$$$$$%%%%$$$$%%%%%%%%%%%%%$+ooo+$%%*=*=*%%***",
"XXX+$$X$$$$%%$$$$ooo$$$$$$$%$%%$$$%%%%%*%$$%$oo$oo$%%%*==%**%%%*",
"XXXX+$X$$$%$%$$$$$$o$$$$$%$%$%$$%%%$%%%%%%$%$++$$%$%%*=;=**=%%%*",
"  XXXX$$$$%$$$$$$ooo$$$$$$$$$$%%%$$%%%%%%%%%$o$%%%%%**=;=*=*%%%%",
" .o$o.o$oooo$$$$$oo.o$$$$$$$$$%%%$%%%%%%%%$%$$$$%%%***;;=***%%%$",
"..oXo.o$$oo$$$$oooo.o$$$$%$$%$$$$%%%%%%%%$$%$$%%%%%%%====%*%%%%$",
".XXXo.o$$o$$$$$$ooX.ooo$$$$$$$%$$%$%%%%%%$%%$$%$%%%%**===*%%%$$$",
"X.XXXoo$$$o$$o$$ooX.ooo$$$$%$$$$$$$%%%$%%%%$%%$%%*%%*%=;=%%%$$$$",
"..XXo.Xo$$$$ooo$oooXooo$$$$$$$$$$$$%$%$$$%%%%%%$%%%%%==;=%%$$$o$",
"..XXX.oo$$$$$$ooooXo$$$o$o$o$$$$$$$$$$%$$%%%%%%%%%%***===%%%$$o$",
"XXXXXXooo$$$$ooooooo$$$$o$o$$$$$$$%%$$%%%%%%%%%%%%%***===*%%$$$$",
"XXXXo.X.X$$$$ooXoo$$$$o$o$o$$$$$$%%$%$$%%%%%%%%%*%%*==***%%$%$%$",
".XX+XXX +$$X+$XXX$$$$$+Xo$$$$$$$$$%%%%%%%%%%%%%%%***==*=%%%$$$%$",
"XXXXX X++$X$$X$X+X$$$+XX$$$$$$$%%%$%%%%$%%***%*%**=****%%%$%$%%%",
"XX+X+XX+X$$$$$XXXX$%$$XX$$$%%%%$$%%%%%%%%%%*%%%********%*%%%$$$%",
"XX+XXX++$$$$$X$+$X$$$$X$$$%%%%%%%%%%%%%%%%%*%%%*%%***%%%%%$$$$$%",
"#+XXXX+$$#$+X++$$$$$$$$$%%%%**%%%%*%%%%%%%*%%%%*=***%%%$$%$%%%%%",
"$++XX+$%$%%$$X$%$$$%%%%$%%%%%%%%%%%***%%%%%**%*=*===*%%%%$%%%%%%",
"++XX+$%****%$$$##%%***%%%%%%*%%%%**%*%===%***%*=**%%%%%$%$%%%***",
"XXX+X#%==***#%%##$%*=*%**=%%**%%%%*%%*===**=**%*%***%%%%%%%***=*",
"X+++$$**;=**%**%*%%**=***=*****%%***%*=***==*%%*%%*%%%%%%%%*=***",
"+%$$%%***==*==-:-;*******=**-=;*%*********=*=%$%%$%%%%%%%****==*",
"#%%**;=*-=----=::-;***&**;*;=-*%*%**%********%$%%%%%%%%%%%=====*",
"%*=-;--;-;----:::::-**%%*;;;-:**************%%%%%*%%%%%%**=**==*",
"**=---;-:--::::::,,:=&&%=:--****==*%%***=**%*%%%*%%%%$%%%****==*",
"***::---::::::,,,,,,:-*&*&-*%&&*&%%%%=******%%%%%%%%$$%%%%%**%**",
"***--:::::::::,,,<,,::=*%&*&&***####%%%**==**%%%%%$%$$$%%%%%%%%%",
"==*-:-::,:-:::,,<<<,::&&&&&&&#&%#$OO$%******%%%%%$%%%$$%%%%%%%%%",
"--*--::::;::::<<<1,,-:--:-&&#&&&%#@@O$%=**=**%%#%%%$$+X$$%%%%#%%",
"::-*=::--::,,<<<111:::,-::,&&&&&@@#OOO@==-*=%#%%%%$%$XXX$##%%*%*",
":-*--:--::>,<<,,<,:::,::,,1::-&&@@*@@@@&-=**%%%%%%$$$XX$%%%*****",
",-==-::-:,<<<<<,<::--:::,11,<,-&@@#=&%%*--**%%#%%$$+$X+O%*==;;;*",
"<,--:::::,,,<<<<,,*---::,,,<,,:&@@&-=&*=--**%%%%$$XX#$#%$**;;=;;",
"1<,,:::::,,,<<<,:----=:::,,<<,--&&&&&=*&&-**%%##+XXX$#%%#**;;;;;",
"1<1,:::::,,,::::::=-=---=:,,,,--&&&&=:-&&***%%%%$O$$%%=&&**=;;;;",
"11,,:::::,,,>:>:--=-*=--=::,,,-&&&&--=-:---***%#$$$#**&=&**===;;",
"11,,:::,<,:,::::--;;**;;--:,,,--&&:--:--:---&*%%%##%*&-=********",
"1<,:::-:::>::::;-;==*;***=::,:-*-*-*&---------***%#%==--=%*%%**=",
"<<,::,::-::-=;;>-==*******--::;*-&&&&&----&-**-*=*%&&:=&=&%%%**=",
"<,,,:,--;-;;=;;;-;=%%=*$%*;;-:;=&**-&&--:-------**%%&-:=*%##%***",
"<,,:::--;;;==-;;;;****%%%%;==:-;&*&*--:-----:::--*%&**&==*%#%%%*",
"<,,:-::-;=**;;;;;;****%$%**===-=-&&--:::-,-,,,,--&&%#&*&%##%%**=",
",,:-=:=-==**=;;;;=**%**%****=;==--*-:,:--,,<<,,--%##@%#@$@#%%**=",
",::-===-====*;;;=***%%#%%%%*====*----::-,,,<<,:-&*%#%@OOO@%%%*==",
"::-**=-;===*%===****%%%%*%%%*****-&--:-::,,<<,:---&&&#@#+%&#%%**",
"::--;;--==%%%===*%%%%%%*=*%%%%%**-***---::::,::-:---*&##&****%&%",
":----;;;=*%%%%*%***%%%==***%%*%=*-**--:::-::---:::,--*%#%*****%#",
"::-:==;;=*%%%%%*%*%%*****%*%%%*****&--:------:-:::,,-***%**-==%%",
",:-:;;;==%%%$%%%%%%%%%%*=%*%*%%%*****-------:*--:::--*-*--*-*-**",
":::-;;;*%*%%%$$$$ooO%%%*=*%*=%%*&*****---*--*%&=-&-*-----:---**=",
";---;;;****%%%$$oo.o$$%%=*%*%%*%*%**-**----*=&#*----&--,:--*=--*",
"-=::--;;=%%%$$$%%o.oo$%****%%*%****-**--:----&*&&--:,,,,,,:-*---",
":::>:;;=*%%%%$%$%+..o%%*%*%%%%%%**==**=;:=--=&*%&*::<<<>,:,:*--*",
",:::::;=**%%%%%%%$o.o$%%%%%%%%*%*%%***=;-==-**%&*;:,<<<<,:,--*-*",
",,::::;=**%%%%%%$$ooo$%%%%%%%%%***%***;;----*=**=-::><<<,,,:-*--",
"<<<<>:;;===**%%%%$+$%*%%$%%$%%%*%%**==;;-=-=*&*&=-:,::<<,-:-:---",
"<<<<<>;;;===*%%%%$$$%%%$$%$%%%%%%%**;=;;;*;=&&&**=:,>><<,::---;;",
"11<<<<<-;;===**%$$$$$%%$%$%%%%%***%=;;;;;;;=*#%%**-:>><<,:-;--=*",
"111<<<>>>;;==***%%$$$%$$$%$%%%*%%**=;;;*=*-**%&**=-:><<<<:;;;==*",
"1111<<:>>;;====%%%$$%$%$%$%%*%%*%*%=;*;**;-*;==**;;:><<<:;;;=**="
};
