/* XPM */
static char *11[] = {
/* columns rows colors chars-per-pixel */
"64 64 256 2",
"   c #1D5A35",
".  c #1F653C",
"X  c #285E3E",
"o  c #2D6D2E",
"O  c #286835",
"+  c #2C7839",
"@  c #3C7D23",
"#  c #39792A",
"$  c #367333",
"%  c #0E475D",
"&  c #134D56",
"*  c #15544E",
"=  c #145454",
"-  c #14555B",
";  c #175B56",
":  c #15595C",
">  c #1B5D55",
",  c #1A5C5D",
"<  c #1A565D",
"1  c #124E62",
"2  c #165562",
"3  c #145D64",
"4  c #1B5E65",
"5  c #1C5C69",
"6  c #165667",
"7  c #1D625D",
"8  c #17695E",
"9  c #1C6464",
"0  c #1D636A",
"q  c #1D6B64",
"w  c #1E686B",
"e  c #176260",
"r  c #1E7063",
"t  c #245B4C",
"y  c #2C6B43",
"u  c #276B4C",
"i  c #246553",
"p  c #21645B",
"a  c #256B59",
"s  c #2B734B",
"d  c #217445",
"f  c #25745D",
"g  c #2B7B5B",
"h  c #277454",
"j  c #356B48",
"k  c #377547",
"l  c #337452",
"z  c #32775A",
"x  c #346954",
"c  c #21656B",
"v  c #236C65",
"b  c #236B6B",
"n  c #2A6E6C",
"m  c #256664",
"M  c #2A6D71",
"N  c #227265",
"B  c #25736B",
"V  c #26796B",
"C  c #297463",
"Z  c #2A746D",
"A  c #2C7A64",
"S  c #2C7B6D",
"D  c #257966",
"F  c #2C7470",
"G  c #2E7B71",
"H  c #277770",
"J  c #31766C",
"K  c #357A62",
"L  c #327D6E",
"P  c #3C7F63",
"I  c #317572",
"U  c #327C72",
"Y  c #3E7473",
"T  c #407D2A",
"R  c #407F26",
"E  c #447B39",
"W  c #447D47",
"Q  c #477973",
"!  c #3C821D",
"~  c #3D8222",
"^  c #398137",
"/  c #388143",
"(  c #3A8750",
")  c #2E816E",
"_  c #2C8062",
"`  c #2E8170",
"'  c #32826D",
"]  c #348A6E",
"[  c #3B8569",
"{  c #348371",
"}  c #3A8374",
"|  c #3B8A72",
" . c #358B72",
".. c #41861D",
"X. c #4A911D",
"o. c #5D9C1A",
"O. c #52931D",
"+. c #45822B",
"@. c #4C8B23",
"#. c #4A8728",
"$. c #4A8432",
"%. c #4A843B",
"&. c #4E922F",
"*. c #528C25",
"=. c #538C2B",
"-. c #538A35",
";. c #5C9524",
":. c #5E9923",
">. c #599429",
",. c #5A9338",
"<. c #639D1E",
"1. c #65971E",
"2. c #618B37",
"3. c #639625",
"4. c #63952C",
"5. c #639B23",
"6. c #659929",
"7. c #69942B",
"8. c #6A9E25",
"9. c #6C9B2A",
"0. c #649537",
"q. c #719D2A",
"w. c #729F32",
"e. c #749639",
"r. c #6AA41E",
"t. c #65A21D",
"y. c #75AD1E",
"u. c #70A11F",
"i. c #6CA322",
"p. c #6AA328",
"a. c #6CA436",
"s. c #74A524",
"d. c #74A32B",
"f. c #75AA23",
"g. c #7BA62A",
"h. c #7BAC24",
"j. c #7CAA2B",
"k. c #76A827",
"l. c #77A431",
"z. c #7DB322",
"x. c #7FB22D",
"c. c #468448",
"v. c #488556",
"b. c #558245",
"n. c #5A965F",
"m. c #419074",
"M. c #5E8C7B",
"N. c #699A45",
"B. c #7A9E68",
"V. c #79A445",
"C. c #61A66D",
"Z. c #7EA666",
"A. c #7CAC74",
"S. c #468885",
"D. c #538A91",
"F. c #5A9893",
"G. c #549885",
"H. c #5EA598",
"J. c #629C99",
"K. c #669B8A",
"L. c #67A79D",
"P. c #68AFA2",
"I. c #6CA7A3",
"U. c #76ABA1",
"Y. c #7AB3AB",
"T. c #74B3A6",
"R. c #73B9B1",
"E. c #82AF27",
"W. c #82AD2A",
"Q. c #89AE2D",
"!. c #83AA35",
"~. c #84B325",
"^. c #84B22A",
"/. c #89B526",
"(. c #8BB52B",
"). c #8DB826",
"_. c #8CB92A",
"`. c #85B827",
"'. c #8CB737",
"]. c #93BC2C",
"[. c #96B92D",
"{. c #93BB33",
"}. c #95B937",
"|. c #8BAE59",
" X c #83B05F",
".X c #96BF4D",
"XX c #99BD47",
"oX c #98BF54",
"OX c #91B267",
"+X c #95BE7F",
"@X c #96C12B",
"#X c #9EC34A",
"$X c #9AC258",
"%X c #9BC260",
"&X c #A3C556",
"*X c #A6C76D",
"=X c #A3CC79",
"-X c #ACD07B",
";X c #91BF88",
":X c #86B5B4",
">X c #88BBB7",
",X c #92BEC0",
"<X c #9FC192",
"1X c #8BC1B3",
"2X c #94C4BC",
"3X c #A7CE82",
"4X c #A1C39C",
"5X c #AFD48C",
"6X c #B2D68B",
"7X c #B0D593",
"8X c #A8CBAA",
"9X c #A0CDB1",
"0X c #B7D9B7",
"qX c #B7DAA2",
"wX c #99C6C5",
"eX c #94D0CD",
"rX c #99D2D4",
"tX c #A5CCCA",
"yX c #ADD0D0",
"uX c #BBDBC7",
"iX c #B3DADB",
"pX c #B3DFE2",
"aX c #BFE5D2",
"sX c #BBE4E6",
"dX c #B5EAF6",
"fX c #B7ECF8",
"gX c #B9EBF5",
"hX c #BBEEFA",
"jX c #BEF0FB",
"kX c #C1DE9C",
"lX c #C1D9BD",
"zX c #C2E2AD",
"xX c #C2DBC6",
"cX c #C3E7CB",
"vX c #C6EAD7",
"bX c #C4E9D9",
"nX c #C7ECE9",
"mX c #C6EEF7",
"MX c #C1EFF9",
"NX c #CBEFF5",
"BX c #C7F0F7",
"VX c #C4F2FB",
"CX c #CAF1F7",
"ZX c #CBF5FC",
"AX c #D2ECE5",
"SX c #D4F0E8",
"DX c #D4F3F4",
"FX c #D3F6FD",
"GX c #D6F8FD",
"HX c #DBF6FC",
"JX c #DBF8FD",
"KX c #EDF9DA",
"LX c #E1F7FD",
"PX c #E4F8FD",
"IX c #EAFAFE",
"UX c #F1FCFD",
/* pixels */
"VXVXVXBXVXZXZXZXZXZXZXZXZXZXZXZXZXZXZXZXZXZXZXZXFXFXZXZXZXZXVXVXZXVXVXVXZXZXZXZXZXZXZXZXVXjXjXhXjXjXhXhXjXjXZXZXZXFXZXZXZXZXZXZX",
"hXVXVXVXVXVXVXZXZXZXZXVXZXZXZXZXZXZXZXZXZXZXZXZXZXZXZXZXVXZXZXVXZXZXZXVXVXZXZXZXZXZXZXZXZXjXjXjXjXhXhXhXjXVXZXZXFXGXFXZXDXFXZXFX",
"fXfXVXVXVXVXVXVXVXVXZXZXVXZXZXVXZXZXZXZXZXZXZXZXZXZXZXZXVXZXZXZXVXZXZXZXZXZXZXZXZXZXZXZXZXjXfXfXhXhXhXjXjXVXZXFXGXFXZXZXZXFXGXGX",
"dXdXhXhXVXVXVXVXVXZXZXZXZXZXVXZXZXVXZXZXZXZXZXZXZXZXZXZXZXZXVXVXZXZXVXZXZXZXZXZXZXZXZXZXZXVXjXfXhXhXhXjXjXVXZXFXGXGXGXZXZXFXFXGX",
"fXfXhXhXVXVXVXVXjXVXZXVXZXVXZXVXZXjXVXVXVXZXZXVXZXZXZXZXVXZXZXZXVXZXZXZXZXZXZXFXZXCXZXZXVXVXVXjXhXjXjXZXZXZXFXGXGXFXFXFXZXZXGXGX",
"hXfXfXjXVXVXVXVXVXVXVXZXZXZXZXVXZXVXjXjXVXVXVXZXZXVXZXZXVXZXZXVXZXZXZXZXZXZXZXZXZXZXZXZXVXjXVXVXVXjXVXZXZXZXGXGXGXGXZXFXFXCXZXFX",
"fXfXVXjXVXVXjXjXVXZXZXZXZXVXZXVXVXVXjXjXVXVXVXZXZXZXZXZXZXVXZXjXVXZXZXZXZXZXZXZXZXZXZXZXZXVXVXVXVXZXVXZXZXFXGXJXGXFXGXFXFXZXZXFX",
"fXdXhXVXhXjXVXVXVXVXZXVXVXVXVXVXVXjXjXjXVXVXVXVXZXVXVXVXVXZXZXZXZXZXZXZXZXZXZXFXZXZXVXVXVXVXVXVXZXZXZXZXZXFXGXJXGXGXFXGXZXZXCXZX",
"fXfXfXjXjXfXjXVXjXjXjXjXVXVXVXVXVXjXhXhXjXVXVXVXVXZXZXVXVXZXVXZXZXZXZXZXZXZXZXZXZXZXZXZXZXVXVXZXZXFXZXFXZXFXJXJXHXFXFXFXZXZXZXZX",
"fXfXjXjXjXfXjXVXVXjXjXVXVXVXVXVXVXjXjXhXjXVXVXVXVXZXVXZXZXZXZXZXVXZXZXZXZXZXZXZXZXZXZXZXVXVXVXZXZXZXZXZXFXFXGXJXGXFXFXFXZXZXVXVX",
"fXfXjXhXjXjXjXVXVXVXVXVXVXVXZXVXjXjXfXfXhXjXVXVXVXVXVXZXVXZXVXZXZXZXVXZXZXZXZXZXZXZXZXVXVXVXVXZXZXZXZXZXFXFXGXGXGXFXZXZXZXZXVXVX",
"fXfXhXjXjXjXjXVXVXVXjXVXVXVXVXjXVXjXjXfXjXjXjXVXVXVXjXZXZXVXZXVXVXVXZXZXVXZXZXZXVXZXZXZXZXZXZXZXZXZXZXZXZXFXGXJXGXZXZXZXZXVXVXVX",
"fXfXjXjXjXfXhXjXVXVXVXVXVXjXjXjXjXjXjXfXjXVXVXVXVXVXVXVXVXZXVXZXZXVXVXZXZXVXVXVXZXZXZXZXZXZXZXZXZXFXZXFXFXFXGXJXGXZXZXZXVXVXVXVX",
"fXfXfXhXfXhXjXjXjXVXVXZXVXVXjXjXjXjXjXjXVXVXjXVXjXVXjXVXVXZXVXVXVXVXVXZXZXZXZXZXVXZXZXZXZXZXZXZXZXZXZXZXFXFXGXGXGXZXZXZXVXVXVXVX",
"dXhXhXfXhXhXjXjXVXVXVXZXZXjXjXjXjXjXjXjXVXVXjXVXVXVXVXVXVXVXZXVXVXVXZXZXZXVXZXZXZXZXZXZXZXZXZXZXZXZXZXFXFXGXGXGXFXFXZXZXZXZXVXVX",
"hXhXhXVXhXfXhXfXhXVXVXVXjXjXjXjXjXjXVXjXZXVXVXjXjXVXjXVXVXVXVXVXVXZXZXZXVXZXZXVXZXZXZXZXZXZXZXZXZXFXZXFXFXGXGXGXGXZXZXZXZXZXVXZX",
"fXhXhXhXhXhXfXfXhXVXVXhXVXVXjXfXjXVXVXVXVXVXjXjXVXVXVXVXVXZXVXjXVXVXZXZXZXZXZXZXZXZXZXFXFXZXZXZXGXFXFXFXGXGXFXFXFXZXZXZXZXZXZXVX",
"hXfXhXMXhXfXhXhXVXVXhXVXVXhXVXhXhXhXVXVXVXVXhXfXVXVXVXVXVXZXZXZXZXZXZXZXZXZXZXZXCXCXFXZXFXZXZXFXFXFXGXGXGXFXFXFXZXZXZXZXVXZXZXZX",
"hXhXhXMXMXhXhXmXVXVXVXVXVXhXVXjXhXrXR.P.H.P.R.eXgXVXVXZXZXZXZXZXZXZXFXCXZXZXZXBXZXZXZXFXZXZXFXZXZXFXFXFXFXFXFXZXZXZXZXZXZXZXZXZX",
"hXMXMXhXhXhXVXVXVXVXVXVXVXVXgXT. .) ` H V B ` `  .H.rXCXZXFXZXZXZXZXZXZXZXZXZXZXZXZXZXFXFXZXZXFXGXFXFXFXFXFXZXZXZXZXZXZXVXVXZXVX",
"VXMXMXhXhXMXVXVXVXCXVXVXhXrX] ] B B { ` { { S H V ` ] P.ZXJXZXbXzX-X$X}.'.}.}..X*X7XcXCXFXZXFXFXGXFXFXFXFXZXZXVXZXZXZXZXZXZXZXZX",
"mXmXMXhXhXmXCXVXZXCXVXVXeX] ' B { U q : 4 m 9 c F S V ] C.7X&X(.z.).].(./.z.x.z.`./.).}.6XnXFXFXFXGXGXGXZXZXZXZXVXZXZXZXZXZXZXZX",
"MXMXhXhXhXVXZXFXFXFXFXpXm.' V ' b - g W $ W l < 2 Z n.#X@Xz.`.].j.i.i.f.z.r.r.h.f.o.t.z.).[.6XCXFXFXFXZXZXFXZXZXZXZXZXZXZXFXFXFX",
"MXfXhXMXMXBXZXGXFXFXFXL.| S L v ; &.z.z.z.z.z.:.W '._.).).~.f.i.j.k.>.%.+ + ^ ^ =.;.i.r.y.~.).#XvXFXFXFXZXZXZXZXZXZXZXFXGXGXFXFX",
"hXmXMXVXVXZXFXFXHXGXsX[ S G L - >.~.@Xh.i.8.8.{.^._.`.h.f.f.k.>.^ h _ ' ) V B N D g / &.i.i.y.].{.cXFXGXZXZXZXZXZXZXZXGXGXGXFXGX",
"VXVXBXVXZXZXFXFXGXGX1X' V S 9 E `.~.{.f.!.}.h.).(.h.j.g.d.$.d e ) ) V q ` { S S S B r r + @.i.r.`.{.aXZXZXFXZXZXZXZXFXFXGXFXGXFX",
"ZXZXZXFXHXHXGXFXJXJXG.{ B G - 4.].~.z.d.5.h.j.<.k.d.9.$.u q V ' B S ] S v f v 4 6 3 q S N d ! i.z.`.#XnXZXZXZXZXZXFXFXFXGXFXGXFX",
"vXvXvXSXDXDXDXSXAXuX' { B Z = 8.).).~.d.h.O.<.d.*.-.s N N } ' A ' b 9 v [ K z K C Z q v ( ,.x.@X@X[.[.'.}.XXXXXX$X%X*X=X3X7XqXzX",
"E./././.(.(._.(./.w.V ' S Z * d.).].~.;.O.9.@ $.v.A v L } B U Z v D 7 D.wXpXpX,XY O a.x.].[.]._.).^.z.k.s.f.s.h.E.E.E.~.z.~.`.).",
"s.h.h.h.j.j.h.f.h.#.v B U Z = w.[.z.(.W.# # c.C v L L v Z ' q m - % 6 sXFXFXbX;Xa.i.p.h.^.`.j.g.h.k.g.d.i.8.i.8.8.o.<.<.i.t.o.o.",
";.O.3.3.5.8.5.5.:.%.q S { S - =.Q.E.[.W.v.7 v n Z 0 c B v 4 < % 2 M v S.2X X3.*.5.k.^.5.5.9.6.>.*.*.*.+.0.0.-.+.@ @ +.~ #.@...;.",
"X O O o o o o o $ O C U L S v t !.W.(.h.,.v v 9 4 v 4 - = y T t C w { N c.X.i.j.:.>.>.4.#.o . s u f f A f N q 8 N K z f z l s d ",
"B r b v q 9 3 e C p 4 Z I S I * =.W.Q.g./.%., m , - Q x @.p.i.>.< B w G L N.O.@.,.E W z f q q B G { | ' S H B Z H U G { G G H H ",
"S S B H b Z ] [ L F 4 q F U n v X q.u.Q.f.^.$.i M.lXKXZ.p.i.`.h.k 7 w ` q A $.c.l S q 0 c H } S { Z Z S U Z S Z M b 0 b 0 0 0 w ",
"B B Z Z { [ | U Z n 0 3 Z n I w a O w.O.(.<.E.s.a.V.@.*.#.f.`.z.k.7 N b | V D N 3 F U H b b w B v c c c 0 c 4 6 0 5 0 c 0 5 M S ",
"w c b C Z b c 5 b 0 0 n 9 c I F v , $ w.;.Q.W.1.o.g.t.i.~ 9.s.[.z.%.7 D G S Z B Z 5 6 w F b m 4 4 4 , , 7 n >X>XR.Y.I.F.D.S.F K ",
"yXyXtXwX,X>X:X:X>X:X>XtXU.v 0 I M c m W !.!.q.q.8.1.5.s.3.# W.(.`.h.j 4 S { S V B 3 B , 1 1 1 c 2 * $ #.6.A.mXVXCXFXFXGXHXGXHXFX",
"UXPXPXLXLXLXPXPXLXPXPXPXPXJ.Z 1 n n 4 Q v.b.e.-.@.! ! ~ @   4.Q.^.(.>.a v B U S ) S 9 q Z c n S B o X.5.3.8XZXFXZXFXFXJXJXJXJXJX",
"UXIXPXPXPXLXPXPXLXPXPXPXPXLXU.' 5 M L C P [ n > * t x s i - j q.j.h.E.=.> B v Z B b S { n F M 3 u 5.s.s.9.nXFXFXZXFXGXHXJXJXJXJX",
"UXIXIXPXLXLXPXPXPXPXPXPXPXPXIXtXm.c 5 I U F v v v M v n Z n m W l.k.f.!.=.x m 5 b M b 3 3 3 v f +.p.h.Q.+XFXDXHXFXFXFXFXGXGXHXJX",
"UXIXPXPXPXPXPXPXPXPXIXPXPXPXPXPXDX:X} v 5 b I U A { S F S U F < 2.9.d.g.(.*.O p m 6 4 9 m m ; E u.y.u.|.nXDXHXHXGXFXGXFXGXFXHXGX",
"UXIXPXPXPXPXPXPXPXPXPXPXPXJXJXPXHXLXNX2XS.L b c c c b 0 b 0 4 J K.OX9.9.q.h.3.T j u p p i O *.f.z.u.Q.cXHXHXHXHXGXFXFXZXZXFXZXGX",
"IXIXPXPXPXPXPXPXPXPXJXJXJXJXJXJXJXJXGXFXFXsXwXT.L.F.J.L.Y.2XiXDXFXDX<X4.3.;.8.s.g.3.*.*.7.Q.Q.u.q.Q.0XNXFXLXFXHXFXZXZXBXZXGXGXHX",
"IXIXPXPXPXPXLXHXJXJXJXJXJXJXJXJXJXJXFXZXZXGXFXZXCXFXGXHXHXLXHXGXDXHXFXuXN.7.6.4.o.8.8.g.W.1.1.Q.|.uXFXNXFXHXLXHXHXFXCXCXZXZXGXFX",
"IXPXPXPXPXLXLXHXJXJXGXGXGXJXJXJXHXHXHXZXFXFXZXCXCXFXGXHXHXHXLXHXGXGXHXDXDX0XB.7.7.7.9.q.9.q.*X0XGXGXFXFXFXFXFXHXFXFXZXCXZXFXZXFX",
"PXPXPXLXLXLXJXHXGXGXGXFXGXJXJXJXJXHXGXGXFXFXZXCXZXFXGXGXHXGXHXHXHXDXDXHXHXLXLXAXlX8X4X8XxXSXLXLXHXZXDXCXCXFXFXDXDXZXCXCXZXZXFXGX",
"PXPXLXLXJXJXHXJXJXGXGXFXGXJXJXJXJXHXGXZXZXFXFXZXZXFXFXFXGXHXHXHXHXHXHXHXLXLXLXHXLXPXLXPXUXIXLXHXHXCXBXCXCXCXCXCXmXmXCXZXZXFXGXGX",
"PXPXLXHXGXHXHXJXJXGXGXGXFXJXJXJXGXGXGXFXZXCXCXZXZXFXZXFXFXFXHXGXHXGXHXHXLXLXLXLXLXPXIXIXUXIXLXHXHXFXFXCXCXCXmXMXmXmXCXCXZXGXFXGX",
"PXLXHXHXFXHXJXGXGXGXGXFXZXGXGXJXFXFXFXFXZXZXZXZXFXFXCXZXFXFXFXGXFXFXHXFXFXLXHXLXLXLXIXIXIXLXLXHXHXDXHXFXFXCXmXmXmXVXCXZXZXFXFXFX",
"PXPXHXHXHXJXJXJXGXGXFXZXFXFXGXFXFXFXCXZXZXZXZXFXGXFXZXZXZXZXFXZXLXHXFXDXHXHXHXLXLXLXLXLXIXLXLXLXLXHXLXHXHXNXCXCXFXFXFXFXFXFXZXBX",
"LXLXHXLXHXJXJXJXGXFXZXZXZXZXFXFXFXFXFXZXFXZXGXGXGXFXFXZXZXFXFXFXFXHXFXHXHXLXLXLXIXHXLXLXLXHXHXLXLXLXLXLXHXFXFXZXFXFXFXFXFXFXZXZX",
"PXLXJXLXHXJXHXHXGXFXZXZXZXZXZXFXZXFXFXZXFXFXGXFXGXZXFXZXZXZXFXFXFXFXFXHXFXHXLXLXLXHXLXHXFXLXHXLXLXLXLXLXLXFXFXNXZXFXHXHXHXFXZXFX",
"PXLXLXJXJXGXHXGXGXFXZXZXVXZXZXCXZXZXZXCXFXZXZXFXGXZXZXFXFXZXZXZXFXFXHXFXFXHXHXHXHXHXHXHXHXHXHXHXLXLXHXHXHXHXHXHXHXHXHXHXHXHXFXFX",
"LXLXLXJXJXJXHXFXFXZXFXZXZXZXZXjXVXjXVXVXVXCXZXFXHXZXFXGXGXZXFXZXFXFXFXFXFXFXHXHXHXHXHXHXHXFXDXHXHXLXHXHXHXHXHXLXHXLXHXHXHXHXFXFX",
"JXLXHXHXJXJXHXGXFXZXFXZXZXVXVXVXVXjXgXhXVXVXZXFXHXFXFXFXZXZXGXFXFXFXFXFXFXHXFXHXHXHXHXHXHXCXDXZXHXHXHXHXDXLXLXLXLXLXHXHXHXHXHXHX",
"HXJXPXLXLXJXJXHXGXFXZXZXZXZXVXZXVXjXhXgXVXVXZXZXGXFXFXZXZXZXZXFXFXCXHXHXHXHXHXHXLXHXHXHXHXFXFXZXHXHXLXLXLXLXLXLXPXPXLXHXHXHXHXHX",
"LXLXPXPXJXJXJXGXFXZXZXZXZXZXVXZXZXVXgXgXjXZXZXFXFXFXFXZXZXZXZXFXFXFXFXFXFXFXHXHXJXHXJXHXHXFXFXDXFXFXLXPXPXIXIXPXPXLXLXLXGXHXHXGX",
"PXPXPXPXPXJXJXJXFXFXZXZXZXZXZXZXZXVXhXhXjXjXZXFXZXZXZXZXZXZXZXZXFXCXFXFXFXFXHXHXHXHXHXHXHXFXFXFXFXHXLXPXPXIXIXPXPXPXPXLXHXHXHXGX",
"PXPXPXPXPXPXJXJXGXFXFXZXZXZXZXZXVXVXVXjXVXVXZXZXZXZXZXZXZXZXFXFXFXFXZXFXZXGXGXHXHXJXJXHXHXFXFXDXHXHXPXPXPXPXIXPXPXPXPXLXJXHXHXGX",
"IXPXPXIXPXPXJXJXGXGXFXFXFXZXZXZXZXVXVXjXZXZXFXVXZXZXZXZXZXZXZXZXFXZXFXFXHXHXHXJXHXHXJXHXFXFXFXFXHXHXPXJXPXIXIXIXPXPXPXLXLXJXHXHX",
"UXIXIXIXPXPXJXJXJXGXGXGXGXFXZXZXZXjXjXVXZXZXZXVXVXVXVXZXZXZXZXZXZXZXFXFXHXHXJXHXHXHXHXGXFXFXCXFXFXHXLXLXPXPXIXPXIXJXPXJXLXHXJXJX",
"UXUXIXIXIXIXPXJXJXJXGXGXGXFXFXZXZXVXVXVXVXZXZXVXZXZXZXZXZXZXZXFXFXFXZXGXHXJXJXGXGXHXHXHXFXZXZXFXFXFXHXLXPXPXIXIXIXIXJXJXHXHXGXGX",
"UXUXUXIXIXIXPXPXJXJXJXGXGXFXFXZXZXZXVXVXVXZXZXVXZXVXZXZXZXFXZXFXFXFXFXFXJXHXJXGXFXHXHXFXFXFXFXFXGXHXHXLXPXIXIXIXIXLXJXJXJXHXGXFX",
"UXUXUXUXIXIXPXPXPXJXJXJXGXGXGXFXZXZXZXjXZXZXVXZXVXZXZXZXZXFXZXFXFXZXFXGXGXGXHXGXFXGXHXHXHXFXGXGXGXHXJXLXPXIXPXIXPXJXJXJXFXFXGXGX"
};
