/* XPM */
static char *out[] = {
/* columns rows colors chars-per-pixel */
"64 64 201 2 ",
"   c #7A0E04",
".  c #B92416",
"X  c #CB1506",
"o  c #DF230B",
"O  c #CE3823",
"+  c #CA4F00",
"@  c #CA5302",
"#  c #C45D0A",
"$  c #D35500",
"%  c #D15B03",
"&  c #DC5B00",
"*  c #E85F00",
"=  c #FB5F00",
"-  c #CC660D",
";  c #DE6102",
":  c #D96607",
">  c #CE6012",
",  c #D86B17",
"<  c #D4721A",
"1  c #E36402",
"2  c #EC6401",
"3  c #E56C04",
"4  c #EA6B01",
"5  c #E46C0C",
"6  c #F46300",
"7  c #FB6400",
"8  c #F26A01",
"9  c #FB6B00",
"0  c #F86F0B",
"q  c #EB7301",
"w  c #E6730B",
"e  c #EC750D",
"r  c #EC7A0C",
"t  c #F37401",
"y  c #FB7400",
"u  c #F67C03",
"i  c #FA7C01",
"p  c #F47608",
"a  c #F47B0A",
"s  c #E56E19",
"d  c #F76F11",
"f  c #E37612",
"g  c #E9751A",
"h  c #E67E1A",
"j  c #F77010",
"k  c #F77C11",
"l  c #F3761A",
"z  c #CE792C",
"x  c #D47424",
"c  c #EC7B20",
"v  c #F27C26",
"b  c #EE7F30",
"n  c #827A66",
"m  c #867E6A",
"M  c #887F6D",
"N  c #FB8201",
"B  c #FA8A02",
"V  c #F4800E",
"C  c #FA8808",
"Z  c #FC9202",
"A  c #FC9B00",
"S  c #FA930A",
"D  c #E68411",
"F  c #E8861C",
"G  c #F6891C",
"H  c #F69A16",
"J  c #F99C1B",
"K  c #F7AB18",
"L  c #EF8D25",
"P  c #EC892A",
"I  c #F48C23",
"U  c #F38C2C",
"Y  c #F29D25",
"T  c #F4912B",
"R  c #F09C28",
"E  c #E68B36",
"W  c #EA9333",
"Q  c #F49834",
"!  c #F3AA2C",
"~  c #BC8049",
"^  c #8A816D",
"/  c #8D8572",
"(  c #938A75",
")  c #938B76",
"_  c #9B917C",
"`  c #BB8176",
"'  c #A5937C",
"]  c #BB9A74",
"[  c #EA9745",
"{  c #F69245",
"}  c #E89959",
"|  c #EAA54F",
" . c #E5AA55",
".. c #ECA25B",
"X. c #EFB55F",
"o. c #D29E6F",
"O. c #DCA56A",
"+. c #C5A57F",
"@. c #DBAF77",
"#. c #DBB97D",
"$. c #E5A567",
"%. c #E5AC65",
"&. c #F2AC6A",
"*. c #EBB061",
"=. c #E3B36D",
"-. c #E1B872",
";. c #F0B67F",
":. c #9F9684",
">. c #B98B86",
",. c #A19580",
"<. c #A39A85",
"1. c #A59D8A",
"2. c #AA9F8B",
"3. c #B59E89",
"4. c #ABA18C",
"5. c #B5A48B",
"6. c #A7A292",
"7. c #ACA694",
"8. c #B1A792",
"9. c #B4AA96",
"0. c #BBAE97",
"q. c #B2AD9C",
"w. c #B8B09D",
"e. c #AEAEA1",
"r. c #BBBEB3",
"t. c #DEB48D",
"y. c #DBBC8E",
"u. c #E2AE82",
"i. c #E4B585",
"p. c #DCC28B",
"a. c #D8C69A",
"s. c #EEC591",
"d. c #F3C99C",
"f. c #D9C9A7",
"g. c #D2D5AD",
"h. c #C0C0B3",
"j. c #DACAB3",
"k. c #CCD5B7",
"l. c #D9D2BB",
"z. c #E6CEA9",
"x. c #F3CEA2",
"c. c #E5D9BA",
"v. c #F6D7B9",
"b. c #BAE9EF",
"n. c #B5EBF7",
"m. c #BBECF5",
"M. c #B6ECF9",
"N. c #BBEEF9",
"B. c #BEF1FB",
"V. c #C2CAC2",
"C. c #DCC5C1",
"Z. c #CCDBCE",
"A. c #D7D9C6",
"S. c #DDDCC3",
"D. c #CED9D0",
"F. c #CDDEDB",
"G. c #D2DAD1",
"H. c #D2DEDD",
"J. c #E8DAC3",
"K. c #C9E2DC",
"L. c #D2E2DB",
"P. c #D7E5D8",
"I. c #E4E9DA",
"U. c #F7E6D5",
"Y. c #C3EAED",
"T. c #D3E6E2",
"R. c #D4E7E7",
"E. c #D3ECEB",
"W. c #DAEBEB",
"Q. c #D5F0EF",
"!. c #DDF1EE",
"~. c #C4EEF6",
"^. c #CBEFF4",
"/. c #C2EFF8",
"(. c #C9EFF8",
"). c #D3EFF3",
"_. c #C7F0F7",
"`. c #CDF1F7",
"'. c #C4F3FB",
"]. c #CCF5FC",
"[. c #CFF8FE",
"{. c #D3F2F6",
"}. c #DBF4F6",
"|. c #D3F6FC",
" X c #DBF6FB",
".X c #D5F8FD",
"XX c #DBF8FC",
"oX c #E5EEE7",
"OX c #F2EFE9",
"+X c #ECF2ED",
"@X c #F6F4EC",
"#X c #F9F7EF",
"$X c #E4F5F6",
"%X c #EDF7F4",
"&X c #E2F7FC",
"*X c #E3F9FC",
"=X c #EBFBFC",
"-X c #F4F6F2",
";X c #F9FAF5",
":X c #F4FDFD",
">X c #FAFEFE",
/* pixels */
"'./.'.'.'.'.].[.[.].[.'.[.[.[.[.[.[.[.[.[.].[.[.[.[.'.[.[.[.'.'.'.'.'.'.].].].].].].].].'.B.N.N.B.N.M.B.m.'.'.].].].].|.].].].[.",
"N././.'.'.'.].'.].].'.'.'.'.[.'.[.[.'.[.'.[.].].].[.[.'.'.'.'.'.'.[.'.'.'._.].].[.'.'.[.'.B.N.N.B.N.M.B.B.'.].].|.|.].].`.[.].|.",
"M.M.B.B.N./.N.B.'.'.'.'.'.'.'.'.'.[.[.[.[.[.'.[.].[.[.'.'.[.[.'.'.'.'.'.'.].].].].].].].'.B.N.n.N.M.N.B.B.B.'.[.|..X[.].`.[.|.|.",
"n.n.M.N.'.'.'.'.B.'.].].[.'.[.'.'.'.'.'.'.[.[.].'.[.[.'.'.'.'.'.[.[.[.].].].[.].].].'.].].'.B.n.N.M.M.B.~.'.].|..X.X].].[.[.|.|.",
"n.n.M.N.'.'.'.'.'.'.'.'.[.[.'.'.'.'.B.'.'.[.'.'.'.[.[.'.'.[.'.'.].].].].].].[.].].].'.].'.'./._.'.[._.'._.[.[..X|.|.|.[.`.].|.|.",
"M.M.m.B.'.B.B.'.'.'.'.[.'.'.'.'.'.'.B.B.'.'.'.'.'.'.'.[.'.'.[.'.'.].'.].].].].[.`.'.].].'.'.`.=X*X*X X XXX|.|.|.|.[.|.|.[.[.].[.",
"M.n.B.B.B.B.B.'.'.'.[.'.'.'.'.'.'.B.B.B.'.'.'.'.'.'.'.[.'.'.'.'.'.].].'.].].].].[.].]._.`.XX*X:X>X>X:X>X>X=X*X=XXX|.|..X].].`.[.",
"n.n.M.B.B.N.B.B.B.'.'.'.'.'.'.'.B.B.B.B.B.'.B.'.[.'.'.'.'.[.[.'.].].].'.[.].].].].].].[.`.XX=X:X>X>X>X>X>X>X>X=X X|..X|.].].].].",
"n.M.M.B.B.M.B.B.B.B.B.B.B.'.'.'.B.B.B.M.B.B.'.'.'.'.'.'.'.[.'.[.'.[.'.].].].].].].].[.{.|.&X:X:X:X:X>X>X>X>X>X:X*X.X.X[.].].'.'.",
"M.M.M.B.M.n.B.B.B.B.B.'.B.'.'.B.B.B.B.M.B.B.'.'.'.'.'.'.'.'.'.'.'.[.'.[.].[.[.].].].XXXX&X:X:X:X:X:X>X>X:X:X:X>X=X X|..X].].].'.",
"n.M.m.B.B.m.B.B.'.B.'.B.B.'.'.'.B.B.M.M.B.B.B.B.'.'.'.'.'.'.'.'.'.[.].[.[.].|.].|.*X=X:X>X>X>X>X>X>X>X>X:X=X:X:X>X:X=X&X.X].'.'.",
"n.n.M.B.B.B.B.B.'.B.B.'.B.B.'.B.B.B.B.M.B.B.B.B.'.'.'.'.[.'.'.'.'.'.'.'.'.|.=X=X=X:X:X;X>X>X>X>X>X>X>X>X=X*X=X>X>X>X:X>X=XXX_.'.",
"M.n.M.N.N.M.N.B.B.'.'.'.'.B.B.'.B.B.M.M.B.B.B.'.'.'.B.'.'.'.'.'.'.'.'.'.[.*X=X:X:X:X:X:X>X>X>X>X:X:X:X:X=X=X:X>X>X>X:X;X:X=X'.'.",
"n.n.M.m.N.M.N.B.'.'.'.'.'.B.B.B.B.B.B.B.B.'.B.B.B.B.B.'.'.'.'.'.'.'.'.[.XX*X*X%X=X=X=X:X>X:X>X>X:X:X:X:X=X:X:X:X:X=X*X:X=X=X].'.",
"M.m.N.M.n.N.B.B.B.B.B.'.'.B.B.B.B.B.B.B.'.'.B.'.B.B.B.'.'.'.'.'.'.'.[.'.[.[.].|.|.XX=X=X:X>X>X>X=X=X*X=X=X:X=X=X*X*X}.XX*X$X.X'.",
"M.m.N./.N.n.N.M.N.B.'.'.B.B.B.B.B.B.B.'.'.'.'.B.B.'.B.B.'.'.'.'.'.'.'.[.'.]._.].].].XXXX*X=X=X:X=XXX.XXX*X=XXXXXXX.X.X.X.X.X[.'.",
"m.M.N./.N.n.n.M.N./.B.B.'.N.N.N.N.'.'.'./.'.B.B.B.'.B.'.'.'.'.'.'.'.].'.].].'.].].].XX*X=X*X=X*XXX|.|..XXX.X.X.X.X[.[.].].].].].",
"N.N.M.N.M.M.M./.N.'.'.N.N.'./.N.N.N.'./.B.B.m.M.B.B.'.'.'.'.'.'.'.].].].].[.].]._.]..X*X*X&X&X|.[.|..X|..X.X.X[.[.].].].'.'.'.].",
"N.N.N././.M.N./.B.'.N.'./.N.'.N.N.M./._./.~.b.m.B.'.'.'.[.'.[.].].].].].].[.]._.].].]..X.X|.|.[.]..X.X.X|.[.[.|.].].].[.'.'.'.[.",
"/.N./.M.M.N././._.'.'.'.'./.N.'.'./.Z.y.Y H H H R *.g.P.].[.[.'.].].].].].].].].].].[.|.[._.].|..X|.[.[.|.[.].].].'.'.'.'.[.'.'.",
"/././.M.N./././.'._./.N.B.B.B./.k.E > p Z A B N N B S K ! p.T.].].[.[.].].].].`.].].[.[.].'.[.|.|.[.|.|.[.].].].[.].'.'.[.'.'.[.",
"/./.N.N.N./.'.(.].].'._./.m.Y.@.- 1 u B Z N y 9 9 7 9 9 y C Y =.K.].[.|.[.|.].].].].|.[.[.[.|..X.X.X|.|.[.].'.].'.'.].].[.[.[.[.",
"/./.N./.N./.].|.[.].|.`._.Y.O.1 8 y q 0 k v v v l 0 7 7 7 7 9 p T f.`.|.].|.|..X.X|.[..X[.|.|.|.]..X[.[.].[.].'.].].[.[.[.[.[.[.",
"N.N.N.N./.(.].|..X|.|.].`.y.f w i t P i.A.T.T.T.H.j.u.E j 7 7 = 9 a t.`.].|.|.[..X.X|..X.X[..X|.|.[.|.[.].].[.].'.[.].].[.|..X|.",
"/./././.'.].{.|..X|..X{.L.G r D a $.L.`.|.|.|.|.|.|.{.E.j.} d = = 7 k A.{.|.|..X|..X.X.X.X].].].].[.|.|.|.].|.'.].[.[.|..X.X.X.X",
"/././.'.].].{.|.|..X|.{.$.p i p i.{.{.|.|.|.|.|.|.|.|.|. X).j.b 7 7 y U E.|.|.|.|..X|..X.X].].].].].'.'.'.].[.].].[.[.|..X.X.X.X",
"'.].].|..X.X.X|..X XXXW.+.] ~ o.$X XXX|.|.|.|.|.|.|.|. X|. X|.H.l 7 y u A.].|.|..X.X|.[.[.].'.'.].].].].].[.].].]..X|..X|..X.X.X",
"].|.|. X.XXX X XXX X XW.0.7.6.q.&X&X&X X|.|.(.(.|. XXXXX X X|.|.t.y i i p.{..X|.|.|.|.|.[.].'.].[.|.].].].'.].].].|..X|..X.X.X[.",
"{.|. X XXXXX XXXXXXX XL.3.' 2.q.&X*X&X&X X|.{.(. XXX X X|.{.{.|.l.N B i =.{.|.|.|.|.|..X|.'.[.'.].[.'.].].'.].].].[.|.|..X|..X.X",
"|.|.|.XXXXXXXX&X*X&X&XC.X . O ` *X=X=X&X&X X|.{.|.{.|.}.|.(.{.|.l.B N t @.Q.|.[.|.|..X|.|.[.|.].].[.].].'.'.].].[.].].|.[.|.|.[.",
"|.|.|. XXX&X&X*X*X&XW.` .   o >.*X=X*X&X&X&X X|.{.(.{.|.{.{.|.{.=.u y 1 a.^.].|.|.|.|.|.[.].|.].].].'.'.'.'.].'.].'.].].].].[.].",
" X|.|. XXX&XXX&X&X XV.0.:.:.:.6.%X=X=X=X&X&X}.{.{.|.|.{.(.{.`.A.C 4 8 r K._.|.].|.|.|.|.].].].].].].].].'././.].(.]./.].]./.].].",
" X X{. X&XXX&X&X X}.e._ ) ) :.1.%X:X=X&X&X&X X X X}.{.).`.`.E.Q 1 9 &  .Y./.].|.|.|. X.X|.].].].].].].].].m.N.'._.'.'.].`._.].].",
"XXXX X X X&X&XXXXX}.6.( ^ ^ n 1.=X%X=X=X X&X&X&X&X*X&X}.{.}.-.4 2 2 F K.~._.].{.|.|..X|.].'.'.].].'.].].'.N.N.N./.]._.].].|.].].",
"&XXX|.|. XXXXX&X&XR.1.( / m M e.=X=X&X&X&X&X&X&X$X=X=X&X}.J.a 2 6 : a.^.(.(.~.{.XX X|.[.].(.].'.|. X*X X]./.N./.'.].].].|..X|.{.",
"&X&X X XXX&XXX*X*XH.:.^ / m M r.=X&X X}.&X&X&X&X=X=X=X=XoXT 8 = *  .Q.|.{.(.].|.|.XX|.|.|.].{. X:X:X>X=X=X:X&X/.{.|.|.|..X.X.X|.",
"=X&XXXXXXX&X&X&X*XH.,.( ) n ^ V.&X&X X X XXX&X&X=X=X=X+XX.4 8 * c H.{.|.{.{.|.|. X X X|.{.|.&X*X=X>X>X>X>X>X>X:X=X&X.X.XXX.XXXXX",
":X=X=X*X&X&X&X&X*XH.7.1.<.4.2.L.&X&X|. X|. X&X&X&X&X$Xc.V 1 3 3 j.).|.{.{.|.{.|.{. X|.{.].{. X&X:X:X:X:X>X>X>X>X>X=X.XXXXX.XXX.X",
":X=X=X*X&X&X&X&X&XW.7.1.1.9.7. X&XXX X X X X XXXXX&XI.I 4 , 1 =.{.`.{.}. X X X X|.|.|.|. X&X&X:X:X:X=X:X>X>X>X:X:X:XXXXX.XXXXX.X",
":X=X=X=X&X&X&X*X*X$Xr.2.<.4.L.*XXX X X|.|.|. X XXXW.&.3 5 1 P T.{.{.|.}. X}. X X X}. X*X=X:X:X>X>X>X:X>X>X>X:X:X:X:X=X&X&XXXXX.X",
":X=X=X&X&X&X&X&X*X&Xh.4.4.9.&XXXXXXX X X|.|.XX|.}.z.r 6 1 w z.|.|.{. X|. X}.&X&X=X%X=X>X:X>X>X>X>X>X>X>X>X>X:X=X:X>X>X:X:X=X X X",
"=X=X*X&X&X&X*X*X*X}.h.2.9.h.&XXXXX X|.|.|..X.X|.P.L 3 5 5 =. X X{. X|. X}.}.&X=X:X:X>X>X:X>X>X>X>X>X:X:X>X;X*X=X:X>X>X:X>X>X:X*X",
"=X=X*X&X*X*XXX&X XW.w.<.q.F.XXXXXXXX|.|.|..X|.E.%.w z < L oX X|.}.|.}.}.{. X=X:X:X:X=X:X>X>X>X>X>X>X:X:X:X:X=X:X:X>X:X=X=X:X:X=X",
"=X=X=X&X*X*X&XXX XG.5.n 8.Z.XX&XXXXX|.|.]..X|.a.e 5 x h J.XX X{.{.|.|.{.|. X$X$X%X%X=X=X:X>X>X>X>X>X=X:X=X:X:X:X;X=X*X$X*X=X=X=X",
"=X=X*X&XXX*XXXXX.XD.<.' 5.t.=X=X*XXX.X|.|.|.L.F 2 6 : =.}. XXX.X|.{.|.|.}.}. X&X&X X&X$X=X>X>X>X>X>X:X&X&X=X=X=X*X}.|.XXXX$X*XXX",
"=X=X*X&XXX&XXXXX Xl.s , , W :X>X:X:X:X%X|.Q.| q 6 2 W W.XXXX}. X}.|.|.}. X X&X&X&X&X&X=X=X:X>X>X>X>X;X X{.{.{.{.|.`.`.|.|..X.XXX",
"*X*X&XXXXXXXXXXXXXP.g 4 3 S U.>X>X>X>X>X:Xs.V 8 2 D S.|..X.X.X X}.|.|. X&X&X&X X X&X=X=X>X>X>X>X>X;X:X*X{.{.`.~._._._.`.].|..X.X",
"*X&XXX X X.X.XXX.X!.} % : N { @X>X>X>X>XU.G 4 2 3 #._.`.|..X.X|.{.|. X X&X&X&X X&X=X:X>X>X>X>X>X>X*X:X>X:X=X{.^.~._._._.].|..X.X",
"*XXXXX X|.XXXXXXXXXXJ.w - ; y Q v.@XOXd.J q 2 * [ E.].].].|.|.|.|.|. X|. X&X X&X:X>X>X>X>X>X>X:X:X=X>X:X:X:X&X(.~.(.`.`.].|.`.|.",
"&X&XXXXXXXXXXX X=X=X-X;.@ # ; i Z S S Z 4 1 2 F c..X|.[.].|.`.|. X|.|.|. X X X&X&X$X&X:X:X>X:X=X:X=X:X$X&X&X}.^.].|.|.|.|.].].(.",
"&X&XXX&X*X=X*X:X:X>X>X#X&.@ + @ 1 1 1 & & * < x.;X:X=X.X.X].[.|.{.|.{.|. X X X*X&X X&X$X%X:X=X&X&X&X&X&X X X|.`.].`.|.|.|.|.].`.",
"&X&XXX&X:X:X>X>X>X:X:X>X-Xd.c + + $ & @ : P v.;X:X>X:X=X X].[.|.|.|.|.{. X XXX&X&X X X&X&X&X X&X&X&X&X&X X|.|.`.`.|.|.|.|.|.|.].",
"&X&X*X=X:X:X:X:X:X:X:X>X>X;X@Xz.[ U U ..c.@X;X:X:X:X:X:X*X[.[._.|.|.|.|.|. X X X X X XXX&X}.|. X&X&X X X X{. X|. X X|. X|. X|.|.",
"&XXX&X=X*X&X*X*X=X:X:X:X>X>X:X=X+X+X+X-X:X:X=X*X*X*X=X=X*X|.|.].{.|.|.|.|.|.|. X{. X XXX|.|.{.|.XX X X X X X X XXX X X X|. X|.|.",
"XXXXXXXXXXXXXXXX X*X=X:X:X:X=X&X.X{.XX XXX XXXXX*XXX*X*XXX].|.|.|.|.|.|.|. X X X X X X|.|.{.(.|. X X X X X X&X&X&XXX X X|. X X|.",
"&XXX&X&XXXXXXXXXXXXXXX*X=X=X*X`.]._._._._.'.`.|..X.XXX.X|.].[.].].].|. X|.|. X X X X X X|.|.|.`.{. X X&X&X&X&X=X*X*XXX X X X X X",
"&XXX*X*X&XXXXX.XXX*X%X*X=X}.[._.~.'.m.m.N.'.].|.|.|.[.[.'.|.[.|.|.].|.|.|.|. X XXX X X X X{.{.`.{.|.&X*X*X*X=X*X*X*X&XXXXX X X|.",
"*X*X*X*X*XXXXX.X.X.XXXXX[.].].].].'.N.M.N.'.].].[.'.].].].'.].].|.|.[.|.|.|.XX|. X X X X|.|.|.(.|. XXX*X=X=X=X=X=X&X&X&XXX|. X|.",
"*X*X*X*X*X*XXX.X.X|.].].].].].].'.'.'.N.'.'.].].].'.].].].].].[.[.|.].[.|.|.|.XX X|.XXXX|.|.|.|.|.XX&X*X*X=X=X*X*X*X&X&XXX X.X X",
"=X=X*X=X*XXXXXXXXX.X.X[.[.[.].].[.'.m./.].].].'.'.].].].].'.[.[.].[.|.|.|.|..X X X XXX|.{.|.|.{.{.XXXX*X&X*X=X*X&X*X&X&XXXXXXX|.",
"=X=X:X=X=X*XXXXXXX.X.X.X[.[.[.].].'.m.'.].[.[.'.'.'.].].].[.].|.[.].[.|.XX|.XX X X|.XX X|.`.`.|.|. X&X&X*X*X=X=X*X*X&X&XXXXXXXXX",
":X=X=X=X=X=X*XXXXXXX.X.X.X[.|.].].'./.B.'.].'.'.'.].].].].].[.'.].[.[..X.XXXXXXX X|. X|.|.`.|.|.|.|.XX&X=X*X*X=X=X*XXXXXXX X.X|.",
":X=X=X=X=X=X*X*XXXXX.X.X.X.X[.|.].'.'././.'.'.'.'.].'.[.].[.[.[.|.[.[..XXX|.XX|.|. X|.|.|.`.].{.|.|.XX*X*X*X=X=X*X*XXXXX.X.X.X|.",
":X:X:X:X=X=X*X*X*XXXXXXX.X.X.X[.[.].'./.'.].'.'.].].'.].[.[.[.[.|.[..X.X.XXX|.|.|.|. X X|.|. X|.|.XXXXXX*X=X*X=X*XXXXXXX|..X.X|."
};
