/* XPM */
static char *out[] = {
/* columns rows colors chars-per-pixel */
"64 64 255 2 ",
"   c #070707",
".  c #07090A",
"X  c #060A12",
"o  c #0B0B13",
"O  c #140D10",
"+  c #0D171C",
"@  c #161518",
"#  c #261717",
"$  c #301314",
"%  c #1D211C",
"&  c #36281B",
"*  c #141D22",
"=  c #162627",
"-  c #143234",
";  c #292629",
":  c #2C312A",
">  c #373A3A",
",  c #4B1B17",
"<  c #4F261A",
"1  c #712718",
"2  c #711537",
"3  c #4B362F",
"4  c #682923",
"5  c #743629",
"6  c #17423B",
"7  c #364535",
"8  c #5E4A15",
"9  c #504832",
"0  c #714A2E",
"q  c #566135",
"w  c #706932",
"e  c #333D41",
"r  c #792C48",
"t  c #184E49",
"y  c #3B4343",
"u  c #315651",
"i  c #15605B",
"p  c #326A56",
"a  c #1C6A6B",
"s  c #2D6F68",
"d  c #474949",
"f  c #575149",
"g  c #495455",
"h  c #555756",
"j  c #6C554A",
"k  c #4D6B50",
"l  c #75675B",
"z  c #797858",
"x  c #4C5C60",
"c  c #724F63",
"v  c #566E6E",
"b  c #6C6A65",
"n  c #746A67",
"m  c #6D746D",
"M  c #6A7976",
"N  c #757C7D",
"B  c #8F2C19",
"V  c #B13016",
"C  c #863427",
"Z  c #973627",
"A  c #B13B26",
"S  c #DB2C08",
"D  c #C83617",
"F  c #D43210",
"G  c #EB2D05",
"H  c #F52D01",
"J  c #FA2C00",
"K  c #E6320C",
"L  c #F73403",
"P  c #8E7419",
"I  c #B1671C",
"U  c #8A4A31",
"Y  c #994836",
"T  c #AE4D2C",
"R  c #8C702E",
"E  c #D14C14",
"W  c #F1500B",
"Q  c #D07011",
"!  c #F46B07",
"~  c #CA4D32",
"^  c #D3632F",
"/  c #EC6B26",
"(  c #8C1D45",
")  c #92284E",
"_  c #AD245F",
"`  c #86514A",
"'  c #8F6D4E",
"]  c #B6724A",
"[  c #A25E73",
"{  c #88756F",
"}  c #D96E58",
"|  c #E27862",
" . c #798233",
".. c #1F8075",
"X. c #2D8C76",
"o. c #2EB06F",
"O. c #27BA6C",
"+. c #779157",
"@. c #70B052",
"#. c #4E9071",
"$. c #49997B",
"%. c #6C8B74",
"&. c #4BA879",
"*. c #71A564",
"=. c #1BDD7F",
"-. c #28CA76",
";. c #968519",
":. c #AF9412",
">. c #B79A17",
",. c #BCA61B",
"<. c #998727",
"1. c #8B8535",
"2. c #939332",
"3. c #B19928",
"4. c #95AD36",
"5. c #BBA625",
"6. c #AFB630",
"7. c #F48808",
"8. c #EE940B",
"9. c #D9B80C",
"0. c #C9AA19",
"q. c #D3A616",
"w. c #C9B818",
"e. c #D8B916",
"r. c #E8AF0F",
"t. c #F4A706",
"y. c #E6B909",
"u. c #F7B802",
"i. c #CB9526",
"p. c #DA9922",
"a. c #D2AB27",
"s. c #CBB626",
"d. c #B4C227",
"f. c #D7C516",
"g. c #EAC809",
"h. c #F5C604",
"j. c #F4CB03",
"k. c #FBCE00",
"l. c #FCD000",
"z. c #F7D10C",
"x. c #F1CC15",
"c. c #C8C726",
"v. c #F6D32A",
"b. c #92884D",
"n. c #B19356",
"m. c #8CAF47",
"M. c #B4A54B",
"N. c #8F8A74",
"B. c #B29572",
"V. c #E18F5C",
"C. c #C1B54E",
"Z. c #CE9172",
"A. c #C5AD6B",
"S. c #DACA61",
"D. c #F0D172",
"F. c #E97383",
"G. c #1A9A8A",
"H. c #2F8A82",
"J. c #269C8F",
"K. c #1FA795",
"L. c #35AB8A",
"P. c #528A87",
"I. c #7A8785",
"U. c #4AA883",
"Y. c #70AA92",
"T. c #7EB5A8",
"R. c #37C786",
"E. c #2AD989",
"W. c #30D287",
"Q. c #1FE886",
"!. c #1DF38D",
"~. c #1FF591",
"^. c #1DF993",
"/. c #25E58B",
"(. c #2BE98F",
"). c #21F391",
"_. c #44C987",
"`. c #6ACE9D",
"'. c #919391",
"]. c #B09790",
"[. c #8FA893",
"{. c #B2AA94",
"}. c #899FA3",
"|. c #8BADAA",
" X c #97A6A7",
".X c #87B5B3",
"XX c #9AB7B6",
"oX c #A5A8A6",
"OX c #ACB8B1",
"+X c #B7B9B7",
"@X c #D48F86",
"#X c #EA9D92",
"$X c #C7AF8E",
"%X c #F8B189",
"&X c #E5A49C",
"*X c #D2AFA7",
"=X c #C5BCB7",
"-X c #D7BABA",
";X c #E3B6B1",
":X c #A2C5AB",
">X c #D6D09C",
",X c #EFCFB4",
"<X c #F9E7B0",
"1X c #99C7C8",
"2X c #A9CBCF",
"3X c #B4C9CB",
"4X c #B9D7D9",
"5X c #B9E1DE",
"6X c #AFDBE1",
"7X c #ADE2EC",
"8X c #B9E4E9",
"9X c #B5EBF7",
"0X c #BBECF5",
"qX c #B6ECF8",
"wX c #BBEEF9",
"eX c #BEF1FB",
"rX c #C6C9C9",
"tX c #D7C7C8",
"yX c #CBD2CF",
"uX c #C7D8DB",
"iX c #D7D9D9",
"pX c #EAD7D1",
"aX c #D7E2DF",
"sX c #F2EAD5",
"dX c #F6E3D9",
"fX c #CADEE1",
"gX c #C7E6EA",
"hX c #D6E8EA",
"jX c #C4EDF4",
"kX c #CCEDF3",
"lX c #C2EFF8",
"zX c #D3EDF2",
"xX c #DAEFF3",
"cX c #C5F0F7",
"vX c #CDF1F7",
"bX c #C3F3FB",
"nX c #CCF5FC",
"mX c #CEF8FD",
"MX c #D5F2F6",
"NX c #DAF2F6",
"BX c #D3F6FC",
"VX c #DBF6FB",
"CX c #D5F8FD",
"ZX c #DBF8FD",
"AX c #E6E9E8",
"SX c #EFEEEA",
"DX c #EAF3EA",
"FX c #F7F6EA",
"GX c #E8F3F4",
"HX c #E2F7FB",
"JX c #E3F9FD",
"KX c #EBFBFC",
"LX c #F3F7F5",
"PX c #F4FDFD",
"IX c #FAFEFE",
/* pixels */
"bXbXbXbXbXbXnXnXmXnXmXbXbXmXmXmXmXmXCXmXmXnXmXmXmXmXnXnXmXbXbXbXmXbXbXbXbXnXnXnXnXnXbXbXbXbXeXeXeXqXeXeXeXeXbXnXvXmXnXnXnXnXnXvX",
"wXlXeXbXbXbXbXnXnXnXbXbXbXmXmXbXbXmXmXmXnXnXmXmXmXmXmXbXbXbXbXbXmXbXbXbXbXnXnXnXmXnXnXmXbXeXeXqXeXqXeXqXeXcXnXmXBXmXnXmXnXBXmXBX",
"9X9XeXeXeXbXeXbXbXbXnXbXbXbXbXbXbXmXbXmXnXbXmXmXmXbXnXbXbXnXbXbXbXmXnXbXbXnXnXnXbXnXbXmXbXeXqXqXeXqXqXeXwXeXnXmXBXBXmXnXvXmXBXmX",
"9X9X9XeXeXbXbXbXeXbXnXnXmXbXmXbXbXbXmXbXbXmXmXbXmXmXmXbXbXnXnXbXmXbXnXnXnXnXnXnXnXnXnXnXmXbXeXqXqXqXqXeXeXcXnXBXCXCXBXnXvXBXBXBX",
"9XqXqXcXeXbXbXbXeXbXbXmXmXmXbXbXbXbXbXbXbXbXbXeX0X6XXX.X.X.X2X7XcXvXnXnXnXmXmXmXmXnXbXnXbXbXbXcXnXvXnXbXbXnXmXCXBXBXCXnXmXCXBXBX",
"qXqXqXeXbXeXeXbXbXbXbXbXbXbXbXbXbXeXeXeXbXwX1XY.`.-.E./.Q./.E.R.U.1XlXnXnXnXmXmXvXbXnXnXbXbXvXKXKXJXVXVXZXBXBXCXCXBXBXnXnXnXCXnX",
"qX9XeXeXeXeXeXeXbXbXmXmXbXbXbXbXbXbXeXeX8XT.Y.%.R._./.^.^.^.^.!./.W.U.jXnXbXbXmXnXnXnXnXBXMXJXPXIXIXPXIXIXKXJXHXBXBXCXCXCXnXnXnX",
"9X9XqXeXeXwXeXbXbXeXbXbXbXbXbXbXbXeXeX8X%.Y.%.M R.).^.!.!.W.R.R.R.W.E.Y.cXnXnXmXmXnXcXnXBXZXKXPXIXIXIXIXIXIXIXPXJXBXCXCXnXbXvXnX",
"9X9XqXwXeXqXeXbXeXeXeXeXbXbXbXeXbXeX7XP.N.n U./.!.^.(.L.#.$.&.$.R.E./.O.5XnXnXmXbXnXnXBXMXHXPXPXPXPXIXIXIXIXIXPXJXBXBXBXmXnXbXbX",
"qXqXwXeXqXqXeXeXeXeXeXeXeXbXbXbXbXwX1XY.U.%.W.^.(.L.&.$.U.L.R./.!.^.^.Q.T.vXnXnXmXmXZXZXHXPXPXPXPXPXIXIXPXPXPXIXKXVXCXBXnXnXnXbX",
"qXqXeXeXeXwXeXeXbXeXeXeXeXbXbXeXbXwXX.b n W.~.W.-.U.W.L./.^.^.^.W.(././.X.gXmXvXBXJXKXPXIXIXIXIXIXIXIXIXPXKXPXPXIXPXKXJXBXbXbXbX",
"9X9XqXeXeXqXeXbXeXbXbXbXeXbXeXbXwX6XO.b n E././.(.(.~.^.^.^.^.!.].@XF.#.O.5XKXKXKXPXPXPXIXIXIXIXIXIXIXIXKXJXKXIXIXIXPXPXKXZXnXbX",
"qX9XqXwXeXqXqXeXbXeXbXbXbXeXeXeXwX1X/.E.=.!.!.!.!.!.).^.^.^.^.^.@XF.F.$.U.gXPXPXPXIXPXPXPXIXIXIXPXPXIXPXKXKXPXIXIXPXPXPXPXJXnXeX",
"9X9XqXqXqXqXeXeXeXbXeXbXbXeXeXeXwX#.o.O.O.O.O.O.O.-.-./.!.^.^.^.U.F.[ W.`.gXJXKXGXKXKXPXIXIXIXIXPXPXPXPXKXPXPXPXPXKXKXKXPXKXmXbX",
"0X0XwXwXqXeXeXeXeXeXeXnXbXeXeXeXqX2XT.k 4.d.6.d.2.6.d.4.@.-.=.=.!.E./.-._..XkXmXCXZXKXKXPXIXIXIXKXKXJXKXKXPXKXKXKXJXZXJXJXJXCXbX",
"qX9XwXlXqXqXqXqXwXbXbXbXbXeXeXeXqXeX7X9 w j.l.g.w.g.5.;.>.j.6.@.o.o.o.O.O.#.5XcXvXmXZXZXJXKXKXPXKXVXCXZXJXKXZXZXZXMXCXCXMXCXmXbX",
"0XqXwXlXwXqXqXqXwXbXwXbXwXbXeXwXwXwX6Xy z g.k.k.k.0.w b h P k.u.V.& E ^ l 8XnXnXnXmXCXJXJXKXKXJXVXBXBXCXZXCXCXCXBXmXmXmXbXnXnXnX",
"wXqXwXwXqXqXqXwXwXbXlXwXwXlXlXwXeXwX2Xy ;.j.k.k.h.5.n + g f g.8.W j D L Y 8XnXnXnXvXZXJXJXJXZXBXmXBXCXBXCXCXCXmXmXmXnXnXnXbXbXbX",
"wXwXwXwXlXqXwXlXwXbXlXlXlXbXwX6X.XM l b.C.<X<Xv.h.M.'.+ @ { j.j.! N.1 D oXvXmXbXbXmXmXBXCXMXmXCXmXBXBXCXBXBXmXmXmXnXnXnXbXbXbXmX",
"lXwXlXwXqXwXlXlXbXbXbXbXbXwX8Xz >Xx.j.e.C.D.v.l.h.C.'.; d 5.j.l.W ] # M gXnXvXvXnXnXmXBXvXnXmXBXBXBXmXBXBXmXnXnXbXnXbXnXbXbXmXbX",
"lXlXwX0XwXlXlXbXcXbXcXwXlXqX1X1.z.l.j.,.w e.k.k.k.h.y.s.0.p.! t.! ] , R gXnXnXcXnXnXmXBXnXnXnXBXBXBXBXBXmXmXmXbXmXbXnXbXmXbXbXmX",
"lXlXlXwXwXlXlXnXnXnXnXlXlXqX}.f.l.l.k.y.f.j.l.k.k.k.k.z.h.! W W u.] 1 F oXcXnXnXnXmXmXmXnXCXBXBXCXBXBXBXnXnXnXnXnXbXnXnXmXmXmXmX",
"lXwXwXlXwXcXnXBXnXnXBXnXcXjXI.z.l.l.k.k.k.k.k.k.k.k.k.e.;.u.t.u.k.' V D OXcXBXBXBXmXBXBXnXnXBXBXmXBXBXmXnXnXnXbXnXnXnXnXmXmXmXCX",
"wXwXwXwXlXcXnXBXBXCXBXnXvXjXI.x.l.l.k.k.k.k.k.k.9.9.9.>.y.j.k.j.w.9 0 [.kXBXBXCXCXBXBXBXCXCXCXBXmXmXBXmXCXnXnXnXmXbXmXmXmXCXBXCX",
"lXlXwXcXlXvXnXBXBXBXBXBXvXMX2X3.>.>.9.<.9.9.0.9.:.P >.k.l.l.j.4.2.1 T kXCXCXBXBXBXBXCXBXCXnXnXnXnXnXCXnXnXCXnXnXnXmXnXCXCXBXCXCX",
"lXbXcXnXvXBXBXBXBXVXBXBXBXVXzX X- q 3.e.P ,.,.:.g.j.l.l.j.f.4.q w V A gXBXBXBXBXCXBXCXCXCXnXbXnXnXbXnXnXnXnXnXnXnXmXnXCXBXBXCXBX",
"cXnXnXnXBXBXkXOX+XuXzXzXVXZXVXVXP.L.@.f.g.g.g.e.f.w.w.,.4.k u 3.3 9  XnXMXkXjXvXBXCXCXCXCXnXbXnXnXnXnXbXnXnXnXnXmXmXCXCXCXCXCXCX",
"nXBXBXVXBXzX{ F 5 f  XM VXVXHXZXgXM J.L.&.*.q : + + + = t u 1.a.B N.8XgXjXXXh 3XvXBXCXnXnXnXbXnXnXCXnXnXnXnXnXnXmXnXCXCXCXCXZXBX",
"BXBXVXVXVXfXT G S A f f hXxXAXJXHXGXuX3X3X4XfX2Xx X = a - % g.5.3 y u J.u m U b 8XBXBXCXBXnXnXnXnXmXnXnXbXbXnXnXnXCXnXCXCXCXBXCX",
"BXBXBXVXCXfXA C D V D A c I.j fXJXJXJXJXVXVXkXgXv - i t . :.g.s.5 5 J.K.s x ` { gXCXBXCXBXnXmXnXnXnXnXnXbXbXnXnXnXnXnXCXnXCXCXnX",
"BXBXBXVXVXVXI.h j 5 Z f = e d N xXGXGXJXhX{ m g o     . 8 ;.X...t % u X.u * & N lXMXCXBXmXnXnXnXnXnXbXnXbXbXbXnXnXnXnXnXnXnXnXnX",
"VXBXBXVXVXVXNXxXhX XgX3XM ; y y y N rXfXZ G J V #     . 7 K.+.f.k.0.& r ) r # ; '.}.2XBXnXnXnXnXmXbXnXnXnXlXlXnXlXnXcXbXnXvXnXnX",
"ZXVXMXVXVXHXZXHXHXZXVXHXVXyXf x d y d 3 K J J J F 1 < : p q e.k.l.e.>.# ( _ ) # * s |.BXnXvXbXnXnXnXnXnXnXlXwXlXvXbXbXnXnXvXbXnX",
"HXZXVXBXVXHXHXHXZXHXJXJXHXxX2. .; > > ~ ~ Y 5 B K H L K K ~ 9 C.3.S.i.& O ( ) ) ; u }.MXnXvXvXnXbXnXnXnXbXwXqXwXbXnXbXvXnXMXnXnX",
"ZXVXVXBXVXHXZXZXHXJXKXJXJXJX'.s a a 4 ~ ~ y % ; Z K T M.%Xs.x.z.v.$Xn.0.O o ( ) ) s P.vXvXvXvXbXBXHXHXVXvXlXwXlXcXvXnXnXnXCXBXBX",
"JXHXVXBXVXHXHXZXJXJXJXKXKXKXGXXX6 * K J V ; * > U l z 5.z.z.l.l.l.r.A.e.7 O O 2 ) _ c gXnXnXBXVXPXPXPXKXJXPXJXcXnXCXCXCXBXZXVXBX",
"JXJXHXVXHXHXHXHXJXJXJXJXKXKXKXJXuXx F J G 5 4 5 ~ Y m x.e.1.6.f.f.M.1.5.q >.$ O 2 ) [ gXnXMXVXJXKXIXIXIXIXIXIXPXKXHXCXVXVXCXZXZX",
"PXKXJXHXHXHXHXHXJXJXJXJXKXKXJXJXHXXX< F G G G G W Y 9 7 : @ % 6 7 1.9.p >.7.] # , ` 3XgXMXVXVXHXPXPXPXPXIXIXIXIXPXKXCXZXZXCXCXZX",
"PXKXPXHXJXHXJXHXHXJXKXJXJXJXJXZXHXzXe # , B S H J K C y , $ $ $ 5 ;.k q 8.7./ z 4 m  XgXVXZXHXPXPXPXKXPXIXIXIXPXIXPXHXNXBXZXZXBX",
"PXPXKXJXHXHXJXJXJXKXJXJXJXJXJXJXHXNX2Xe + O , F H H 4 3 S G S Z B 7 p s.7.7.W ].z 4 ~ { JXPXPXIXIXIXPXIXIXIXPXPXPXGXyX[.xXZXCXZX",
"PXGXKXJXJXHXHXJXJXJXJXJXJXJXZXJXVXVXVXfX}.= o < S J G S J H D D < s 4.r.W 7.7.Z.M.] Z n LX=XiXIXIXIXIXIXIXIXKXKXDX{.2.b.GXKXZXZX",
"PXJXJXJXJXHXHXHXJXJXJXJXZXZXJXZXVXVXVXBXjXy o o , F G H G D V V 6 &.9.t.t.u.7.V.5.7.~ n { T ' PX-XiXAX-XAX+XrX+Xb.5.+.aXIXIXPXJX",
"KXKXJXJXJXJXJXZXZXJXJXZXZXZXZXZXZXZXBXBXjXx > o X $ 1 1 4 Z S # J.4.t.j.u.! / $X0.u.! &X] C w oXT { '.T '.U R c.d.%.+XGXKXIXPXKX",
"PXJXJXJXJXJXHXZXZXZXZXZXZXZXZXJXZXZXBXvXjX}.2Xg X X   X o 4 $ i L.g.k.h.k.! } N.s.j.u.! W / V.Z.$XB.] A.Q r.f.m.#.3XJXJXJXKXKXJX",
"KXKXJXJXZXJXZXZXZXVXCXCXZXJXKXKXJXZXBXuX%.XXM 2Xv o X X - + . G.@.j.l.h.k.h.$Xk 6.g.l.h.x.D.sX<X<X%Xp.x.g.M.o.v gXNXNXMXVXZXHXZX",
"KXJXJXHXHXZXZXZXCXCXCXVXJXPXPXIXPXPXAX+Xn.b.; t p p * X X + - J.6.g.l.l.j.D.7 p *.c.g.z.v.<XFXFXFXFXsX:XL.s XXgXMXnXvXBXBXVXVXZX",
"JXJXJXHXZXZXVXVXZXCXZXJXPXPXIXIXIXIXLXLXaX+Xv H.G.G.-   . . 6 o.w.j.l.j.3.: - a K.K.U.:X<XDXDXDXLXhXhXXX}.5XvXcXcXjXcXBXmXBXBXCX",
"JXJXZXBXVXVXBXZXCXZXZXJXKXIXIXIXLXAXSXSXSXpX%.s ..G.t . . . = @.e.s.l.s.h + = s P.1X6XhXNXKXFXDXAX3XAXIXPXKXMXkXjXcXcXcXnXBXCXCX",
"JXHXZXBXBXVXZXZXZXZXJXJXPXIXPXPXIXSXiXiXdXdX&XU 3 a 6       . 6 q 4.j.j.e.N.N %.+XiXaXaXAXLXLXLXKXKXPXPXKXPXHXjXjXvXvXcXnXnXBXBX",
"HXHXZXZXZXZXVXZXJXPXPXIXIXIXIXIXIXLXiX+X=XpXpX;XV.[ &         . = X.6.g.y.OXzXNXHXHXKXPXPXIXPXKXKXPXKXGXHXHXHXvXnXnXBXBXBXBXvXbX",
"HXHXVXHXJXKXKXPXPXPXIXIXIXIXIXIXIXIXyX'.oXiXSXSXdXdX,Xj 7 O   X X i X.@.f.b.yXNXHXVXVXGXGXPXKXHXHXJXJXJXZXVXMXnXnXnXMXBXBXMXnXvX",
"JXHXZXJXPXPXPXPXIXIXPXIXIXIXPXIXIXIXxX'.'.iXLXSXdXSXpX*X[ @ : <.,.% 9 b.<.e.OXVXHXVXVXHXHXHXVXHXHXHXHXHXVXMXMXBXMXCXBXBXBXBXnXBX",
"HXHXJXKXPXPXPXPXPXPXPXIXIXIXIXPXPXPXKXyX=XaXdXdX<XsXAXpXZ.; Y.b.R s.9.R c.0.oXCXVXNXVXVXNXVXVXZXHXHXZXVXVXVXVXBXBXVXBXVXBXBXBXBX",
"HXZXHXKXJXJXJXJXKXPXPXPXIXIXPXKXKXJXPXGXAXyXoX'.$X$X<XdX{.Y 0 # k Y.q b N.5.N.5XgXMXMXVXMXBXvXBXZXVXVXMXVXVXVXVXVXHXVXVXVXVXBXBX",
"ZXVXHXZXZXZXZXZXZXJXKXPXPXPXKXHXVXMXZXZXBXfXN g f n $X,XpX&X` Z T 5 # g 9 U B.=X[.v I.kXBXMXvXnXNXVXVXVXNXVXHXHXHXHXVXVXBXVXVXVX",
"ZXVXHXHXZXZXVXZXZXZXZXJXKXKXJXvXnXbXcXlXnXlX2Xe ; > d ` / / } Z.I W E Q P ~ Z.pX,X*Xh  XMXMXBXMXCXVXVXHXVXHXJXJXJXHXVXVXVXVXVXBX",
"JXJXJXJXZXZXZXCXVXJXJXKXKXZXmXvXnXcX0XwXlXbXlX}.* ; * @ , E E 7.0.T T Q 8.P 5 Y ^ / ] y uXMXBXnXzXBXHXHXJXJXKXJXJXHXHXJXBXVXVXBX",
"JXZXJXJXJXZXZXCXBXZXZXNXmXvXnXcXbXlXqXqXlXbXbXgXx o O #   3 >.r.j.9.R U I I P & 0 P I b.z XXgXMXBXVXVXHXKXKXKXKXJXJXJXHXVXBXVXBX",
"JXJXJXJXJXZXZXCXCXBXBXmXmXvXnXvXcXcXjX0XlXjXkXgX X# O O O $ R q.a.p.p.Y E E Q P 0 i.q.a.i.w '.xXzXxXNXHXGXJXKXJXJXGXJXHXZXBXVXBX",
"KXKXJXKXJXJXZXZXCXCXmXzXvXzXkXgXfXuXuXrXyXtXtX-X*X` 5 C C Z Z T } | | ~ ~ ~ T A A Y Z.@X@Xj [ tXtXtXpXpXpXAXAXAXAXxXHXHXZXZXZXVX",
"KXKXKXKXKXJXZXZXZXCXCXCXmXMXvXkXkXgXgXfXfXiXiXyXrXtX-X-X-X;X*X&X&X&X&X#X#X&X&X&X;X;X-X-XtXtXtXiXiXiXAXAXGXGXGXGXHXHXJXZXZXZXZXVX",
"PXKXPXKXKXKXJXJXZXZXCXCXCXmXmXvXnXbXwXeXlXnXlXbXlXlXlXlXnXvXnXzXjXiXhXiXhXhXVXVXMXMXVXNXzXvXvXBXVXVXVXHXKXJXJXKXKXJXZXZXZXZXBXCX",
"PXPXKXKXKXKXJXJXZXZXCXCXCXBXCXmXnXbXbXlXlXnXbXbXnXbXbXnXmXmXmXmXMXgXvXhXBXNXBXBXBXVXVXBXBXvXMXBXBXBXVXJXJXJXKXKXJXHXZXVXZXCXBXBX",
"PXKXPXPXKXKXJXJXJXZXZXZXCXCXBXBXnXnXbXbXlXnXnXlXbXnXnXnXvXmXmXvXzXBXMXMXVXBXVXMXBXBXBXVXBXBXBXzXBXVXVXHXJXKXJXKXJXZXZXZXCXBXZXBX"
};
