/* XPM */
static char *out[] = {
/* columns rows colors chars-per-pixel */
"64 64 246 2 ",
"   c #11110D",
".  c #323A37",
"X  c #5C3A25",
"o  c #3A540B",
"O  c #304E14",
"+  c #2A6706",
"@  c #376D0A",
"#  c #2D7300",
"$  c #2F7A00",
"%  c #347703",
"&  c #3C4D2D",
"*  c #3E6534",
"=  c #4A5613",
"-  c #455A16",
";  c #496B17",
":  c #537312",
">  c #63741B",
",  c #465929",
"<  c #4F5435",
"1  c #6C4E2D",
"2  c #586928",
"3  c #52702E",
"4  c #56653A",
"5  c #677529",
"6  c #6B7332",
"7  c #3B5E6F",
"8  c #346E78",
"9  c #4D584E",
"0  c #785750",
"q  c #596548",
"w  c #586657",
"e  c #516B53",
"r  c #6F7450",
"t  c #657458",
"y  c #4A5E6D",
"u  c #546A70",
"i  c #6D7265",
"p  c #68776A",
"a  c #667975",
"s  c #84493C",
"d  c #957335",
"f  c #AF7A2B",
"g  c #C65B3E",
"h  c #8B5852",
"j  c #A95A4C",
"k  c #B96259",
"l  c #8F7870",
"z  c #D15652",
"x  c #D67060",
"c  c #3C8904",
"v  c #5B870E",
"b  c #49980A",
"n  c #56970D",
"m  c #488211",
"M  c #598A14",
"N  c #599B13",
"B  c #62940C",
"V  c #659C0B",
"C  c #699E0E",
"Z  c #69871A",
"A  c #6F9315",
"S  c #6A9B13",
"D  c #5AA113",
"F  c #6AA50C",
"G  c #73B70E",
"H  c #69A417",
"J  c #75A916",
"K  c #7AB615",
"L  c #5B8524",
"P  c #6A8A2D",
"I  c #798828",
"U  c #789827",
"Y  c #758836",
"T  c #71AD23",
"R  c #79A923",
"E  c #7DC613",
"W  c #758F4F",
"Q  c #4F8763",
"!  c #6F8370",
"~  c #778979",
"^  c #83931C",
"/  c #81BB19",
"(  c #899430",
")  c #889937",
"_  c #B08731",
"`  c #84A926",
"'  c #91AB2B",
"]  c #98B92C",
"[  c #99A836",
"{  c #96B334",
"}  c #A7B533",
"|  c #CA8324",
" . c #81C616",
".. c #85C718",
"X. c #8CCC1C",
"o. c #91CF1F",
"O. c #92D01F",
"+. c #89C627",
"@. c #93CE21",
"#. c #99C728",
"$. c #95D122",
"%. c #9BD425",
"&. c #9DD429",
"*. c #A3C92D",
"=. c #BAC32A",
"-. c #A2D62A",
";. c #A8D52D",
":. c #A6D92C",
">. c #AADA2E",
",. c #B0C938",
"<. c #AAD433",
"1. c #AEDB31",
"2. c #B3DD34",
"3. c #B6D839",
"4. c #B8E037",
"5. c #BCE23A",
"6. c #C1CB2B",
"7. c #C9D32B",
"8. c #C9D736",
"9. c #CDD737",
"0. c #C3E43D",
"q. c #C9E73F",
"w. c #D5E13A",
"e. c #8E9351",
"r. c #918C74",
"t. c #A8AC60",
"y. c #C99454",
"u. c #C3BD7A",
"i. c #A8D54B",
"p. c #B5D647",
"a. c #B7C46D",
"s. c #CBDA46",
"d. c #CCD748",
"f. c #CAE641",
"g. c #D5E946",
"h. c #DDED4A",
"j. c #D6EE50",
"k. c #DEEB51",
"l. c #E4F34D",
"z. c #E3EC51",
"x. c #E9F652",
"c. c #EBF65A",
"v. c #D3D868",
"b. c #D8DA7A",
"n. c #D4EB6A",
"m. c #DEE373",
"M. c #E9F569",
"N. c #F2FB64",
"B. c #F5FC6C",
"V. c #E5EA75",
"C. c #EDF376",
"Z. c #F4FB74",
"A. c #F9FE74",
"S. c #F9FC7C",
"D. c #106F95",
"F. c #326A87",
"G. c #2C759B",
"H. c #337496",
"J. c #0978A6",
"K. c #287CA7",
"L. c #497690",
"P. c #3A8293",
"I. c #0D83B8",
"U. c #1586B9",
"Y. c #3387AF",
"T. c #2686B6",
"R. c #768A86",
"E. c #779190",
"W. c #5DA596",
"Q. c #5092B2",
"!. c #729CAF",
"~. c #76A4B7",
"^. c #6FC788",
"/. c #128EC6",
"(. c #1993CB",
"). c #0D98D6",
"_. c #1898D4",
"`. c #139BDB",
"'. c #229CD5",
"]. c #21A2D2",
"[. c #0F9DE0",
"{. c #119EE3",
"}. c #11A0E5",
"|. c #17AFE3",
" X c #58A3C6",
".X c #0EC5F5",
"XX c #39CBF6",
"oX c #66D5F5",
"OX c #8E968A",
"+X c #869A96",
"@X c #91A69B",
"#X c #B2B28F",
"$X c #8AA6A8",
"%X c #96AAA6",
"&X c #89ACB7",
"*X c #99B8BB",
"=X c #A9B7B0",
"-X c #B9C99A",
";X c #B0C5B8",
":X c #E7EC8F",
">X c #F8FB85",
",X c #FCFD85",
"<X c #CCCCB5",
"1X c #8BB7C6",
"2X c #9BC5CD",
"3X c #A9C8C7",
"4X c #B6CBCA",
"5X c #ADCFD1",
"6X c #B9D7D9",
"7X c #ABDAE5",
"8X c #BADEE5",
"9X c #9DE5FB",
"0X c #BCE3E9",
"qX c #B2E4F0",
"wX c #B5EBF7",
"eX c #BAEBF4",
"rX c #B6ECF9",
"tX c #BBEEF9",
"yX c #BEF1FB",
"uX c #D2D6CC",
"iX c #C6DBDC",
"pX c #E8E8D3",
"aX c #C5DEE2",
"sX c #C7E6EA",
"dX c #D3E9ED",
"fX c #C3EDF4",
"gX c #CCEEF4",
"hX c #C2EEF8",
"jX c #D3EEF3",
"kX c #CAF1F7",
"lX c #C3F3FB",
"zX c #CAF4FA",
"xX c #CCF5FC",
"cX c #D4F0F6",
"vX c #DCF2F6",
"bX c #D3F6FC",
"nX c #DBF6FC",
"mX c #D5F8FD",
"MX c #DBF8FD",
"NX c #E9E9E7",
"BX c #E2F4F6",
"VX c #E1F7FC",
"CX c #E3F9FD",
"ZX c #EBFBFD",
"AX c #F2FCFD",
"SX c #FEFFFF",
/* pixels */
"lXlXlXlXlXzXzXxXxXxXxXlXlXxXxXxXxXxXmXxXxXxXxXxXxXmXxXxXxXxXlXlXxXlXlXlXxXxXxXxXxXxXxXlXlXhXyXrXyXyXrXyXyXyXzXxXxXxXxXxXxXxXxXxX",
"tXhXhXlXlXlXzXzXxXxXxXlXlXxXxXxXxXxXxXxXxXxXxXxXxXxXxXxXlXlXlXlXxXlXxXxXlXxXxXxXxXxXxXxXlXyXyXtXyXrXrXtXyXlXzXxXmXxXxXxXxXbXxXmX",
"rXrXyXyXlXyXyXlXyXlXlXlXlXlXlXxXlXxXxXxXxXxXxXxXxXxXxXlXlXlXzXlXxXlXqX5X~.!.!.!.1X8XhXbXlXhXtXrXrXtXtXyXyXyXzXxXmXmXxXxXxXmXmXxX",
"wXwXrXtXyXlXlXlXyXlXxXxXxXlXxXlXxXlXlXlXxXxXxXxXxXxXxXxXlXxXlXwX2XQ.].].'.Y.L.L.!.1X!.7XlXlXtXrXrXrXrXtXyXlXxXbXmXmXbXxXxXxXbXmX",
"wXrXrXtXlXlXlXlXlXlXlXxXxXxXlXlXlXlXyXlXlXxXlXlXlXxXzXxXlXlX2X X'.{._.Y.(.F.y H.y u L.~.~.lXyXyXyXyXlXlXlXxXmXmXbXmXbXxXxXxXmXbX",
"rXrXtXyXlXyXyXlXlXlXlXlXxXlXlXlXlXlXyXyXlXlXlXlXlXlXzXxXrX~.].}.{.{.`.`.`._.(.(.F.y K.y (.~.tXlXyXlXlXlXxXxXmXmXmXxXbXmXbXxXxXbX",
"rXwXtXyXtXyXyXyXlXlXxXxXxXlXlXlXlXyXyXyXlXlXlXlXlXlXlX0X X_.}.}.{.{.{.`.{.{.`.{.`.U.y y y '.2XzXlXlXxXlXbXbXxXmXmXbXmXxXmXxXxXxX",
"wXwXrXyXyXtXyXlXyXlXlXlXlXlXlXlXyXyXyXyXlXlXlXlXxXlXyX X`.[._.U.K.K.K.K.K.K.T.(._.).T.y H.`.Y.*XlXxXxXxXbXbXmXMXmXbXmXmXxXxXxXzX",
"rXrXrXyXtXrXyXyXyXyXyXyXlXlXlXlXlXyXrXrXyXlXyXlXxXhX1X'.(.(.G.H.K.F.H.G.K.T.(.(._._.`.).U.I.D.Q.xXxXxXxXbXxXMXMXMXbXbXbXxXxXlXxX",
"wXrXtXtXtXrXyXyXyXyXyXyXyXlXlXyXlXyXyXrXyXyXlXlXlXeXQ.'.T.K.K.G.G.K.K.K.K.(.(._.`._.I.J.D.H.e *XxXxXxXxXbXmXmXmXbXxXbXbXxXxXxXyX",
"wXrXtXtXyXrXyXyXlXyXyXyXyXlXlXlXyXyXyXrXyXyXyXlXlX7XK.'._.{.{.{.}.}.{.{.{.{.{.).I.J.D.8 W s.s.w lXzXzXxXxXbXbXmXmXbXxXxXxXlXyXyX",
"rXwXtXtXyXtXyXlXyXlXlXlXyXyXlXyXyXyXrXrXyXyXyXyXhX7X(._.{.{.`.'.}.{.{.{.{.[.U.J.D.7 , ; ,.f.h.Y 3XzXlXzXxXbXmXmXmXxXxXxXlXlXlXlX",
"rXwXrXtXyXrXrXlXlXlXyXlXlXyXyXyXyXyXyXrXyXyXyXlXlX7XY.)._.K.l L.}.{.}.}.`.I.D.i y.9 =XuX=X) g.,.a *X*X*X6XsXgXjXbXxXlXyXlXlXyXlX",
"wXwXeXrXrXrXtXyXyXyXlXxXlXlXyXyXyXyXyXrXlXyXlXyXyXqXY./.u j x OX{.{.}.).J.Q +._ y.<XSXAX9X;Xi.0.2 [ } [ ) 6 4 w %XsXxXxXlXyXyXlX",
"rXeXtXrXrXyXyXyXyXyXlXlXlXyXyXyXtXtXyXyXlXyXlXyXyXwXQ.K.h g g h {.{.).D.W &.#._ y.uXSXcX[.}.t.5.[ l.h.h.l.l.l.d.[ 4 E.zXlXxXlXlX",
"rXeXtXhXrXrXrXrXyXyXyXlXlXyXyXyXtXyXyXlXlXlXyXlXtXtX1XI.K.0 s H.{./.D.W $.%.R _ y.NXjX XJ.).W.4.,.5.8.0.0.f.g.l.l.h.) R.lXlXlXlX",
"eXtXtXhXtXrXwXrXtXlXhXlXlXyXyXtXtXtXhXlXlXlXtXyXyXlX7XI.J.(.(./.J.D.d f ( #.` f y.0X|.D.D.).W.1.4.4.4.5.5.5.q.f.h.l.s.6 7XlXxXxX",
"tXtXtXtXtXwXtXtXtXlXyXtXtXyXhXtXtXlXlXlXlXyXtXtXyXlXqXH.J.J.J.J.7 M d f | ( Y t W.sX.X).I..X^.<.>.4.1.4.4.5.5.0.f.f.Z L 3XlXlXxX",
"tXeXtXtXtXtXtXtXtXlXlXyXlXyXlXtXtXtXlXlXlXlXrXtXyXlX7XL.J.D.D., n F  .U d d u Y.Q.dXoX.XXXXXi.&.:.>.>.1.4.4.4.5.5.3.- ; 2XlXlXxX",
"tXtXhXtXtXtXhXhXlXlXlXfXhXlXtXlXlXtXlXlXlXlXtXlXlXlXfX&X!.$X= v V G  . ./ P.H._ u uXBX9XvX-X&.&.:.:.>.>.>.1.>.4.4.4.] P 2XlXxXxX",
"hXhXtXtXtXtXhXlXlXlXlXyXyXyXyXlXyXyXhXlXlXlXlXlXzXxXzXzXaX< } B V F E E  .T Q F.K.t ;XpXt.&.+.%.$.%.-.-.:.>.>.>.2.1.p.{ 3XzXzXzX",
"hXhXhXtXtXhXzXxXzXzXkXlXeX5X&XeXlXzXzXzXxXxXzXlXzXxXlXzXE.' 1.V V A p.n.n.i.+.P w d R K X.X.$.$.$.$.%.%.-.%.:.:.>.>.;.6 0XzXxXzX",
"lXtXtXtXhXlXzXbXxXbXbXgXE.W e.E.lXzXxXbXmXxXxXzXxXmXxX0X< 3.2.A U 6.S.,X,X>X>Xm.e.| ( H J J / ..O.O.$.$.%.%.%.-.&.>.#.w zXxXmXxX",
"hXtXtXhXtXhXxXbXbXbXcX3Xr :Xp.~ kXzXxXxXmXmXbXxXxXmXkX*X[ 5.2.> 6.7.S.S.,X>X>X,Xb.d d M B B V F G ..X.O.O.O.%.%.&.&.R 3XmXmXmXmX",
"tXhXtXlXlXzXbXbXbXbXsXw v.n.2.! kXkXxXbXbXbXbXxXbXbXfXt ;.2.4.> 7.7.z.A.A.S.S.,X>Xb.t.X X 1 W 5 > A A / ..X.$.$.$./ t fXmXmXmXbX",
"hXzXfXzXxXxXbXbXbXnX4X6 Z.p.1.q nXmXbXbXbXbXbXbXbXnX6X< 4.2.1.Z 7.7.7.x.N.B.A.A.S.S.C.u.j z r.h k X q : : S K K K r 6XbXmXmXmXbX",
"kXzXxXbXbXmXbXnXmXbX=X} Z.<.<.2 dXnXnXmXbXbXxXbXmXmX4XP 2.2.>.` ' 7.7.7.z.N.N.N.A.A.A.S.:Xs k 0 r.k l     < & < e 5XxXmXmXmXmXmX",
"zXbXmXmXmXMXnXnXnXdX~ =.Z.-.;.` %XnXBXnXnXbXkXgXcXnX@X] 1.>.] U : =.7.7.7.9.z.c.c.c.N.B.Z.C.v.r r.z z j   . $X0XkXbXmXmXmXmXmXbX",
"bXbXnXMXMXMXMXMXMXdXt 6.Z.%.:.<.q BXCXCXnXcXgXxXmXdXt *.;.X.G B o 1 } 7.[ h ' 7.6.} w.N.N.N.B.A.v.e.X <X< 1XsXhXxXmXxXmXmXmXmXbX",
"bXbXbXnXMXnXMXVXCXdXr 7.C.%.&.1.Z =XBXBXVXnXbXbXcX3X2 ;.w.g.O.G n 5 } = r q O o q #X6 7.w.c.N.N.B.Z.C.a.r < w $XkXxXxXxXxXbXbXbX",
"bXbXbXnXMXVXCXCXCXdXr 7.Z.&.&.>.,.4 uXvXVXCXvXjXsXt ] ' h.x.5. .V = h.( v G K K v q 6 =.6.6.7.w.z.c.c.N.B.C.v.W 0XxXxXxXxXxXxXxX",
"nXbXbXnXMXVXMXVXCXdXt 6.M.<.&.:.:.#.2 9 +XdXvX3X9 U ;.*.d.l.g...G : ) - G E  ...G @     R.l 6 > ^ } 7.w.s.7.5 +XhXxXzXlXxXxXxXlX",
"MXnXcXnXVXVXMXVXMXjXr 6.M.:.$.%.%.;.;.;.U 2 = 2 ] ;.;.*.> w.2.o.: o ; V  .X.o.o.K B i i eXhXxXhX6XE.L.i ! p *XeXzXzXzXzXzXzXzXzX",
"VXMXnXbXnXVXVXCXnXbX#X} V.n.$.X.O.%.-.;.;.*.{ o.#.o.#.o.` > ;.O.J  .@.$.O.>.2.1.:.R < E.xXxXhXxXxXhXzXnXfXeXwXrXyXzXzXzXzXbXbXzX",
"CXnXbXnXnXMXnXnXVXVX4X( w.Z.n...o.O.O.%.-.` Z = = A C J J > U O.O.%.-.1.q.l.l.l.,.r *XkXxXkXkXxXxXzXlXlXlXtXrXtXlXzXbXzXbXbXbXbX",
"CXnXnXnXnXVXCXMXVXCXdXq =.k.S.s.X.X.o.o.A v V J X.O.] ` F A = ] 2.h.h.6.} [ [ ( < aXbXbXcXxXlXkXzXlXlXlXhXtXlXlXkXbXbXbXbXmXmXbX",
"ZXVXVXnXnXVXCXCXVXCXBXiX6 6.z.Z.j.X...> B V K X.%.-.-.*.J S A o > ( - e.b.V.b.6 , 6XmXbXxXxXzXlXlXyXyXtXhXlXzXkXzXzXbXmXmXMXMXmX",
"AXZXZXBXCXVXCXCXCXCXBXBXuX6 7.k.Z.V.' V B G ..O.$.-.;.;.*.S F A J / <.C.,X,XC.e.P p gXbXgXxXkXlXlXyXyXtXkXlXkXxXzXbXbXnXMXmXmXMX",
"AXAXZXZXCXCXCXVXVXdXp w iX@XI 6.g.M.L F F  .o.o.$.-.;.>.2.J S C G ..k.>X,X,X>Xe.U 3 6XbXbXkXzXkXhXlXtXlXlXzXcXxXkXbXbXnXmXMXMXMX",
"AXZXZXBXVXVXVXVXVX4X- Z , =X@X( 6.} V V K ..X.O.$.-.:.1.2.*.C C C <.N.A.S.,XV.P N : R.gXbXbXxXzXlXlXkXfXkXnXmXcXcXbXbXmXmXmXmXmX",
"AXZXZXCXVXCXMXCXcX~ n J K 2 6X@X5 ^ V V  ...X.O.%.-.:.1.4.2.C C ' l.N.B.B.A.m.L D m 4 4XbXbXxXzXxXhXhXkXcXbXnXnXbXbXbXbXbXbXbXmX",
"AXZXZXVXCXCXCXCXaX, F ..@.{ p ! O : V F  ...O.O.%.-.:.1.2.0.J *.h.x.N.B.A.Z.t.m b m U p bXmXmXcXbXxXkXcXbXnXcXnXmXxXxXbXbXxXcXmX",
"ZXZXZXCXVXVXCXMX%X: E o.-.f.> v B B V F  .X.X.O.%.-.:.>.4.0.s.x.x.x.l.N.Z.V.2 % % U ` 4 6XMXnXnXbXbXxXxXbXnXnXcXcXbXkXzXzXmXbXmX",
"ZXZXCXVXCXVXVXgXt V  .$.f.h.J J C V V F  .X.O.O.%.:.>.4.4.0.g.x.x.x.x.l.h.Y @ # M R R ` ~ cXnXnXnXbXgXxXjXnXnXnXmXkXxXfXzXxXbXmX",
"ZXZXCXCXCXVXVX4X; K X.-.h.j.@.O.X.V V F  .X.O.O.-.:.>.2.3.s.d.x.x.x.h.g.2 @ # n H T R U & iXVXnXnXjXxXbXjXcXcXnXbXxXxXkXzXbXxXbX",
"ZXZXCXVXCXMXbX~ M E $.4.x.8.&.%.%.V V F  .X.O.O.%.:.>.4.3.3.p.z.k.j.( O # $ c D S H T T U R.BXnXcXbXxXgXgXjXgXgXcXkXhXkXzXxXbXbX",
"CXCXCXnXMXMXsX4 F X.$.g.h.( :.:.;.F V V G X.O.O.%.:.>.2.3.( ~ +X+X+X9 + # # % n D D H T T , aXvXjXfXsX6X=X$X$X5X0XfXfXkXxXxXmXmX",
"CXCXnXnXMXmX%X; G X.:.g.,.p 5 =.2./ V V V ..O.%.-.>.1.2.3.q cXbXbXbX6XO # # % % b D D H H P OX6XR.9 & O l OXOXr.i 9 E.fXxXbXbXmX",
"CXVXMXmXcXjXa e.I K :.s.4 fX4Xq *.*.C C C K $.-.f.4.>.4.{ %XmXbXbXbXbXR.+ # # $ c b D D D H O , Z T N @ e.e.a.<XpX#Xw sXxXxXbXbX",
"VXCXnXnXvX6Xr.:Xu.U &.) *XxXbXsXp ) S F F ..$.0.x.g.2.<.4 fXbXxXbXmXjXgXe + # # # c c N H R { { ' D : r.<X#Xi q r OXsXbXcXxXkXxX",
"CXVXnXVXvXE.-XpX#XZ U p hXzXxXbXkX+X3 B F X.$.f.l.h.<.Y 5XxXxXbXbXnXcXcXgXR.O # # $ % M { { ] T D b % a.a.#Xi R.sXgXbXbXbXcXxXxX",
"CXVXMXVXdXw <Xr.#XW q 0XzXzXbXxXxXlX;X, A ..$.3.h.d.Y 3XxXxXbXbXbXbXbXbXbXjXaX+X9 O ; { { ` D D b b # W r R.aXgXxXbXbXbXbXbXcXxX",
"CXMXMXMX3X& e.:XuXp 0XxXzXxXzXzXzXzXkX8Xe : ` / P i 8XkXmXbXxXxXcXbXbXbXbXnXmXcXsX+XM J D D b c c c + 9 aXgXvXbXbXnXnXnXbXnXbXbX",
"VXVXBXnXw <XNXuX! 6XzXxXzXlXzXlXlXtXyXtXwX6X5X5X8XsXxXmXxXzXxXxXxXmXbXbXbXcXnXnXkX+Xn D b c b c + e 4XdXnXnXnXVXnXnXnXnXbXnXbXbX",
"MXnXVXsXi uXOX+X0XxXxXxXxXlXyXlXlXtXrXtXyXlXzXbXbXbXbXxXxXxXxXmXbXxXbXbXmXmXnXnXvXR.% b c # + e *XdXbXnXnXBXnXVXVXVXnXnXbXnXnXbX",
"MXnXVXaXi +X4XcXbXbXbXxXxXlXlXzXlXyXrXtXyXlXzXmXbXbXxXxXxXmXxXmXbXbXbXnXbXnXmXnXnX$X+ # + 4 $XsXmXnXnXVXnXVXCXCXVXVXnXnXnXnXnXnX",
"CXnXVXnXsXcXnXmXbXxXbXxXlXxXlXxXzXhXtXrXtXlXxXxXxXmXxXxXxXxXxXxXxXbXbXmXbXbXMXMXMX4X& * +X6XkXxXcXbXnXCXCXZXZXZXZXVXCXCXmXnXmXbX",
"CXCXCXCXVXMXMXmXbXxXxXxXxXxXxXlXlXlXtXrXyXlXzXxXxXxXxXxXxXxXxXmXbXxXxXmXbXbXMXbXnXbXsXsXcXcXcXxXbXnXVXCXZXCXZXCXCXVXCXMXnXmXbXnX",
"CXZXCXCXVXVXMXmXmXbXxXxXxXxXxXxXlXlXyXyXlXlXzXzXxXxXxXxXxXxXxXxXxXbXxXbXbXbXbXMXnXbXMXMXbXbXbXbXbXnXCXCXCXCXZXZXZXCXCXCXMXnXnXbX",
"CXZXZXCXZXVXMXMXmXmXmXbXxXxXxXxXzXlXlXlXlXbXbXlXlXxXlXxXxXlXxXmXxXbXmXxXMXbXbXnXnXnXnXnXcXxXbXcXbXnXMXCXCXCXZXCXVXCXCXVXMXMXnXnX",
"AXZXAXZXZXMXMXMXmXmXmXmXmXxXxXxXxXlXlXlXxXxXxXlXlXlXxXlXxXxXxXxXxXbXmXxXbXmXMXnXbXnXnXbXbXkXkXcXbXnXBXCXCXCXZXZXCXCXMXCXMXMXMXnX",
"AXZXAXZXZXZXZXMXMXMXmXmXmXmXxXxXlXlXyXyXlXxXlXlXlXxXxXxXxXmXxXxXxXxXbXmXMXMXMXbXnXnXnXbXbXbXxXbXbXbXnXCXCXCXZXZXZXCXCXMXMXnXbXbX",
"AXAXZXZXZXZXCXCXMXMXMXmXmXmXmXxXxXlXlXyXlXxXlXlXxXlXxXxXxXxXxXxXxXxXmXmXmXMXMXmXbXbXnXbXbXgXcXbXmXbXMXCXCXZXZXZXZXMXMXMXmXMXmXbX",
"AXAXAXAXZXZXZXZXMXCXMXmXmXmXmXmXmXlXzXlXxXlXxXlXlXxXxXlXxXxXmXmXxXmXbXmXmXbXnXbXbXbXnXbXnXbXbXbXbXMXMXMXCXZXCXZXZXMXMXMXbXmXbXmX"
};
