/* XPM */
static char *out[] = {
/* columns rows colors chars-per-pixel */
"64 64 251 2 ",
"   c #12110D",
".  c #353A38",
"X  c #5C3B25",
"o  c #3B560B",
"O  c #304E14",
"+  c #2A6706",
"@  c #376D0A",
"#  c #2D7400",
"$  c #2F7A00",
"%  c #357704",
"&  c #3A4C2F",
"*  c #376031",
"=  c #4A5613",
"-  c #455A16",
";  c #496B17",
":  c #4F7210",
">  c #5C7816",
",  c #64741A",
"<  c #46592A",
"1  c #4E5235",
"2  c #6C4E2D",
"3  c #586927",
"4  c #57772D",
"5  c #556538",
"6  c #667529",
"7  c #687132",
"8  c #325C51",
"9  c #3F5E76",
"0  c #366A70",
"q  c #4E5947",
"w  c #6F5854",
"e  c #5A6649",
"r  c #4F6B54",
"t  c #546656",
"y  c #6F734E",
"u  c #646A57",
"i  c #66765A",
"p  c #4C5A68",
"a  c #486575",
"s  c #667569",
"d  c #70776D",
"f  c #B6583F",
"g  c #947430",
"h  c #AB792A",
"j  c #C0583D",
"k  c #A8594B",
"l  c #A65E54",
"z  c #957D4C",
"x  c #897065",
"c  c #D16156",
"v  c #3C8904",
"b  c #5B870D",
"n  c #49980A",
"m  c #55980D",
"M  c #488211",
"N  c #598A14",
"B  c #599B13",
"V  c #62940C",
"C  c #659C0B",
"Z  c #699E0E",
"A  c #678719",
"S  c #6B9B13",
"D  c #719415",
"F  c #5AA113",
"G  c #6BA50D",
"H  c #73B60E",
"J  c #69A317",
"K  c #75A915",
"L  c #7AB615",
"P  c #698724",
"I  c #798829",
"U  c #789826",
"Y  c #758636",
"T  c #6D9531",
"R  c #79A823",
"E  c #78AE21",
"W  c #7DC514",
"Q  c #78894E",
"!  c #66955F",
"~  c #718369",
"^  c #74887A",
"/  c #83931C",
"(  c #81BB18",
")  c #8B9430",
"_  c #8A9737",
"`  c #84AA26",
"'  c #8FAC2D",
"]  c #98B82C",
"[  c #9AA836",
"{  c #96B234",
"}  c #A9B733",
"|  c #CD821F",
" . c #D0892E",
".. c #84C717",
"X. c #8CCC1C",
"o. c #91CE1F",
"O. c #92D01F",
"+. c #89C626",
"@. c #98C927",
"#. c #95D121",
"$. c #9BD425",
"%. c #9ED429",
"&. c #A4C92D",
"*. c #BBC42B",
"=. c #A3D62A",
"-. c #A8D42D",
";. c #A6D82C",
":. c #AADA2E",
">. c #AFCA39",
",. c #AAD434",
"<. c #ADDB31",
"1. c #B3DD34",
"2. c #B6D839",
"3. c #B7E037",
"4. c #BCE23A",
"5. c #C1CC2B",
"6. c #C6D12C",
"7. c #CAD52C",
"8. c #C9D736",
"9. c #CDD737",
"0. c #C2E43D",
"q. c #C9E73F",
"w. c #D5E13A",
"e. c #8F9152",
"r. c #908C74",
"t. c #A7B569",
"y. c #A8D54B",
"u. c #B3D148",
"i. c #B7C46D",
"p. c #CBDA45",
"a. c #CCD748",
"s. c #CAE641",
"d. c #D6E946",
"f. c #DDED4A",
"g. c #D6EE50",
"h. c #DEEB51",
"j. c #E4F34D",
"k. c #E3ED52",
"l. c #E9F652",
"z. c #EBF65A",
"x. c #D3D772",
"c. c #D6EB6B",
"v. c #E9F569",
"b. c #F2FB64",
"n. c #F5FC6C",
"m. c #E5EA75",
"M. c #EDF376",
"N. c #F4FA74",
"B. c #F9FE74",
"V. c #F9FC7C",
"C. c #0E6D94",
"Z. c #1B7395",
"A. c #30708E",
"S. c #327396",
"D. c #0978A5",
"F. c #0E7BAA",
"G. c #297AA4",
"H. c #327EA2",
"J. c #4B768E",
"K. c #607F92",
"L. c #3E809D",
"P. c #0D83B7",
"I. c #1887B9",
"U. c #2B83AE",
"Y. c #2487B7",
"T. c #778986",
"R. c #75918A",
"E. c #60B392",
"W. c #508DA9",
"Q. c #6C9AAF",
"!. c #7AA4B7",
"~. c #6FC788",
"^. c #178DC3",
"/. c #0B90C9",
"(. c #1B93CA",
"). c #0C97D6",
"_. c #1799D5",
"`. c #139CDC",
"'. c #2C99CC",
"]. c #15A3D2",
"[. c #0F9EE1",
"{. c #119EE3",
"}. c #11A0E5",
"|. c #1BB2E4",
" X c #69A9C6",
".X c #0EC5F5",
"XX c #3ACBF6",
"oX c #66D5F6",
"OX c #96958D",
"+X c #879A96",
"@X c #8BA498",
"#X c #B4B08F",
"$X c #88A6A5",
"%X c #94AAAA",
"&X c #8DADB6",
"*X c #93B6B6",
"=X c #B3B5A7",
"-X c #A8BDBE",
";X c #C3A599",
":X c #B9C99A",
">X c #AEC4BB",
",X c #EAF08A",
"<X c #F9FA86",
"1X c #FCFD85",
"2X c #CDCDB3",
"3X c #8EB9C4",
"4X c #A3B8C5",
"5X c #9BC4C9",
"6X c #8EC4D7",
"7X c #99C8D6",
"8X c #AAC8C7",
"9X c #B6C9C9",
"0X c #ABCFD3",
"qX c #A9D4DA",
"wX c #B7D6D9",
"eX c #ABD9E2",
"rX c #BADDE3",
"tX c #9DE5FB",
"yX c #B7E2E8",
"uX c #BBE5EC",
"iX c #B9E6F1",
"pX c #B5EAF6",
"aX c #BDECF5",
"sX c #B6ECF8",
"dX c #BBEEF9",
"fX c #BEF1FB",
"gX c #C4DCDC",
"hX c #D3D7D0",
"jX c #E8E8D3",
"kX c #C2DEE2",
"lX c #C8E6EA",
"zX c #D3E8EC",
"xX c #C5EDF3",
"cX c #C6EFF6",
"vX c #D6EEF3",
"bX c #C4F3FB",
"nX c #CCF3F9",
"mX c #CCF5FC",
"MX c #D3F1F5",
"NX c #DBF3F6",
"BX c #D3F6FC",
"VX c #DBF6FC",
"CX c #D5F8FD",
"ZX c #DBF8FD",
"AX c #E4E7E4",
"SX c #E5F5F8",
"DX c #E1F7FC",
"FX c #E3F9FD",
"GX c #EBFBFD",
"HX c #F2FCFD",
"JX c #FDFEFE",
/* pixels */
"bXcXfXbXbXbXmXmXmXCXmXmXbXmXmXmXmXCXmXCXmXmXmXmXmXCXmXmXmXmXbXbXbXbXbXbXbXnXmXmXmXmXbXmXbXfXfXdXfXdXdXdXfXfXbXmXmXnXmXnXnXmXmXmX",
"dXbXfXbXbXbXbXmXmXmXmXbXbXmXmXmXmXmXmXmXmXmXrX7X&X!.!.!.3XeXaXbXbXmXbXbXbXnXmXmXmXmXmXmXmXfXdXdXdXdXsXfXfXbXnXmXCXCXmXmXnXCXmXCX",
"sXsXdXfXfXfXbXfXfXbXmXbXbXbXbXbXmXmXnXMXiX$X&X!.L.J.Y._._.'.'.Q.eXfXbXmXbXmXmXmXmXmXmXmXbXfXsXsXdXsXsXfXfXfXmXmXmXCXmXmXmXBXBXBX",
"pXpXdXdXfXbXbXbXfXbXmXbXmXbXmXbXbXbXbX0X!.W.p J.A.p A.'.H.'.{.{.'.Q.pXbXmXmXmXmXbXmXmXmXmXfXfXsXsXsXdXfXfXbXmXCXCXCXCXmXmXmXBXCX",
"sXsXsXdXbXbXbXbXfXbXmXbXmXmXbXbXbXbX7X'.a U.p a ^.(.`.{.`.{.{.{.{.`.'.6XcXmXmXmXmXnXmXmXbXbXdXdXfXfXfXmXbXmXmXCXBXBXBXmXmXmXBXCX",
"sXsXdXfXbXfXfXbXbXbXfXmXmXbXbXfXcXyX'.S.p 9 Y._.{.{.}.}.`.`._.{.}.{.{.'.3XaXmXmXmXbXbXmXcXaXbXbXfXfXbXbXmXmXCXCXCXBXBXBXmXBXBXnX",
"sXpXfXfXfXfXfXfXfXbXbXmXmXbXmXfXpX X_.A.p A._.[.(.Y.G.G.G.G.G.G.G.Y.(.`._.6XnXmXmXmXnXbXbXdXbXbXfXmXbXbXmXCXCXCXCXBXBXCXmXmXmXmX",
"pXpXsXfXfXdXfXfXfXbXmXbXfXfXbXbXQ.Z.F.^.^.`.`.(.'.Y.Y.G.G.A.A.S.S.H.H.Y._.W.uXmXBXnXbXbXbXbXbXbXmXmXmXmXmXCXCXCXCXCXCXCXmXmXmXnX",
"pXsXsXfXfXsXfXfXfXfXfXfXfXfXbXfX7XA.Z.D.D./.)._._._.(.Y.Y.Y.I.Y.G.G.I.(.(.(.qXmXmXmXcXbXbXbXcXbXmXmXmXCXmXCXCXZXCXBXCXCXmXmXbXbX",
"sXsXfXsXdXsXfXfXfXfXfXbXbXbXbXbX4X7 u.s A.C.F.P.).`.[.[.[.}.}.}.}.}.{.{.{.^.6XmXmXmXnXbXbXbXbXbXmXmXmXmXCXCXCXCXBXBXBXmXmXmXbXbX",
"sXsXfXfXfXsXfXfXbXfXbXfXfXbXbXfXt d.f.d.y.Q 0 Z.Z.P.).`.}.}.}.}.{.H._.{.[./.6XnXmXmXbXnXbXbXbXbXmXmXbXmXmXCXCXCXBXBXmXmXbXbXbXbX",
"sXsXsXfXfXfXfXfXbXfXfXfXfXfXfX7X7 f.s.>.> > P e.y Z.P.).[.}.}.}.G.;Xx U._.^.6XbXmXbXmXmXmXbXmXmXbXmXmXmXmXCXCXCXCXmXmXmXbXbXbXbX",
"sXpXsXdXaXsXaXfXiXiXyX0X*X*X&Xs >.d._ =XhX=X. h  .{ ! U.I.}.}.}.J.c j k a F.6XbXmXmXmXmXmXmXbXmXmXmXmXmXCXCXCXCXCXmXmXfXmXfXfXbX",
"pXpXsXsXpXpXeX$Xp 5 I _ { } [ 3 0.y.8XoXHXJXhXe. .{ %.{ 0 P.[.[.W.l k k G.Y.qXmXmXbXmXmXmXmXmXmXmXmXmXCXmXCXCXCXCXmXmXmXbXfXfXbX",
"iXdXdXdXuXT.5 [ p.j.l.j.f.f.h.[ 4.t.|.{.vXJXJX;X .e.%.%.' p F./.{.J.w G.F.U.iXmXbXmXmXmXmXmXmXmXmXmXmXmXCXCXCXCXCXCXmXmXmXbXbXbX",
"sXdXaXdXK._ d.l.f.d.s.0.0.0.0.>.8.E.).F.'.vXJX=X ._ %.#.) h y C.F././.F.F.W.xXmXmXmXBXmXmXmXmXCXmXmXmXCXCXCXCXCXCXmXmXmXbXbXbXmX",
"sXdXdXeX7 p.j.f.s.s.4.4.4.4.3.1.1.E.P.C.C.|.bX>Xd z ` g | h 6 4 0 C.D.D.D.3XbXbXmXmXmXBXmXmXmXBXCXCXCXmXCXCXCXCXmXmXmXbXbXbXmXbX",
"dXdXdX3X6 P s.s.4.4.4.4.3.3.1.<.;.~..XP.]..XCX>XU.A.u h g R G C . &XS.Z.Z.J.uXnXmXmXBXmXBXmXmXmXmXCXCXCXCXCXCXCXmXmXmXmXbXmXmXmX",
"dXdXdX4X; = 2.4.3.3.3.1.<.<.:.:.;.y.XXXX.XoXHX&X^ e.Y.r ....K B O *XiXxXlXxXnXbXbXmXmXBXBXbXCXmXmXmXCXCXCXmXmXmXmXmXmXmXbXmXbXmX",
"dXaXbX3XP ] 1.3.1.1.<.:.:.;.;.$.$.$.:XZXtXHXAXa S.a r W W W G G N 3 0XcXmXmXmXnXmXmXmXBXmXnXmXmXCXCXmXCXCXCXmXmXmXmXbXbXbXbXbXbX",
"bXcXbX3X{ ,.1.<.<.:.;.;.%.%.$.$.$.#.+.t.jX>XQ e 0 T W W W ( G C b ] q lXmXmXnXnXmXmXCXmXmXmXmXCXCXmXCXBXmXmXbXmXmXbXmXbXmXmXbXmX",
"cXbXdXeX7 ,.<.:.;.;.=.%.$.$.$.#.O.#.+.X.+.E ) h Y +.y.c.c.8.D V C 2.{ R.cXBXmXmXmXmXmXCXmXmXCXCXcX*XwXBXCXmXmXmXmXmXbXmXmXmXmXmX",
"dXdXdXdXr &.;.;.%.%.$.$.$.#.o.X.X.W K H K K h h x.<X<X1XV.V.5./ S 1.2.5 yXmXBXCXCXmXCXmXmXCXBXBX$Xe.Q +XxXmXmXmXbXmXmXmXmXmXCXCX",
"dXaXsXdX5XU $.$.$.#.#.O.O.X.W E J C V V V 6 e.x.<X1X1X1XV.N.7.*.> 3.3._ >XnXBXCXCXCXCXCXCXCXmXBX^ u.m.y 8XbXmXmXmXmXmXmXCXCXCXCX",
"cXdXdXbXuXi ( $.#.#.X.X.` S V > 6 Q 2 2 X t.<X<X1XV.V.B.b.k.7.7., 1.3.,.u lXCXCXBXBXCXCXCXnXnXnXs 1.c.x.t lXmXmXmXmXmXCXCXCXCXCX",
"bXcXbXcXnXwXe L W L J : ; u X c x x c f i.V.<XV.V.B.n.n.l.7.7.7.A :.1.1.1 kXBXBXBXBXCXCXCXmXnXnXe <.4.M.7 0XmXmXmXmXmXCXCXCXCXmX",
"bXnXnXBXCXBX9Xt 5 & 1     l c r.x l w x.M.V.B.N.n.b.b.j.7.7.7.[ ` :.3.1.I 8XmXBXCXCXCXBXBXmXbXuX4 :.<.N.} %XmXmXmXmXCXCXCXCXCXCX",
"nXBXBXCXCXZXCXNXlX%X.   k c c r.7 x.B.B.n.b.z.z.z.k.9.6.7.6.*.= / ] :.1.@.@XMXBXBXBXBXBXmXmXbX$X) :.;.N.*.~ xXmXCXCXCXCXCXCXCXCX",
"BXBXVXVXVXVXVXVXMXzX4Xq ;XX e.x.M.B.b.b.z.9.*.8.6.[ y } 5.*.3 o V H o.=.&.u lXBXBXBXBXBXmXmXlXt :.=.%.N.2.e lXmXmXCXmXBXCXCXCXCX",
"BXBXBXVXZXVXVXvX%Xt 1 y i.M.n.b.b.z.z.w.7.7 #X5 o O e y = [ 3 V H o.d.s.,.4 8XBXBXBXBXBXmXmX$XI <.%.#.N.6.y uXmXmXmXmXmXmXCXBXmX",
"VXVXBXVXZXFXDXzXy x.v.n.b.b.b.f.w.9.6.*.5.7 e b K ( H : ) h.= C ..0.l.f.' ' s lXnXBXCXbXnX0X5 ,.:.$.%.N.7.u uXnXmXmXmXnXmXmXmXmX",
"BXBXBXVXDXVXVXDX@X) 5.w.w.6.} / , 7 x OX    - L ......H = [ : H ..w.k.9.&.=.U e 8XBXlX+Xq , @.;.=.%.,.v.8.e yXbXbXmXnXbXnXnXmXmX",
"ZXVXCXVXDXVXDXDXDX-Xd ~ ^ d OXgXSXHXHXzXu i A L O.O.X.( C : o > X.3.d., ] -.:.@.3 < = / ,.:.-.=.$.$.=.v.5.i yXfXbXnXnXmXnXnXnXbX",
"FXVXNXMXVXDXDXVXVXVXSXSXSXSXGXGXHXGXGXSX+X1 ` =.<.1.:.#.O.o.( K o.=., ` @.@.@.@.@.] ,.-.=.=.$.O.o.o.c.v.} @XiXdXcXbXnXmXmXmXnXmX",
"FXVXVXBXVXDXVXFXDXFXFXGXFXGXFXGXSXGXSXDXvX-Xy -.j.j.j.q.;.=.%.$.%.U , K K D D = = b ` =.$.#.o.o...c.N.9.I 5XaXdXbXnXmXnXBXBXCXBX",
"FXVXCXVXVXDXDXDXFXFXGXGXGXGXFXGXGXSXDXVXDXDXgXq ) [ [ } >.f.f.1.@.= Z G ` ] @...K Z b D X.o.X.X.p.V.h.*.q yXbXbXnXmXnXCXCXZXZXnX",
"GXDXDXVXVXDXDXDXFXGXFXFXGXGXGXGXSXFXVXVXVXVXgX1 6 x.,Xx.e.o I P o D Z K &.=.=.#.X.L Z V > X.X.c.N.g.5.6 0XaXcXcXnXnXVXCXCXCXZXCX",
"HXGXGXSXFXDXFXDXFXFXFXSXGXGXFXFXFXDXVXVXBXvXu P _ <X<X<XM.2...K V Z Z &.;.=.=.#.o.X.H V V ' v.B.h.8.Y 5XiXcXnXnXnXnXBXCXZXZXCXZX",
"HXGXGXFXFXFXFXDXFXFXGXFXFXFXFXZXDXVXBXVXCXkX4 U _ <X1X1X<Xg...G D Z K <.<.;.$.#.o.X...Z C P v.w.6.I $X5Xr s xXnXnXBXBXVXCXZXZXZX",
"HXHXGXFXDXDXDXDXFXFXGXFXFXGXFXFXFXVXVXBXnXR.; B Y ,X1X1XN.b.;.G Z Z &.1.<.;.=.$.o.X...H C C } 5.I +X&X< b - 8XnXBXnXBXBXCXCXZXCX",
"HXGXGXFXDXFXZXFXGXFXFXGXFXZXFXFXZXVXVXVX0X5 M B N c.N.n.n.b.k.] Z C 1.1.1.;.%.$.O.X...W G C D , $X0X< L H b ^ vXMXBXBXBXBXBXBXBX",
"HXGXFXFXFXFXFXFXFXFXFXZXZXFXZXZXZXZXCXBXs U N n : t.V.B.n.b.l.f.&.` 8.1.<.:.%.$.O.O.....G C : O s s ] $...G < wXMXBXBXBXnXBXBXBX",
"GXGXFXDXFXFXZXFXZXFXDXVXZXZXZXFXZXZXCXwX5 ' D % % 3 m.N.b.l.l.l.l.p.0.3.1.;.;.$.O.X.X...G G b V N > q.;.o.L : $XBXBXnXcXmXBXBXCX",
"HXGXGXDXFXFXVXVXVXVXZXVXZXZXZXZXZXZXnXT.U R R N % @ Y h.l.l.l.l.l.d.0.3.1.:.=.$.#.O.X.W G C C G G ` f.q.#...C i lXnXcXbXnXBXBXBX",
"GXGXGXFXFXFXVXZXVXVXVXCXCXZXZXZXZXVXrX< R R R J N $ # 6 d.k.j.l.l.a.0.2.3.:.;.$.#.O.X...G C C X.O.o.d.f.=.X.W ; 8XMXmXcXnXBXnXBX",
"GXFXFXDXZXDXZXVXMXVXnXBXBXZXZXZXZXBXT.T R J J F B v # # O _ a.h.h.u.8.4.3.<.;.%.#.O.X.L G C C $.$.=.0.j.3.O.W m ^ cXcXnXbXmXBXBX",
"FXFXSXVXVXVXMXzXgX%X%X-XyXMXNXMXCXkX* J J J F F n @ $ # + q +X+XOX^ I 2.<.<.;.%.$.O.X.H C C G ;.:.;.) f.d.$.X.J 5 rXbXcXmXBXBXCX",
"FXFXVXVXvXR.e d r.r.OXd O < t T.wXR.T J J F F F v # # # O wXCXMXMXMXe 2.3.<.;.%.$.O.W G C C L 1.,.6 s } f.;.X.K ; $XbXnXnXBXBXCX",
"FXDXVXVXlXt =XjX2Xi.e.e.% F J P < O J J F B m v $ # # + T.nXBXBXBXBX%X} 3.<.3.q.;.#.( C Z G @.} e 9XlX5 2.<.L P e.d xXMXmXnXBXBX",
"SXVXVXVXZXzX+Xy 5 x #X2Xr.M F ' { { R J n n % % # # + r xXmXnXBXVXBXxXq -.3.d.j.0.#...Z C S _ d zXVXNX-X_ &.U #X,Xe.0XBXBXnXnXnX",
"FXVXVXDXVXVXBXlXT.d #Xi.i.@ B F R { { { N $ # # + O T.iXmXmXBXmXBXVXBX9XY ,.j.l.q.#.X.S C 3 +XNXDXDXDXNXs ` 6 #XjX:XR.BXBXBXnXnX",
"FXFXVXDXBXVXVXNXvXkXT.y Q # n n F F ` @.{ ; O 8 R.yXcXnXBXmXmXBXBXBXBXMX8XY p.d.1.#.X.V < 9XvXVXDXDXDXDXzXe Q i.r.2Xs zXMXBXBXbX",
"FXDXVXFXVXVXVXCXCXmXcXwXr + $ v v n F F E V R.lXCXCXmXCXmXmXmXmXMXBXVXBXMXgXi Y ` ` > t kXVXVXVXDXDXVXVXNXlXd hX,Xe.. 4XBXVXBXBX",
"DXVXDXZXZXCXCXCXCXmXmXmXiX8Xr + v v n n F F R.nXCXmXmXCXmXCXBXmXmXBXBXBXBXMXlXgX9XwXgXzXMXMXmXVXVXVXVXNXNXNXgXd hXjX2Xu MXVXBXCX",
"VXVXDXZXZXZXZXCXmXmXCXmXmXbXpX*Xr + $ v v v R.nXCXmXCXCXmXmXmXBXBXmXBXMXBXBXVXNXVXVXCXCXMXBXcXBXVXVXVXVXVXVXNXlX+XOXhXd kXVXVXVX",
"DXVXDXZXZXZXCXCXCXCXmXmXbXbXbXbXyX$X8 + # + @XmXCXCXmXmXmXCXCXmXBXBXBXCXZXBXCXVXVXVXZXZXVXMXBXMXMXVXVXDXVXDXGXFXNX9X+Xs kXVXVXCX",
"FXZXFXZXZXZXZXCXCXmXmXmXmXbXbXmXnXfXqXR.* * 0XmXCXmXmXmXmXmXmXCXmXBXCXCXCXBXVXVXVXVXVXVXNXBXMXmXMXBXVXDXFXGXGXGXSXDXvXlXvXVXCXBX",
"FXFXFXFXFXZXZXCXBXmXmXmXmXmXmXbXbXbXdXpXeXqXbXCXmXmXCXmXmXmXmXmXmXBXmXBXBXBXVXCXVXVXCXVXMXBXmXMXBXVXDXFXGXFXGXFXFXSXFXZXVXVXBXVX",
"FXFXFXFXFXZXZXZXCXBXmXmXmXmXmXmXbXbXfXfXfXbXbXmXbXmXmXmXbXmXmXCXBXCXmXmXBXBXCXVXVXVXVXVXVXBXMXBXBXVXFXFXZXGXGXGXGXDXDXFXZXVXVXBX",
"GXGXFXGXGXFXZXZXCXCXCXBXCXmXmXmXnXbXfXbXbXCXmXbXbXmXbXmXbXmXmXmXmXmXCXCXBXCXCXVXVXBXVXVXBXnXBXBXMXVXZXFXFXFXGXFXSXDXFXDXVXZXVXVX",
"GXGXGXGXGXFXZXZXZXCXCXCXCXCXmXmXmXbXfXbXmXmXmXbXbXbXmXbXmXmXmXCXCXmXCXmXBXVXZXCXVXVXVXVXMXmXnXBXCXVXDXFXFXFXGXGXFXFXFXZXVXZXZXZX",
"HXHXHXGXGXGXFXZXZXZXCXCXCXmXmXmXbXbXbXfXfXmXmXbXbXmXmXmXmXmXmXmXmXmXmXCXVXVXZXVXVXBXCXBXBXmXMXMXMXCXZXFXFXFXGXGXGXFXZXZXZXZXCXCX",
"HXGXHXGXGXGXGXFXZXZXZXCXCXCXCXmXbXbXbXfXbXmXbXbXbXbXmXmXCXmXCXCXCXmXCXCXCXVXZXCXBXVXVXBXBXnXnXBXBXCXZXFXFXGXGXGXGXZXZXVXVXCXCXBX",
"HXHXHXHXGXGXFXFXFXZXZXCXCXCXCXCXCXmXbXbXbXbXbXbXmXmXmXbXmXmXmXmXCXmXBXBXVXCXCXBXBXBXVXBXVXMXCXCXMXVXZXZXFXGXFXGXGXZXVXVXCXCXCXCX"
};
