/* XPM */
static char *out[] = {
/* columns rows colors chars-per-pixel */
"64 64 245 2 ",
"   c #271A10",
".  c #1B2C0B",
"X  c #2B3611",
"o  c #2F3829",
"O  c #663127",
"+  c #1E4805",
"@  c #265501",
"#  c #355607",
"$  c #324B11",
"%  c #306906",
"&  c #2D7400",
"*  c #357901",
"=  c #394729",
"-  c #354A2A",
";  c #3B4835",
":  c #445C0C",
">  c #465415",
",  c #4A7507",
"<  c #50700D",
"1  c #4B6917",
"2  c #546C19",
"3  c #577716",
"4  c #697519",
"5  c #445524",
"6  c #465537",
"7  c #575534",
"8  c #52682D",
"9  c #596738",
"0  c #66772A",
"q  c #646A3A",
"w  c #6E7730",
"e  c #1D5A6C",
"r  c #3C6873",
"t  c #434C44",
"y  c #475848",
"u  c #525B4C",
"i  c #6C5754",
"p  c #576A4D",
"a  c #566557",
"s  c #676C57",
"d  c #687250",
"f  c #4D5A68",
"g  c #526D6A",
"h  c #6E7971",
"j  c #687B76",
"k  c #A95B2F",
"l  c #BF563F",
"z  c #927432",
"x  c #B57D2D",
"c  c #887345",
"v  c #9D6359",
"b  c #3B8A04",
"n  c #46810C",
"m  c #59870D",
"M  c #489709",
"N  c #5E930A",
"B  c #5C8416",
"V  c #599A14",
"C  c #66990D",
"Z  c #659C0C",
"A  c #668B18",
"S  c #748A19",
"D  c #699717",
"F  c #739A1B",
"G  c #5CA115",
"H  c #6AA30D",
"J  c #6BA90D",
"K  c #72B10F",
"L  c #6BA317",
"P  c #74A816",
"I  c #7BB715",
"U  c #6A8822",
"Y  c #778529",
"T  c #769826",
"R  c #728A35",
"E  c #79A824",
"W  c #74A229",
"Q  c #7DC513",
"!  c #79834F",
"~  c #6B8370",
"^  c #74847E",
"/  c #72BD6D",
"(  c #7ECA63",
")  c #89921C",
"_  c #9BA81D",
"`  c #83BB1B",
"'  c #87922C",
"]  c #A18538",
"[  c #89A92B",
"{  c #8BAC2E",
"}  c #95B82C",
"|  c #99A833",
" . c #98B336",
".. c #A5AF2A",
"X. c #B3BD26",
"o. c #A5B937",
"O. c #D1821D",
"+. c #C78B34",
"@. c #85C618",
"#. c #8BCB1B",
"$. c #91CE1F",
"%. c #8BC422",
"&. c #94CD22",
"*. c #99C72A",
"=. c #95D122",
"-. c #9AD325",
";. c #9ED429",
":. c #98C234",
">. c #B2C92D",
",. c #A3D62B",
"<. c #A6D82D",
"1. c #A9D92F",
"2. c #A7CB32",
"3. c #AAD733",
"4. c #ACDB31",
"5. c #B3DD35",
"6. c #B8DB39",
"7. c #B7E037",
"8. c #BCE13A",
"9. c #C3CD2B",
"0. c #CBD42B",
"q. c #C9D32C",
"w. c #C5CF31",
"e. c #C8D938",
"r. c #D2DC39",
"t. c #C4E53E",
"y. c #D5E23B",
"u. c #8A9150",
"i. c #97AD4B",
"p. c #ADB154",
"a. c #929769",
"s. c #A9B06F",
"d. c #CF9B54",
"f. c #ABD249",
"g. c #CAD44B",
"h. c #CBE643",
"j. c #D4EB45",
"k. c #D9EA47",
"l. c #DEF04A",
"z. c #CCEA54",
"x. c #D6EC59",
"c. c #E1ED4D",
"v. c #E3F24D",
"b. c #EAF757",
"n. c #EBF659",
"m. c #D1D36B",
"M. c #DCEB64",
"N. c #E9F16C",
"B. c #F3FD63",
"V. c #F8FE6C",
"C. c #FDFF73",
"Z. c #F9FC79",
"A. c #0F6C93",
"S. c #157399",
"D. c #386B89",
"F. c #33738E",
"G. c #2E759B",
"H. c #0A78A7",
"J. c #117DAC",
"K. c #297BA5",
"L. c #5C7A87",
"P. c #0F83B5",
"I. c #2A82AD",
"U. c #2487B8",
"Y. c #318AB6",
"T. c #768684",
"R. c #799390",
"E. c #5590AC",
"W. c #5592AE",
"Q. c #739DAC",
"!. c #74A4B4",
"~. c #1C8EC4",
"^. c #0E92CD",
"/. c #1A94CD",
"(. c #0C9AD9",
"). c #1799D7",
"_. c #139BDC",
"`. c #2A99CC",
"'. c #2BA8DD",
"]. c #119EE3",
"[. c #11A0E5",
"{. c #4AA6CF",
"}. c #70AAC2",
"|. c #0EC6F6",
" X c #2DCBEE",
".X c #73E0F9",
"XX c #919788",
"oX c #859996",
"OX c #959F9B",
"+X c #89A19C",
"@X c #9EA294",
"#X c #AAAC92",
"$X c #89A6A4",
"%X c #95A8A4",
"&X c #93B0AF",
"*X c #98B7B9",
"=X c #B0B9B2",
"-X c #CBA99C",
";X c #B3CB8F",
":X c #C7C797",
">X c #F8F986",
",X c #FDFE84",
"<X c #D4CFB1",
"1X c #E6E8AC",
"2X c #86B9CB",
"3X c #9CC4CB",
"4X c #A4C6C8",
"5X c #B6CACA",
"6X c #A4CDD6",
"7X c #ACD4DA",
"8X c #B7D6D9",
"9X c #AAD8E3",
"0X c #B8DDE2",
"qX c #91E2FA",
"wX c #BAE4EB",
"eX c #B5EBF7",
"rX c #BAEBF5",
"tX c #B6ECF8",
"yX c #BBEEF9",
"uX c #BEF0FB",
"iX c #CDD7D5",
"pX c #E6ECD9",
"aX c #C4DFE4",
"sX c #C6E5E9",
"dX c #CCE9EE",
"fX c #D8E7E9",
"gX c #C4EDF4",
"hX c #CCEDF3",
"jX c #C3EFF8",
"kX c #D4EDF2",
"lX c #C4F3FB",
"zX c #CCF4FA",
"xX c #CCF5FC",
"cX c #DAF1F6",
"vX c #D3F6FC",
"bX c #DBF6FC",
"nX c #D5F8FD",
"mX c #DBF8FD",
"MX c #E6EBE9",
"NX c #E4F4F5",
"BX c #E2F7FC",
"VX c #E3F9FD",
"CX c #EAFBFD",
"ZX c #F2FCFD",
"AX c #FBFDFD",
/* pixels */
"lXlXlXlXlXlXxXxXxXxXxXxXlXxXxXxXxXxXxXxXxXxXxXxXvXvXxXxXxXxXxXlXlXlXlXlXzXlXzXxXxXxXxXlXlXlXuXtXuXuXtXuXuXuXlXxXzXzXxXvXzXxXxXxX",
"yXjXuXlXlXlXxXlXxXxXxXlXlXxXxXxXxXxXxXxXxXxXvXzXwX9X6X6X6X9XwXlXxXlXlXlXlXzXzXxXxXxXxXxXlXuXuXtXuXtXtXuXuXuXxXxXnXnXxXxXxXvXxXvX",
"tXtXuXuXuXuXlXuXlXlXlXlXxXlXlXlXlXxXxXxXxXlX9X$X}.2X}.{.{.'.{.E.3XwXlXlXxXxXxXxXxXlXxXxXlXuXuXtXtXtXtXuXuXuXxXxXxXnXzXzXxXvXnXxX",
"eXeXtXrXuXlXlXlXlXlXxXxXlXlXxXlXxXlXlXxXlX$X2XL.D.D.f D.I.I./.]._.`.!.rXlXxXxXxXxXxXlXxXlXlXuXtXtXtXuXuXuXxXxXnXnXnXvXzXxXxXvXnX",
"eXeXtXuXuXlXlXlXlXuXlXxXxXxXlXlXlXuXlXyXQ.W.G.f f Y.K.~._.).].].].].'.`.3XhXnXvXxXxXlXxXlXlXlXyXuXuXuXlXlXxXxXnXvXvXvXxXvXvXvXvX",
"uXtXtXuXlXuXuXlXlXlXlXlXxXlXlXlXlXlXuX}.U.f F.F.K._.].].].].].].[.[.]._.).}.jXxXxXxXxXxXlXlXuXyXuXuXlXlXxXxXnXnXnXvXvXvXxXxXvXxX",
"eXeXuXuXuXuXuXuXuXlXxXxXxXlXlXlXuXuX9X`.D.f r ~.].].)./.U.K.K.K.K.U.~.)._.).2XzXxXxXxXlXlXyXjXlXlXlXlXxXxXxXnXnXnXvXvXvXxXzXzXxX",
"eXeXtXuXuXyXuXlXuXlXlXlXlXuXlXlXuX6XW.).K.D.U.(./.~.I.K.K.K.G.G.G.G.G.G.U./.Y.9XxXlXxXxXlXjXlXjXxXxXxXxXvXvXmXmXnXnXnXnXxXxXxXzX",
"tXtXtXuXtXtXuXlXuXuXuXuXlXlXlXuXuXQ.S.P.P.^.^.(._./.~./.U.U.I.I.K.K.K.U.U.~./.2XjXzXxXjXlXlXjXxXxXxXxXxXxXnXmXmXbXvXnXvXxXxXlXlX",
"tXtXyXtXuXtXuXuXuXuXuXuXuXlXlXlXuXwXL.r S.S.P.P.^._.)._._.].(.[.]._.].].].]./.}.jXzXzXzXlXjXlXlXxXxXxXxXnXxXnXnXnXzXvXxXxXxXxXlX",
"tXtXuXuXuXtXuXuXlXuXuXuXuXlXlXuXuX6Xq g.f.~ r I.S.J.^.(.[.[.[.[.].]./.).].].^.{.gXxXxXxXjXlXlXlXxXxXxXxXxXnXnXnXbXzXxXxXxXlXlXlX",
"tXtXeXuXuXuXuXuXlXuXlXlXlXuXuXlXrXh k.c.y.t.3.i.a D.S.P.(.[.[.[.].].h v K.).^.W.gXxXxXlXxXzXxXlXxXxXxXxXxXxXnXnXvXxXxXxXlXlXlXuX",
"tXeXtXyXuXeXuXuXuXlXlXlXuXgXuXrX7Xw k.h.| > X > d d.u.~ P.^.(.[.].~.-Xl l i U.}.gXlXxXxXxXxXxXxXxXxXxXxXxXnXnXmXnXxXxXlXlXlXuXlX",
"eXeXeXtXtXtXuXyXuXyXwX8X4X!.$XR.L.o.h.[ %XpXiXh 7 d.' 1.{ F.P.[.].~.l l l g P.}.jXxXxXxXxXxXxXxXxXxXxXnXxXnXnXmXnXxXxXxXlXuXuXuX",
"rXtXyXyXtXuXrX7XR.p 8 w ' |  .| 5 e.>.%X.XBXAXAX#X+.] 3.,.:.r K./.].D.i f J.P.2XxXxXxXxXxXxXxXxXxXxXxXxXnXnXnXnXnXxXxXxXlXlXlXxX",
"tXtXrXjXtX9Xj q | h.v.v.l.l.l.v.[ 6.f. X].qXAXAXiX+.+.:.,.%.z d A.J.^._./.J.K.6XxXxXxXxXvXxXxXxXxXxXxXnXnXnXnXnXnXxXxXlXxXxXlXlX",
"tXyXyXjXwXa p.c.v.l.j.h.t.t.8.t.<.7./ (.P.P.9XCXMXv +.:.{ ] O.z 9 e A.H.H.H.G.wXxXxXvXxXxXxXxXxXnXnXxXnXnXnXnXnXxXxXxXlXlXlXxXlX",
"yXyXyXyX$Xi.k.v.l.h.t.8.t.8.7.7.5.5./ (.A.A.(.qXkXE.F.d x x w T L # f G.S.A.F.&XxXxXxXvXvXvXxXxXxXnXnXnXnXnXnXxXxXxXxXxXlXxXxXxX",
"yXtXjXyXy < 2.j.t.t.8.8.8.7.7.5.4.4.( |.P.P.|.qXfXL.h G.g w %.Q F m o 7XeX9X0XjXxXxXxXxXxXxXxXvXxXnXnXnXnXnXxXxXxXxXxXxXlXxXlXxX",
"jXyXyXyXt . S t.8.8.8.7.7.4.4.4.4.<.f. X|.|.|.uXfXL.c e r @.#.@.H Z $ o 0XjXlXzXxXxXxXvXxXxXxXnXnXxXnXxXnXxXxXxXxXxXxXlXlXlXlXlX",
"jXjXlXtXy $ [ 7.7.7.4.4.4.1.1.,.;.;.-.;XNX.XuXZX=XF.D.R Q @.@.@.J Z , ' y wXzXzXxXxXxXvXxXxXxXxXnXvXxXvXxXxXxXxXlXxXlXlXxXxXlXxX",
"jXlXyXeXu } 4.7.7.4.4.1.<.,.,.,.;.-.-.-.;XpXMX#Xc z R Q @.@.Q Q H Z m 1.0 +XhXzXxXxXvXxXnXxXnXnXnXnXnXnXnXxXxXlXxXlXxXxXxXxXxXxX",
"jXyXuXuXR. .5.1.1.1.<.,.,.;.;.-.-.=.=.$.%.{ E R x z Q #.<.7.3.%.C Z C 3.3.6 8XnXnXxXnXxXvXxXvXnXxXnXxXvXxXxXxXxXxXlXlXvXxXxXxXnX",
"yXyXtXuX6X[ <.<.<.,.,.;.;.-.=.=.=.$.%.%.I I K U z s.M.Z.>X>X,XM._ < D 5.7.Y oXzXnXnXnXnXvXvXxXvXxXnXnXxXxXxXxXxX4X~ 6XvXnXnXnXnX",
"jXjXuXjXwX! &.;.;.;.;.=.=.&.&.#.Q I P L C C m R m.>X,X,X,X,X,XC.0.) A 4.t.>.9 0XvXvXnXnXnXxXxXvXxXxXvXvXzXvXxX0Xd i.u sXvXvXvXvX",
"jXjXgXlXzX*XW =.;.=.=.=.$.@.I P V B B < 1 > w >X>X,X,X,XZ.C.C.N.0.X.: 1.5.4.8 *XvXnXnXnXnXxXlXxXvXxXlXlXxXvXlX+X[ x.s.R.mXbXnXvX",
"lXzXzXvXnXdX~ E $.%.%.Q P A 4 X X o @XO k c Z.Z.,XC.Z.C.C.V.B.r.0.9.: >.2. .U h kXnXvXvXvXxXlXxXxXxXxXxXlXxXwXd 2.x.m.y vXmXnXvX",
"gXvXbXnXnXmXsXd A D V 2 X X -XO #Xa.X q M.Z.Z.C.C.V.V.V.B.n.r.0.0._ S <.k.6.4 a 0XzXvXvXxXxXxXlXxXxXxXxXxXgX^ [ 4.x.m.- zXnXnXvX",
"bXvXbXbXnXmXmXdX4Xt u s s 7 k O q s.N.C.C.V.B.B.B.B.B.b.y.0.0.0.9.< ` j.v.v.k.[ = &XhXvXvXxXxXxXvXxXxXlXlX*XR <.4.x.m.o hXvXnXvX",
"vXnXnXmXmXbXmXBXcXOX    7 c p.M.C.V.V.B.B.n.c.0.0.y.r.0.0.0.9.9.4 4 I $.j.v.k.1.%.0 ; 7XxXxXxXxXxXxXzXlX4X8 *.1.3.N.w.6 zXvXvXvX",
"nXvXvXbXBXBXBXBX%Xu.p.m.Z.C.V.B.B.B.b.v.y.0.0.0.0.0.0.0.0.0._ 4 X.F C K @.#.#.$.=.,.} o gXzXxXxXxXxXgXR.8 2.3.;.5.B...a xXzXzXzX",
"bXvXvXcXmXbXBXBX5X' 0.c.n.n.c.k.r.r.0.q.9.X.X.X.>.X._ ) 4 4 ..v.j.$.+ N Z K Q Z ` ;.e.R 4XzXzXxXlXR.y F 3.<.;.&.z.n.| R.lXzXxXxX",
"mXmXvXcXmXBXBXVXbX=Xq S ) ) 4 4 0 q s h j T.v L.L.^ R.+X' v.v.b.t.-.F X # : , # F -.5.o.j *XT.g = S ,.<.<.;.-.4.B.h.w 7XzXzXzXzX",
"BXmXcXvXmXBXBXmXmXbXMXiX=X5XfXNXMXNXNXNXbXbXnXcXNXNXfXXXg.b.b.b.6.-.$.*.#.F : . C &.1.6.. 0 [ 2.<.,.,.;.-.-.;.M.n.X.6 hXzXzXzXzX",
"BXmXnXbXmXBXBXmXmXBXBXBXNXNXVXCXZXCXBXBXBXBXbXBXZXZXMXs l.b.b.b.1.=.-.-.-.*.$.3 , #.<.t.X } 1.,.,.,.-.=.=.=.z.Z.g.' oXhXvXzXvXvX",
"BXmXnXbXcXBXmXBXBXCXCXCXCXCXCXCXCXBXbXbXkXiXfXNXNXCXfXp B.B.B.b.-.#.` F _ 6.6.S , I ,.y.' 3 -.,.-.=.=.$.%.h.Z.c.X.9 wXvXnXbXbXvX",
"CXBXBXBXmXBXBXBXBXBXCXVXCXCXCXVXVXBXbXbXT.s ; XXiXfX=Xu.Z.V.B.v.L 4 5.5.7.5.{ , K #.-.l.j.$ P *.=.#.#.$.z.V.n.>.w %XzXvXnXnXbXmX",
"ZXCXCXBXBXBXVXBXVXVXBXVXCXCXVXCXBXBXvXbXa :X=X5 = 6 5 m.,X>XN.Y } 5.6.7.7.2.9 B Q #.=.y.c.' : #.#.#.-.M.V.n.w.) ~ sXvXbXbXbXmXnX",
"ZXZXCXCXVXBXBXBXBXVXCXCXVXVXVXmXBXbXdX4Xo a.p U D V 1 m.,XZ.Y *.7.7.7.7.5.U #X1 I @.$.,.e.{ < N #.8.N.V.x.9.w T.sXxXvXbXnXmXnXmX",
"ZXCXCXBXBXBXBXVXVXCXVXBXVXVXVXVXBX8Xh u.$ 3 T {  .W 1 M.>Xu.} 7.1.5.1.1.1.} 0 $ J ` @.` ,.3 P : M.V.B.k.9.Y XXsXvXvXvXnXnXnXmXnX",
"ZXCXCXBXVXBXBXVXVXVXVXVXVXVXVXVXbX%X#X<X5 F  .o. .F # m.N.R y.l.t.1.,.,.,.,.&.3 # C H S A X ` : n.c.0.>.4 oXdXbXvXvXvXvXzXvXvXvX",
"ZXCXCXBXBXBXBXVXVXVXVXVXVXmXmXmXbXaXL.a.X D  . .{ B $ u.i.o.v.v.v.7.,.,.-.-.-.I p p $ X s 2 P # w.9.X.9 %XdXbXbXvXhXzXxXvXvXvXvX",
"CXCXCXVXVXVXVXmXmXBXBXmXmXmXmXVXbXbX0Xt ! # T { T - %X7 7 >.l.v.y.,.-.-.=.=.&.@.R #X1 3 a.D C : X.' p 7XhXBXcXbXvXvXzXzXzXvXvXbX",
"CXCXBXBXVXVXBXmXmXmXmXmXmXmXmXmXbXbX8Xa.<Xs % 1 - $XdXoX. *.,.;.-.=.=.$.=.$.#.#.I P @.@.J C m 2 7 oXsXgXkXmXbXmXcXzXzXgXzXvXvXvX",
"CXCXVXBXmXVXmXmXnXbXmXnXnXmXmXmXnXbXdXR.t L.*X*X0XzXcX8X> ` &.&.$.#.@.#.#.#.#.@.@.@.@.K Z N . ~ iX8X$XoXQ.8XkXnXcXzXjXxXzXvXzXvX",
"CXCXVXBXmXBXmXmXbXnXvXvXnXnXmXmXbXbXvXvXxXzXvXvXzXvXvX8X| A @.@.K J H P @.@.Q Q Q K Z C N # . t u $ , % @ . oXhXzXzXjXhXlXzXvXvX",
"VXVXBXmXbXmXmXmXnXnXvXnXnXmXbXnXnXnXbXvXzXzXvXzXzXvXvXsXq o.C C Z Z Z H Z H H H H Z Z C @ @ * # T E V M & + $XhXjXhXjXzXzXvXvXnX",
"VXVXbXbXbXmXnXmXmXnXnXvXnXnXbXbXbXvXvXzXzXzXzXzXzXvXxXkX&Xo.>.P Z Z Z Z Z Z Z Z Z N * @ * M n E  .L V M % ; 7XjXjXjXjXzXzXvXvXnX",
"VXBXmXbXbXbXvXmXnXnXnXzXvXnXnXmXvXvXxXvXxXxXxXxXvXxXxXxXsXd 6.t.$.` J Z Z Z Z , * & & & G G L  . .G M b + $XgXyXgXzXzXzXzXkXvXvX",
"BXBXmXmXmXmXmXnXnXnXvXzXxXvXvXvXvXvXxXxXzXxXxXvXvXvXxXvXzX7XR t.6.,.,.$.K Z C # % & & V G L {  .E V M & - 0XhXzXzXzXvXvXzXzXjXxX",
"BXBXmXbXbXbXmXnXnXvXxXxXlXxXxXvXvXxXxXvXxXvXvXvXnXxXxXvXzXhXj 2.5.<.,.$.` Z N @ & * V W W L } { G M b @ OXhXzXhXzXcXzXvXcXzXzXzX",
"BXBXmXBXbXnXbXbXnXvXxXlXxXxXxXvXvXxXvXzXvXvXvXvXvXvXxXxXzXzXwXw 6.<.,.$.I Z < @ b F W U 1 1  .E M b b - aXvXvXvXzXzXvXcXvXcXzXzX",
"BXBXmXmXbXbXbXnXvXvXxXxXxXxXlXzXxXzXxXzXzXxXxXvXnXvXxXvXxXxXhXR.} 1.,.&.P C # A U 5 t OX&XB E G M M @ oXkXvXbXvXvXbXvXbXvXbXvXvX",
"BXmXBXmXmXbXnXvXxXxXxXxXlXxXlXlXlXyXyXyXjXxXxXvXvXvXvXnXzX0X4Xg 2 >.1.-.P , X u &X8XsXdX^ A D M b b o aXbXcXbXmXBXBXbXbXbXbXvXvX",
"mXmXmXmXmXmXnXnXvXxXvXxXzXzXlXlXlXyXyXyXuXlXzXxXvXzXwX$Xa 9 T o.g.l.c.k.j.o.= +XfXbXmXdXt n % # @ + L.cXcXmXBXBXBXmXbXbXvXbXbXbX",
"BXmXBXBXmXmXbXnXnXvXxXxXlXlXlXlXlXuXyXtXyXlXzXxXsX+Xa 5 A } 5.h.y.k.k.j.t.5.} 6 5XbXbXdX; $ s s.i.; dXBXmXBXVXCXBXBXmXbXbXbXbXvX",
"mXVXmXVXmXmXmXnXvXxXxXxXxXlXlXxXlXlXeXeXuXlXjX4Xh @X<XR 2 A #.-.-.-.-.-.-.=.$.B h dXbXsXu s.c <Xu.h cXVXVXCXCXVXCXBXBXmXmXbXbXbX",
"VXVXVXVXBXmXmXnXnXxXxXxXxXxXxXlXzXlXuXtXlXrX&Xh <X1Xa.#X<X0 L #.#.#.#.Q Q #.Q V 6 aXcXsXp :Xq iX6 aXbXVXCXCXCXCXBXBXVXBXmXnXbXvX",
"CXVXVXVXVXVXmXmXnXvXxXxXxXxXxXxXlXlXuXuXuX4X~ pX1Xu.:XpX>Xm., K K K J G Z N m m 5 8XbXdXi :X7 a.j cXBXBXVXVXCXVXCXVXVXBXmXbXvXbX",
"CXCXCXVXVXVXmXmXmXvXvXvXnXxXxXxXzXlXuXgXgXa =X<Xa.s #Xs.a.~ - 8 8 6 6 p u a ~ j oXdXbXdXu <Xu.o 8XbXBXVXVXVXCXCXBXBXBXBXmXmXnXnX",
"CXCXZXCXCXVXVXmXmXnXnXnXnXnXxXxXxXlXuXlXxX7X*X3X3X6X7X8XwXwXrXsXgXhXhXzXvXnXmXmXbXbXbXdXT.<X#Xg zXbXbXBXVXVXCXVXVXBXBXmXmXmXmXbX",
"ZXCXZXCXCXCXVXmXmXmXmXnXnXxXxXxXxXlXuXuXuXxXxXlXlXxXxXxXxXnXxXxXxXxXvXnXnXnXmXnXvXbXnXvX8Xa.i 5XkXbXmXBXCXVXCXCXCXVXmXmXmXbXnXvX",
"ZXZXCXZXCXCXVXVXmXmXnXnXnXnXnXxXlXlXlXuXlXxXxXlXlXxXlXxXxXxXxXxXvXxXzXnXmXnXmXnXvXbXvXvXdXa g kXvXnXmXVXVXVXCXCXCXVXmXbXvXbXnXnX",
"ZXZXZXCXCXCXVXVXVXmXmXnXnXnXnXnXvXzXlXuXxXlXlXlXxXlXxXxXxXxXnXnXxXvXvXnXnXbXnXvXvXvXbXbXcXhXdXbXzXmXmXmXVXCXVXCXVXmXmXbXnXnXnXnX"
};
