/* XPM */
static char *out[] = {
/* columns rows colors chars-per-pixel */
"64 64 243 2 ",
"   c #182108",
".  c #303A0B",
"X  c #313824",
"o  c #334B08",
"O  c #354F10",
"+  c #3D5F24",
"@  c #474E15",
"#  c #445716",
"$  c #45670C",
"%  c #556817",
"&  c #4D7311",
"*  c #547515",
"=  c #606718",
"-  c #68781A",
";  c #4F5833",
":  c #6A553B",
">  c #587928",
",  c #517030",
"<  c #697531",
"1  c #356975",
"2  c #505953",
"3  c #6C5B5A",
"4  c #53664E",
"5  c #6D7151",
"6  c #697658",
"7  c #4C5A68",
"8  c #4B6B6E",
"9  c #687A6F",
"0  c #9B5036",
"q  c #B54C3E",
"w  c #917335",
"e  c #A77831",
"r  c #C85C3E",
"t  c #9A5F50",
"y  c #B2524A",
"u  c #976A4C",
"i  c #CB554C",
"p  c #E26D5E",
"a  c #588F0E",
"s  c #5D8817",
"d  c #669A0D",
"f  c #659C0C",
"g  c #688B1A",
"h  c #758F1B",
"j  c #6A9A14",
"k  c #5EA017",
"l  c #69A30D",
"z  c #74B60F",
"x  c #6DA314",
"c  c #76A716",
"v  c #7AB615",
"b  c #5A892E",
"n  c #788C26",
"m  c #699728",
"M  c #799526",
"N  c #669934",
"B  c #759334",
"V  c #72A62D",
"C  c #79B22F",
"Z  c #75AA34",
"A  c #7CB434",
"S  c #7CC112",
"D  c #55874F",
"F  c #76914C",
"G  c #79A74D",
"H  c #748871",
"J  c #7CA870",
"K  c #82BB19",
"L  c #8E9832",
"P  c #B28231",
"I  c #8AA929",
"U  c #99BC2C",
"Y  c #90AD30",
"T  c #ABB930",
"R  c #D08A25",
"E  c #84C618",
"W  c #8CCB1C",
"Q  c #91CD1F",
"!  c #93CE21",
"~  c #94C12C",
"^  c #9AC729",
"/  c #97D123",
"(  c #9BD325",
")  c #9ED328",
"_  c #B0C82E",
"`  c #A2D52B",
"'  c #A6D82D",
"]  c #A9D92F",
"[  c #A6C434",
"{  c #ABD536",
"}  c #ADDA31",
"|  c #B3DD34",
" . c #B8DA38",
".. c #BBE139",
"X. c #C2CB29",
"o. c #C7D12A",
"O. c #CBD52C",
"+. c #CCD837",
"@. c #C4DB3B",
"#. c #C3E43D",
"$. c #CBE83F",
"%. c #D6E03D",
"&. c #8F9450",
"*. c #AA975C",
"=. c #8AB746",
"-. c #91B151",
";. c #ADB952",
":. c #86906F",
">. c #95B373",
",. c #AEB872",
"<. c #D19B4F",
"1. c #E2836E",
"2. c #B4C849",
"3. c #9EC676",
"4. c #A9CC6A",
"5. c #BDE27A",
"6. c #C8D348",
"7. c #CDD74E",
"8. c #CCE742",
"9. c #D7E747",
"0. c #D3EA45",
"q. c #DCED4A",
"w. c #DFF04A",
"e. c #D9E750",
"r. c #E1ED4C",
"t. c #E2F24D",
"y. c #E8F64F",
"u. c #EAF758",
"i. c #CED06D",
"p. c #F5FD68",
"a. c #E9ED70",
"s. c #FAFC79",
"d. c #0C739D",
"f. c #197291",
"g. c #32708F",
"h. c #2E7499",
"j. c #0B79A8",
"k. c #177CAB",
"l. c #2B7CA6",
"z. c #49778F",
"x. c #0C83B8",
"c. c #1786B9",
"v. c #2780AD",
"b. c #2488B8",
"n. c #378AB0",
"m. c #798F86",
"M. c #7EAB83",
"N. c #5293B2",
"B. c #6798B1",
"V. c #6DA4BB",
"C. c #0E8FCA",
"Z. c #1B8EC4",
"A. c #1A92CB",
"S. c #0E98D7",
"D. c #1798D4",
"F. c #139CDC",
"G. c #2692C7",
"H. c #0F9EE1",
"J. c #119EE3",
"K. c #11A0E5",
"L. c #439EC8",
"P. c #67A6C2",
"I. c #8D968D",
"U. c #869889",
"Y. c #91AC95",
"T. c #AAB48C",
"R. c #B6B99A",
"E. c #8DB1AC",
"W. c #8CAEB0",
"Q. c #96B9BB",
"!. c #AAB6AC",
"~. c #DD9D99",
"^. c #E49488",
"/. c #C1A09A",
"(. c #D1B1AE",
"). c #97C28A",
"_. c #ABCA8F",
"`. c #9CCAB3",
"'. c #AFCCB2",
"]. c #CCD096",
"[. c #E8F29D",
"{. c #D0C6AF",
"}. c #D5EAAB",
"|. c #8BB3C2",
" X c #9ABBC5",
".X c #9CC3C5",
"XX c #A5C7C5",
"oX c #AFD0CD",
"OX c #B8DBDA",
"+X c #BAE1C3",
"@X c #B7E2D8",
"#X c #B1D8E1",
"$X c #B9E5EA",
"%X c #B5EBF6",
"&X c #BBECF5",
"*X c #B6ECF8",
"=X c #BBEEF9",
"-X c #BFF0F5",
";X c #BEF1FB",
":X c #CCC9C9",
">X c #D4C9C9",
",X c #CFD5CC",
"<X c #CBD8DA",
"1X c #D2D6D8",
"2X c #D0E5D7",
"3X c #E8F4CA",
"4X c #E4EAD1",
"5X c #ECF5D8",
"6X c #F2F6DA",
"7X c #C9DDE2",
"8X c #C4E5EB",
"9X c #C8E5E8",
"0X c #CBEBED",
"qX c #D4E7E7",
"wX c #D4F1EE",
"eX c #C3EDF4",
"rX c #CBEDF4",
"tX c #C3EFF8",
"yX c #CAEFF8",
"uX c #D6ECF1",
"iX c #C3F1F6",
"pX c #CCF1F6",
"aX c #C4F3FB",
"sX c #CBF5FC",
"dX c #CFF8FE",
"fX c #D7F2F4",
"gX c #D3F6FC",
"hX c #DAF6FC",
"jX c #D5F8FD",
"kX c #DBF8FD",
"lX c #E6ECE8",
"zX c #EBF4E9",
"xX c #F6FAE8",
"cX c #F5FAEC",
"vX c #E7F5F4",
"bX c #E1F7FC",
"nX c #E4F9FC",
"mX c #ECFBFC",
"MX c #F3F6F3",
"NX c #F5F9F3",
"BX c #FBFDF4",
"VX c #F4FDFD",
"CX c #FAFEFD",
/* pixels */
"iXtXaXaXaXaXsXsXdXsXsXsXaXdXdXdXdXdXdXdXdXsXdXsXdXdXaXdXdXaXaXaXaXaXaXaXpXsXsXsXsXsXsXaXaXaX;X*X;X;X*X;X;XaXiXsXsXsXsXgXsXsXsXsX",
"=XaX;XaXaXaXaXsXsXsXsXaXaXaXdXaXdXdXdXaXsXdXdXsXdXsXdXaXaXaXdXaXdXaXaXaXaXpXsXsXsXsXsXsXaX;X=X;X;X*X*X;X=XaXsXdXdXgXsXsXsXgXsXgX",
"%X*X=X=XaX-X;X;XaXaXaXaXaXaXaXaXaXdXdXdXaXdXdXdXsXdXdXaXaXaXsXaXaXaXsXaXiXdXaXdXaXsXsXsXaX;X*X*X*X*X*X;X=X;XiXdXgXgXsXsXsXgXgXgX",
"%X%X=X;X;XaXaXaX;XaXsXsXdXaXdXaXaXaXaXaXdXaXaXdXaXdXdXaXsXsXaXaXsXsXiXdXaXpXpXdXsXsXsXsXsXaX=X*X=X*X=X;XaXiXdXgXjXjXjXsXsXdXgXgX",
"*X*X*X;X;XaXaXaXaXaXaXdXdXdXaXaXaXaXaX;XaXsXaXsXdXaXsXsXsXaXsXaXaXpXyXgXdXpXpXgXsXsXaXaXaXaXaX=X;X=XaXiXaXsXgXjXgXgXgXsXsXsXgXgX",
"*X*X%X;XaX;XaXaXaXaXaXaXaXaXaXaXaX;X;X;XaXaXaXaXaXaXsXsXaXaXaXaXaXsXyX0XpXiXpXdXsXsXsXsXtX=XaX=X;XaXiXtXsXdXgXjXgXgXgXgXsXgXsXgX",
"*X%X;X;X;X;X;X;X;XaXdXaXaXaXaXaX;XaX;X;X;XaXaXaXdXaXsXaXaXaXdXaXsXsXpX9X0X9XpXdXdXsXsXsXaXtXtXtXaXsXiXsXdXsXjXjXjXgXgXgXgXsXsXsX",
"%X%X*X;X=X=X;XaX;XaXaXaXaXaXaXaX;X;X;X-XaXaXeX&XiXiX0X8X0X9X9X2X<X1X,X>X>X>X,X1X1X7X7X9X8X8XeXtXtXpXsXsXsXgXhXhXjXjXjXjXsXsXsXyX",
"%X%X*X;X;X%X;XaX;X;X;X;XaXaXaX;XaX;X%X$X8X<X7X<X:X>X>X{.(.(.~.~.^.^.1.p 1.1.1.1.^.^.~.(.(.(.:X>X>X1X1XqX9XqXwXhXgXgXjXgXsXsXsXaX",
"*X*X=X=X*X*X;X;X;X;X;X;X;XaXaXaX;X;X;X*X;X;XiXaXaXeXeXiX9X9X9X9X1X:X*.L &.u {.>X>X1X1X1X<X<X7X7X0X0XrXpXgXfXhXjXgXgXsXdXsXsXaXaX",
"*X*X=X;X;X*X;X;XaX;XaX;X;XaXaX;X;X;X=X*X*X;XaXaXaXaXaXaXsXaXaXaX;X@XA B B Y.0XpXaXsXsXiXtXtXaXaXsXsXsXsXdXgXjXjXjXgXsXdXsXaXaXaX",
"*X%X*X=X;X;X=XaXaX;X;XaXaX;X;XaX;X;X=X*X*X;X;XaXaX=XaXaXaXsXaXaXaX).A b Z +XiXaXsXsXsXsXsXsXyXyXrXsXsXsXdXsXjXjXgXsXsXsXaXaX=XaX",
"*X%X%X=X=X*X=X;X;XaXaXaX;X;X;X;X%X%X%X*X;X;XaX;XaXaXaXaXaXaXaXaXaX3.N b G %XaXaXiXsXsXsXsXsXsXsXsXgXsXdXdXjXjXkXjXdXaXaXaXaX;XaX",
"%X%X*X*X=X%X=X;X;X;XaXsXaX;X$X`.W.Q.XX%X;X;X;XaX;X;X;X;XaXaXaXaX;X-.N N M.*XaXsXsXsXsXsXsXsXsXsXsXsXsXdXdXjXjXjXjXdXdXaXaXaX;XaX",
"*X*X=X=X*X;X;X;X;XaXiXiX&XE.> O & U I B H `.;X;X;X;X;XaX;XaXaXiX@X=.V V `.-X-XsXaXsXsXdXsXsXsXsXsXsXsXsXjXjXjXjXjXdXdXdXsXaXaXaX",
"*X&X*XtX=X%X*X%X*X;XiX&XE.;.U % I | ] ' / m H %X;XaX;X;XaXaXaXiX+XA C N `.&XaXpXsXsXdXsXdXsXsXsXsXdXdXgXjXjXjXjXgXdXdXaXaXaXaXsX",
"&X=X=XtX=X*X%X*X=X;XaX$XF t.t.8. .} } ) ) / g E.=X;X;X;XaXaXiX-X`.Z C b `.iXiXsXsXsXgXsXgXsXsXsXgXgXgXgXjXjXjXjXdXdXsXsXaXaXsXsX",
"=X=X*X=X*X%X=X=X=XtX=X#X;.t.8.#...| } ) ) / k H $XaXaXaXXX6 Q.iX).A N Z `.eXeXsXsXsXsXgXdXsXsXgXsXgXjXgXjXjXdXdXsXsXsXsXaXsXaXaX",
"=X=X=XtXtX*X=XtXtXaXtX'.+.q.#...| } ' ) ( W x 4 W.aXaXyXM.7.F eX_.Z V C Y.$X$XaXsXsXsXdXsXsXdXsXdXdXgXjXjXjXdXdXdXdXsXsXaXdXaXdX",
"tX=XtX*X*X*XtXtXaXyXrXY.9.9.#...| } ' ) / W s H $XsXtX!.; a.L  X3.C C b -.@X@XiXsXsXsXgXsXsXsXjXgXgXdXgXgXdXsXsXsXaXaXaXaXaXaXaX",
"tXtXtX=X=XtXtXtXiXsX0XU.9.8.....| ] ' ) / ! * W.rX8Xz./.;.p.L  X3.=.N C F @X`.aXsXsXdXgXpXsXdXgXgXgXjXgXjXsXsXaXsXsXaXaXdXaXaXdX",
"tXtX=X=X=XtXsXyXgXbXvXY.9.8.....} ] ) ( ! S , 9 #XI.i : a.u.B OX3.D C b N 6 m.@XsXsXsXdXdXdXdXgXgXjXkXkXgXdXsXsXaXsXsXsXdXdXsXdX",
"tX=X=X=XtXgXhXbXVXVXmXT.7.8.....} ' ` ( Q v , !.Y.i i w p.e.< '.>.N G V N >.H oXsXdXgXgXgXdXgXkXhXmXVXmXbXbXkXsXsXaXsXsXdXdXdXdX",
"tX=X*XtXyXnXVXVXVXCXVX,X6.0...| } ' ) ! W j 6 :Xt t u i.p.%.5 m.].A b C N D U.9X0XgXgXgXjXdXgXkXnXVXCXCXCXCXVXmXnXgXdXdXdXjXjXgX",
"=XtX=XiXhXmXVXVXVXVXMX,XL T | } ] ) ) / K d : 3 p t &.a.p.o.6 7 :.=.N b C > E.pXpXgXjXjXjXgXgXkXmXVXVXCXCXCXCXCXVXkXsXjXjXgXjXjX",
"tXyXpXsXkXhXhXbXbXlXR.F [ {  .{ ' ) / / K d ; 0 p i i.p.y.X.2 m.O -.A b > b J @X$X8XrXjXgXgXbXnXVXVXVXVXCXCXVXVXVXnXgXjXjXjXjXgX",
"iXsXsXgXgXhXgXhX2X:.7.q.$.q.0.T U ~ W Q K d . q p u a.u.9.L 9  X. Y G # T.5 ; ; , , M.#XhXmXVXVXCXCXCXCXCXVXmXVXVXVXmXmXkXkXjXjX",
"sXgXgXgXgXhXhXuX:.9.q.0.t.y.t.I O ( E v K d : q 0 a.p.u.X.< I.7 O b V X R.!.+ , Y Y b + qXBXVXCXCXCXCXCXCXVXnXmXVXCXCXCXVXnXkXjX",
"gXgXhXhXhXhXuXY.6.w.8.w.y.y.r.M   K E l z f : : i.s.p.r.X.@ X   < O . o O o . H @ B j a ; vXVXCXCXCXCXVXVXmXnXmXCXCXVXNXCXVXnXjX",
"gXgXhXhXkXhXuX>.q.w.$.w.y.u.r.g o & S f v g e *.s.p.u.O.X.. @ 7.,.I.$ S E v j @ T n a a $ H MXNXCXCXVXVXnXbXmXmXVXmXnXmXVXmXnXdX",
"hXgXgXhXkXbXuX,.w.t.@.@.0.t.8.* x $ z a v e e i.s.p.r.O.X.- u.p.a.@ z E Q / ` - +.L # g m B H :XmXVXmXfXXXu :.qXbXkXkXkXbXhXkXsX",
"gXgXgXhXkXbXuX>.9.y.$.I { | ` & E f f l D 1 5 s.s.p.u.O.X.L u.p.u.% z W ( 8.@.% n ^ | | w.t.} g !.lX!.U.R.>XU.8XsXsXsXpXgXgXsXsX",
"hXhXgXhXbXuXz.7 ;.t.y...c c c a l a m D z.g.,.[.p.p.w.o._ T u.u.u.% j ! #.t.Y n ..| | | y.y.} Q g 6 R.R.*.6 .X;XiXsXsXsXpXsXsXsX",
"bXhXhXfXhXhXN.d.f.J e.y.| _ K c v V 8 Z.*.3 4.s.p.y.O.X.I 6.r.Y o & W ' 9.n -  ...| ] | %.../ Q c % < 5 5 B.%X;XiXsXsXrXsXsXpXsX",
"bXhXhXgXhX#XG.J.j.f.1 2.#.} ^ I w R P 8 g.v.,.s.p.r.o.X.. . o & o K ` ..n I  . .| ] ' ' ( / Q v x % (.{.6 #X=X=XiXyXsXgXdXgXgXgX",
"bXbXhXhXhXB.l.g.A.x.d.f.G L *.<.R P < V P 3 i.p.r.O.X.@ d f z S c ( | _ - {  .| ] ' ` ( / Q z l f * ;.-.XX=X$XoXW.9 9 rXgXhXhXgX",
"mXbXhXbXuXL.g.2 h.H.S.j.d.7 <.u L W K v R w 7.%.O.O.X.& v E Q Q / ` @.# _  .} } ' ` ( / Q W f d f h O 7 #X.X9 ,XlX:Xm.gXhXkXkXjX",
"VXmXmXbX0XP.7 7 h.H.S.S.k.j.g., j c v x R e T O.O.X.- K } q.w.#.^ g % M | | } ' ' ( / Q W E l f l I X  X4 _.}.i.,.:.9XjXhXjXjXkX",
"VXmXmXbX7X|.n.v.A.F.A.D.J.C.k.d.1 , g s R e = - = I U ) $.t.q.Y > m N ^ | } ' ` ( ( Q W W K f f K I H B g 5 T.(.9 7XsXhXjXkXkXkX",
"VXmXmXmXqX X8 7 b.F.b.b.D.J.J.F.C.x.f.1 : : I I ^ } | } ] U I M Y C V ) } ' ` ) / Q W E E l f d ^ U L ) s _.[.R.Q.yXgXjXjXhXjXjX",
"VXmXmXbXuX|.8 z.Z.J.A.G.D.A.J.J.K.K.S.C.x.f.D G { ..} ] _ ^ [ ` =.C N ~ { ) ) / / Q E E z f f v '  .0.) l *.i.Y.uXgXgXgXgXgXgXgX",
"VXbXnXbXhXW.N.h.l.J.J.h.l.l.J.K.K.K.H.H.S.C.x.d.8 &.G -.:.F F F =.Z N x ) ) / ! W E S z f f f Q ..t.#./ K * 9 9XgXgXsXgXgXsXgXgX",
"mXmXbXbXbX#XV.7 8 J.J.G.l.k.Z.K.K.K.K.A.b.n.Z.x.d.f.Q.9XfXfX2X9X-.Z Z g K / Q W E v l l a & d ~ w.9.) W z , OXfXgXgXyXsXsXgXgXjX",
"mXmXmXbXbXhX|.z.g.D.J.F.g.g.h.F.K.K.H.n.y q 2 Z.j.d.h.0XkXkX+X@XA N s I $ x x x l f a d % 2 *  .t.] / S * '.uXhXfXyXyXyXsXgXgXgX",
"mXmXmXbXbXbX7XP.G.l.K.K.S.h.h.l.J.J.Z./.p r t k.j.f.z. XjXkX2X'.A N Y.U ~ * $ a s & > _ T !.6 e.| ! E f U.rXgXhXgXyXyXyXyXsXgXgX",
"mXnXbXbXbXbXfXXXL.D.G.K.J.Z.h.h.b.J.D.z.u r 3 x.x.B.9XyXkXkXdX_.C G 0XU.~ 2.2.4.4.4.a.u.+.Y.:.) ! E l 4 9XyXgXyXyXsXyXsXsXsXsXgX",
"nXnXbXhXhXhXhXhX.XG.J.J.J.J.l.h.h.A.J.J.A.z.h.c.N.9XdXjXjXjXpX3.Z G aXfXU.}.3X}.}.5.[.s.i.!.oXh E x ; @XrXsXyXyXyXyXtXsXyXgXjXjX",
"nXbXhXhXhXhXgXhXyX#XN.J.J.J.J.b.l.l.F.J.J.C.c.N.$XpXgXpXgXjXwX3.Z F pXkXmXzXxXxX5X3X3XxXxXzXlXH Z * `.iXrXyXtXtXtXyXyXyXsXgXjXjX",
"nXbXhXhXjXjXhXjXhXjX8XV.Z.J.J.J.Z.b.b.F.S.c.B.8XgXdXsXsXsXgX0X>.G >.2XmXmXlXxXBXBXCXBXBXBXMXCXvX!.'.uXgXpXrXyXtXtXyXgXyXsXyXgXgX",
"bXbXhXhXhXkXkXkXjXjXgXsX#XV.G.J.H.D.D.C.n. XyXgXjXdXsXdXdXdX$X).G G '.nXVXNXMXxXBXcXBXBXBXMXCXCXCXbXbXhXgXgXyXyXsXgXyXgXgXgXsXyX",
"nXbXhXhXhXkXkXjXjXgXsXaXyXtX8X XB.B.N.Q.tXsXgXjXgXgXgXsXsXaX#X_.).>.{.fXCXCXlX5X5XxXxXBXxXMXCXCXCXmXbXbXhXuXgXyXyXyXgXgXgXyXsXyX",
"nXbXkXbXhXjXhXhXjXgXsXsXaXsXsXsXyXyXrXpXdXdXgXgXgXsXgXsXdXsX@X2X'.+X'.qXMXCXlX4X3XxXBXxX6XlXVXCXCXVXmXbXhXgXgXyXgXgXgXhXgXgXgXsX",
"bXbXhXkXhXhXhXjXjXsXsXsXsXsXyXsXsXaXdXsXsXsXsXgXjXgXsXsXjXsXwXvX}.2XNXVXVXBXCXMXxXcXBXBX4XzXVXCXCXVXVXmXbXfXhXhXgXhXhXgXhXgXgXgX",
"bXkXbXkXhXhXjXgXgXsXdXsXsXaXaXtXaX;X=X=XiXaXsXgXjXjXkXkXkXnXVXVXvXzXNXBXCXBXCXBXBXBXBXxX,XvXmXVXCXCXCXCXCXVXmXhXbXbXhXhXhXhXhXgX",
"hXhXhXhXhXhXkXgXgXsXgXsXsXsXaXaXaX=X=X=XaXaXsXdXhXnXVXmXVXVXCXVXVXcXNXNXCXCXBXxXxXxXxX6X1XmXvXmXCXCXCXCXCXCXVXVXmXbXkXhXgXhXhXgX",
"bXhXnXbXkXkXkXjXgXgXdXsXaXaXaXaXiX;X*X&X;XaXpXgXnXmXVXVXVXVXVXCXVXNXzXcXNXCXMXzX6XxXxX5XvXbXmXVXCXCXCXCXCXCXCXCXVXmXbXhXhXhXhXhX",
"nXbXnXnXnXkXkXjXgXsXsXsXsXaXsXaXsXtX*X*X=XaXsXkXnXVXVXVXVXmXVXVXVXCXNXxXNXBXMX5X5X6X6XlXVXmXmXVXCXCXCXCXVXCXCXCXVXmXnXbXhXhXhXgX",
"nXnXkXnXkXkXkXjXgXdXsXsXsXsXsXsXaXaX=X*X=XaXgXnXnXnXnXnXnXnXmXVXVXCXVXcXCXNXlX3X6X6X4XVXVXVXVXVXCXVXVXVXVXVXCXVXVXVXnXbXhXgXhXgX",
"nXnXmXnXnXnXkXjXgXgXdXsXsXsXsXsXiXaX;X;XaXiXdXgXjXjXjXjXjXkXnXmXmXVXVXCXNXMX5X3X3X,XvXVXmXVXVXmXmXnXmXmXmXmXVXVXVXmXnXbXhXhXhXgX",
"mXnXnXnXnXkXkXkXjXjXgXdXsXdXsXsXsXaXtX-XsXsXsXaXpXsXaXsXpXdXjXnXbXnXmXVXVXVXzX,X1XfXnXnXmXbXbXbXnXnXnXmXmXmXmXVXmXnXbXnXkXhXhXhX",
"VXmXmXnXnXnXkXkXkXjXjXjXjXgXdXsXaXaXaXaXsXdXsXaXaXaXaXsXsXsXjXjXkXkXnXmXmXVXmXnXhXhXhXhXbXfXgXhXhXhXbXmXmXmXmXmXnXnXbXbXkXkXkXhX",
"mXVXmXVXmXmXnXnXkXkXjXgXjXgXdXsXsXaXiX;X;XsXaXaXaXsXsXsXdXsXdXjXnXnXmXmXVXmXnXkXhXgXkXhXgXgXyXyXgXgXkXbXnXmXmXnXmXnXkXkXkXhXjXgX",
"VXmXmXmXmXmXnXnXkXkXkXjXjXjXdXdXsXaXaX;XaXaXsXaXaXsXsXsXdXdXjXkXnXnXnXmXmXkXkXhXgXhXhXgXgXfXyXhXgXhXkXnXnXnXnXmXnXnXkXhXjXjXjXgX",
"VXVXVXVXmXmXnXnXnXkXhXhXjXjXgXdXdXsXiXaXsXaXaXaXsXsXsXaXdXdXdXkXjXjXkXkXkXkXgXgXgXgXjXhXgXgXgXgXgXhXkXkXnXmXnXmXmXkXkXkXjXjXjXjX"
};
